<svg width="40" height="25" viewBox="0 0 40 25" fill="none" xmlns="http://www.w3.org/2000/svg">
<path fill-rule="evenodd" clip-rule="evenodd" d="M36.8418 0H2.63158C1.17829 0 0 1.18092 0 2.63421V22.3658C0 23.8207 1.18125 25 2.63191 25H36.8421C38.2957 25 39.474 23.8191 39.474 22.3658V2.63421C39.4737 1.17928 38.2924 0 36.8418 0Z" fill="#227FBB"/>
<path fill-rule="evenodd" clip-rule="evenodd" d="M3.56086 8.98405L2.80099 7.13208L2.04539 8.98405H3.56086ZM20.303 8.24655C20.1503 8.33931 19.9697 8.34227 19.7536 8.34227H18.4049V7.31037H19.772C19.9655 7.31037 20.1674 7.31892 20.2984 7.39425C20.4428 7.46168 20.5319 7.60576 20.5319 7.80477C20.5319 8.00806 20.447 8.17122 20.303 8.24655ZM29.9257 8.98405L29.1572 7.13208L28.3931 8.98405H29.9257ZM11.9882 10.9887H10.85L10.8461 7.35017L9.23586 10.9887H8.26086L6.64671 7.34721V10.9887H4.38849L3.96184 9.95247H1.65L1.21908 10.9887H0.0131579L2.00132 6.34293H3.65132L5.5398 10.7416V6.34293H7.3523L8.80526 9.49458L10.1398 6.34293H11.9885L11.9882 10.9887ZM16.525 10.9887H12.8158V6.34293H16.525V7.31004H13.9263V8.14787H16.4625V9.10017H13.9263V10.0278H16.525V10.9887ZM21.7549 7.59392C21.7549 8.33471 21.2605 8.7176 20.9724 8.83241C21.2155 8.92484 21.423 9.08833 21.5217 9.22385C21.6786 9.45477 21.7056 9.66135 21.7056 10.0758V10.9887H20.5855L20.5816 10.4031C20.5816 10.1235 20.6082 9.72122 20.4062 9.49787C20.2441 9.33438 19.9967 9.29885 19.597 9.29885H18.4046V10.9887H17.2944V6.34293H19.8484C20.4158 6.34293 20.8339 6.35773 21.1928 6.5653C21.5441 6.77287 21.7546 7.07583 21.7546 7.59425L21.7549 7.59392ZM23.5319 10.9887H22.3987V6.34293H23.5319V10.9887ZM36.6753 10.9887H35.102L32.9974 7.50181V10.9887H30.7362L30.3039 9.95247H27.9974L27.5783 10.9887H26.2789C25.7395 10.9887 25.0559 10.8692 24.6691 10.4748C24.2786 10.0804 24.0757 9.54622 24.0757 8.70115C24.0757 8.01234 24.197 7.38208 24.6743 6.88471C25.0332 6.51365 25.5954 6.34293 26.3605 6.34293H27.4355V7.33833H26.3829C25.978 7.33833 25.749 7.39852 25.5286 7.61365C25.3395 7.80905 25.2095 8.17912 25.2095 8.66596C25.2095 9.16365 25.3082 9.52254 25.5148 9.75708C25.6859 9.94096 25.9964 9.99655 26.2885 9.99655H26.7872L28.3523 6.34293H30.0158L31.8957 10.7377V6.3426H33.5865L35.5382 9.57846V6.3426H36.6753V10.9887ZM0 11.9018H1.89737L2.325 10.8696H3.28289L3.70954 11.9018H7.44243V11.1123L7.77566 11.9048H9.71316L10.0464 11.1005V11.9015H19.323L19.3188 10.2074H19.498C19.6237 10.2117 19.6605 10.2235 19.6605 10.4311V11.9015H24.4586V11.5067C24.8454 11.7143 25.4474 11.9015 26.2395 11.9015H28.2579L28.6898 10.8692H29.6474L30.0697 11.9015H33.9595V10.9212L34.5484 11.9015H37.6655V5.42155H34.5809V6.18701L34.1487 5.42155H30.9836V6.18701L30.5868 5.42155H26.3112C25.5954 5.42155 24.9661 5.52155 24.4582 5.79984V5.42155H21.5076V5.79984C21.1842 5.513 20.7434 5.42155 20.2536 5.42155H9.47434L8.75099 7.09523L8.00822 5.42155H4.61349V6.18701L4.24013 5.42155H1.34474L0 8.50247V11.9018ZM39.4944 15.3229H37.4707C37.2687 15.3229 37.1345 15.3304 37.0214 15.4067C36.9043 15.4821 36.8592 15.5936 36.8592 15.7413C36.8592 15.9166 36.9579 16.0357 37.102 16.0873C37.2191 16.1281 37.3451 16.14 37.5299 16.14L38.1319 16.1561C38.7388 16.1712 39.1444 16.2755 39.3918 16.5301C39.4365 16.5656 39.4635 16.6054 39.4944 16.6452V15.3229ZM39.4944 18.3867C39.2247 18.7811 38.6993 18.9811 37.9878 18.9811H35.8434V17.9844H37.9789C38.1908 17.9844 38.3391 17.9567 38.4283 17.8692C38.5056 17.7975 38.5599 17.6933 38.5599 17.5666C38.5599 17.4311 38.5056 17.3235 38.424 17.259C38.3434 17.1883 38.2263 17.1561 38.0326 17.1561C36.9901 17.1206 35.6895 17.1883 35.6895 15.7176C35.6895 15.0436 36.1174 14.334 37.2826 14.334H39.4944V13.4097H37.4395C36.8194 13.4097 36.3688 13.5577 36.0497 13.789V13.4094H33.0102C32.5243 13.4094 31.9536 13.5301 31.6839 13.789V13.4094H26.2563V13.789C25.8243 13.4775 25.0954 13.4094 24.7589 13.4094H21.1789V13.789C20.8372 13.4581 20.077 13.4094 19.6141 13.4094H15.6072L14.6905 14.4018L13.8316 13.4094H7.84638V19.8936H13.7191L14.6638 18.8857L15.5536 19.8936L19.1737 19.8969V18.3715H19.5296C20.0099 18.3791 20.5763 18.3597 21.076 18.1436V19.8936H24.0618V18.2035H24.2059C24.3898 18.2035 24.4079 18.211 24.4079 18.3949V19.8936H33.478C34.0536 19.8936 34.6556 19.7459 34.9891 19.4785V19.8936H37.8661C38.4648 19.8936 39.0497 19.8094 39.4944 19.5942V18.3867ZM35.0658 16.5298C35.2819 16.7535 35.398 17.0364 35.398 17.5143C35.398 18.5143 34.773 18.9808 33.6536 18.9808H31.4901V17.984H33.6441C33.8546 17.984 34.0043 17.9564 34.098 17.8689C34.174 17.7972 34.2289 17.6929 34.2289 17.5663C34.2289 17.4308 34.1697 17.3232 34.0934 17.2587C34.0086 17.188 33.8914 17.1558 33.698 17.1558C32.6595 17.1202 31.3592 17.188 31.3592 15.7173C31.3592 15.0433 31.7826 14.3337 32.9467 14.3337H35.1727V15.3229H33.1359C32.9339 15.3229 32.8026 15.3304 32.6911 15.4067C32.5694 15.4821 32.5243 15.5936 32.5243 15.741C32.5243 15.9163 32.6276 16.0357 32.7671 16.0873C32.8842 16.1281 33.0102 16.14 33.1993 16.14L33.797 16.1561C34.3997 16.1709 34.8135 16.2752 35.0651 16.5298H35.0658ZM25.0467 16.2429C24.898 16.3311 24.7145 16.3383 24.4984 16.3383H23.1497V15.2949H24.5168C24.7141 15.2949 24.9122 15.2989 25.0464 15.3788C25.1905 15.4541 25.2766 15.5979 25.2766 15.7965C25.2766 15.9956 25.1908 16.1558 25.0467 16.2429ZM25.7171 16.8212C25.9645 16.9123 26.1664 17.0758 26.2612 17.2114C26.4178 17.4383 26.4405 17.6498 26.4451 18.0594V18.9804H25.3303V18.3992C25.3303 18.1196 25.3572 17.7058 25.151 17.4896C24.9885 17.3232 24.7414 17.2834 24.3362 17.2834H23.1497V18.9808H22.0339V14.3337H24.5974C25.1595 14.3337 25.5691 14.3584 25.9332 14.5528C26.2839 14.7646 26.5043 15.0548 26.5043 15.5847C26.5043 16.3265 26.0095 16.7051 25.7171 16.8212ZM27.1197 14.3337H30.8257V15.2946H28.2257V16.1396H30.7622V17.0877H28.2257V18.012L30.8257 18.0163V18.9808H27.1194L27.1197 14.3337ZM19.6286 16.4785H18.1934V15.2949H19.6414C20.0421 15.2949 20.3204 15.4581 20.3204 15.8646C20.3204 16.2666 20.0553 16.4785 19.6286 16.4785ZM17.0878 18.5581L15.3829 16.6653L17.0878 14.8324V18.5581ZM12.6852 18.012H9.95526V17.0877H12.3928V16.1396H9.95526V15.2946H12.7391L13.9536 16.6489L12.6852 18.012ZM21.5125 15.8646C21.5125 17.1554 20.5497 17.4219 19.5789 17.4219H18.1934V18.9808H16.0355L14.6681 17.4423L13.247 18.9808H8.84868V14.3337H13.3148L14.6809 15.8567L16.0931 14.3337H19.6414C20.5224 14.3337 21.5125 14.5775 21.5125 15.8646Z" fill="white"/>
</svg>
