<svg width="51" height="14" viewBox="0 0 51 14" fill="none" xmlns="http://www.w3.org/2000/svg">
<path d="M9.77155 13.2148C13.3843 13.2322 16.6798 10.269 16.6798 6.66499C16.6798 2.72422 13.3821 -0.00217112 9.77155 1.29732e-06H6.66281C3.0088 -0.00217112 0 2.72422 0 6.66499C0 10.2712 3.0088 13.2322 6.66281 13.2148H9.77155Z" fill="#0079BE"/>
<path d="M6.6774 0.544996C3.33839 0.544996 0.631552 3.254 0.629379 6.59519C0.629379 9.93637 3.33622 12.6432 6.6774 12.6432C10.0186 12.6432 12.7254 9.9342 12.7254 6.59519C12.7254 3.254 10.0186 0.547169 6.6774 0.544996ZM2.84525 6.59519C2.84742 4.96153 3.86846 3.56901 5.3066 3.01721V10.1732C3.86846 9.62137 2.84742 8.22885 2.84525 6.59519ZM8.05037 10.1753V3.01721C9.48851 3.56901 10.5095 4.96153 10.5117 6.59519C10.5095 8.22885 9.48851 9.62137 8.05037 10.1753Z" fill="white"/>
<path d="M18.8021 2.84377C18.8021 2.21811 18.4762 2.25939 18.1634 2.25287V2.07256C18.4349 2.08559 18.713 2.08559 18.9824 2.08559C19.2735 2.08559 19.671 2.07256 20.1859 2.07256C21.9847 2.07256 22.9644 3.27391 22.9644 4.50567C22.9644 5.19433 22.5625 6.92358 20.1012 6.92358C19.7471 6.92358 19.419 6.91054 19.0932 6.91054C18.7804 6.91054 18.474 6.91706 18.1612 6.92358V6.74326C18.5783 6.70199 18.7804 6.68678 18.7999 6.21537L18.8021 2.84377ZM19.482 6.1024C19.482 6.63682 19.8644 6.69982 20.2055 6.69982C21.7066 6.69982 22.1997 5.56581 22.1997 4.53174C22.1997 3.23263 21.3655 2.29415 20.0251 2.29415C19.7406 2.29415 19.608 2.3137 19.482 2.32239V6.1024ZM23.2077 6.74326H23.3403C23.5336 6.74326 23.6748 6.74326 23.6748 6.51299V4.6295C23.6748 4.32319 23.5705 4.28191 23.3142 4.14288V4.03208C23.6401 3.93433 24.0311 3.80398 24.0572 3.78226C24.1071 3.75401 24.1484 3.7475 24.1832 3.7475C24.2179 3.7475 24.231 3.78877 24.231 3.84526V6.51299C24.231 6.74326 24.383 6.74326 24.5785 6.74326H24.6959V6.92358C24.4591 6.92358 24.2157 6.91054 23.9659 6.91054C23.7161 6.91054 23.4663 6.91706 23.2077 6.92358V6.74326ZM23.9507 2.67649C23.7704 2.67649 23.6096 2.50922 23.6096 2.32891C23.6096 2.15511 23.7769 1.99435 23.9507 1.99435C24.131 1.99435 24.2918 2.13991 24.2918 2.32891C24.2918 2.51791 24.1397 2.67649 23.9507 2.67649ZM25.3563 4.67078C25.3563 4.41443 25.2802 4.34491 24.9544 4.21239V4.07988C25.252 3.98212 25.5366 3.89305 25.8711 3.74532C25.8929 3.74532 25.9124 3.76053 25.9124 3.81484V4.26671C26.31 3.98212 26.6489 3.74532 27.1159 3.74532C27.7068 3.74532 27.9154 4.17546 27.9154 4.71857V6.51082C27.9154 6.74109 28.0675 6.74109 28.263 6.74109H28.389V6.9214C28.1457 6.9214 27.9023 6.90837 27.6525 6.90837C27.4027 6.90837 27.1507 6.91489 26.9009 6.9214V6.74109H27.0247C27.2202 6.74109 27.3571 6.74109 27.3571 6.51082V4.71422C27.3571 4.31667 27.1159 4.12333 26.7184 4.12333C26.4968 4.12333 26.1427 4.30364 25.9124 4.45788V6.51516C25.9124 6.74544 26.0666 6.74544 26.26 6.74544H26.3838V6.92575C26.1405 6.92575 25.8972 6.91271 25.6474 6.91271C25.3975 6.91271 25.1477 6.91923 24.8979 6.92575V6.74544H25.0239C25.2194 6.74544 25.3563 6.74544 25.3563 6.51516V4.67078ZM28.9147 5.00533C28.8995 5.06833 28.8995 5.1726 28.9147 5.4094C28.956 6.06981 29.3796 6.61075 29.9357 6.61075C30.3181 6.61075 30.6179 6.40219 30.8742 6.14585L30.972 6.24361C30.6526 6.66723 30.2551 7.02785 29.6859 7.02785C28.5801 7.02785 28.3586 5.95685 28.3586 5.51367C28.3586 4.15157 29.2753 3.7475 29.7619 3.7475C30.3246 3.7475 30.9307 4.1016 30.9372 4.83805C30.9372 4.87933 30.9372 4.9206 30.9307 4.96405L30.8677 5.00533H28.9147ZM30.1443 4.78157C30.3181 4.78157 30.3376 4.69033 30.3376 4.60778C30.3376 4.25367 30.1226 3.96908 29.7337 3.96908C29.3101 3.96908 29.019 4.28191 28.9342 4.78157H30.1443ZM31.0958 6.74326H31.2826C31.476 6.74326 31.615 6.74326 31.615 6.51299V4.55998C31.615 4.34491 31.3587 4.30364 31.2544 4.24715V4.14288C31.7627 3.92781 32.0408 3.74532 32.1038 3.74532C32.1451 3.74532 32.1646 3.76705 32.1646 3.83657V4.46222H32.1798C32.3536 4.19067 32.6447 3.74532 33.0684 3.74532C33.2422 3.74532 33.4637 3.86263 33.4637 4.11464C33.4637 4.30146 33.3312 4.46874 33.1379 4.46874C32.9206 4.46874 32.9206 4.30146 32.6795 4.30146C32.5622 4.30146 32.1733 4.46222 32.1733 4.87933V6.51299C32.1733 6.74326 32.3124 6.74326 32.5079 6.74326H32.8967V6.92358C32.5144 6.91706 32.2233 6.91054 31.9235 6.91054C31.6389 6.91054 31.3456 6.91706 31.0958 6.92358V6.74326ZM33.7722 5.95685C33.8635 6.41523 34.1394 6.80409 34.6477 6.80409C35.0561 6.80409 35.2104 6.55426 35.2104 6.31095C35.2104 5.48978 33.6962 5.75481 33.6962 4.63602C33.6962 4.24715 34.009 3.74532 34.7737 3.74532C34.9953 3.74532 35.2951 3.80832 35.5645 3.94736L35.6144 4.65557H35.4537C35.3842 4.21891 35.1409 3.96691 34.6955 3.96691C34.4174 3.96691 34.1546 4.12767 34.1546 4.42529C34.1546 5.23995 35.7665 4.98795 35.7665 6.0785C35.7665 6.53688 35.3972 7.02351 34.5717 7.02351C34.2936 7.02351 33.9677 6.92575 33.7244 6.78671L33.6484 5.98726L33.7722 5.95685ZM42.0405 3.33039H41.8667C41.7341 2.51791 41.1585 2.18987 40.3807 2.18987C39.5813 2.18987 38.4212 2.72429 38.4212 4.39271C38.4212 5.79826 39.4227 6.80409 40.4915 6.80409C41.1802 6.80409 41.7494 6.3305 41.8884 5.60057L42.047 5.64185L41.8884 6.65637C41.5973 6.83668 40.8109 7.02568 40.3525 7.02568C38.7275 7.02568 37.6978 5.9764 37.6978 4.41226C37.6978 2.98715 38.9687 1.96611 40.3308 1.96611C40.8934 1.96611 41.4365 2.1486 41.9709 2.33542L42.0405 3.33039ZM42.2903 6.74326H42.4228C42.6183 6.74326 42.7574 6.74326 42.7574 6.51299V2.64173C42.7574 2.18987 42.6531 2.17684 42.388 2.09863V1.98784C42.6661 1.89659 42.9572 1.77277 43.1049 1.68804C43.181 1.64677 43.2375 1.61201 43.257 1.61201C43.3005 1.61201 43.3135 1.65328 43.3135 1.70977V6.51299C43.3135 6.74326 43.4656 6.74326 43.6611 6.74326H43.7784V6.92358C43.5438 6.92358 43.3005 6.91054 43.0485 6.91054C42.7986 6.91054 42.5488 6.91706 42.2903 6.92358V6.74326ZM46.7524 6.54123C46.7524 6.66723 46.8285 6.67375 46.9458 6.67375C47.0283 6.67375 47.1326 6.66723 47.2239 6.66723V6.81278C46.9241 6.84102 46.3549 6.98658 46.2224 7.02785L46.1876 7.00613V6.44347C45.7705 6.78454 45.4512 7.02785 44.958 7.02785C44.5822 7.02785 44.1933 6.78454 44.1933 6.20233V4.42312C44.1933 4.24281 44.1651 4.06902 43.7762 4.03426V3.90174C44.0261 3.89522 44.5822 3.85395 44.6713 3.85395C44.7473 3.85395 44.7473 3.90174 44.7473 4.05598V5.84823C44.7473 6.05678 44.7473 6.6542 45.3512 6.6542C45.588 6.6542 45.9009 6.47388 46.192 6.23057V4.36012C46.192 4.22108 45.8596 4.14505 45.6097 4.07553V3.94953C46.2354 3.90826 46.6243 3.85177 46.6938 3.85177C46.7503 3.85177 46.7503 3.89957 46.7503 3.97777L46.7524 6.54123ZM48.1363 4.24715C48.4143 4.01036 48.7902 3.7475 49.1725 3.7475C49.9785 3.7475 50.4651 4.44919 50.4651 5.20736C50.4651 6.11761 49.7982 7.02785 48.8032 7.02785C48.2883 7.02785 48.019 6.86058 47.8365 6.78454L47.6279 6.94313L47.4824 6.86709C47.5432 6.45651 47.5801 6.05461 47.5801 5.63099V2.64173C47.5801 2.18987 47.4759 2.17684 47.2108 2.09863V1.98784C47.4889 1.89659 47.78 1.77277 47.9277 1.68804C48.0038 1.64677 48.0602 1.61201 48.082 1.61201C48.1232 1.61201 48.1363 1.65328 48.1363 1.70977V4.24715ZM48.1363 6.13716C48.1363 6.40219 48.3861 6.84754 48.851 6.84754C49.594 6.84754 49.9068 6.11761 49.9068 5.49847C49.9068 4.74898 49.3376 4.12333 48.7945 4.12333C48.536 4.12333 48.3209 4.2906 48.1341 4.45136L48.1363 6.13716ZM18.1547 10.9643H18.209C18.3459 10.9643 18.4892 10.9469 18.4892 10.7492V8.76796C18.4892 8.57027 18.3459 8.55289 18.209 8.55289H18.1547V8.43993C18.3024 8.43993 18.5284 8.45513 18.7152 8.45513C18.9042 8.45513 19.1301 8.43993 19.3082 8.43993V8.55289H19.2539C19.1192 8.55289 18.9737 8.57244 18.9737 8.76796V10.7492C18.9737 10.9469 19.1171 10.9643 19.2539 10.9643H19.3082V11.0794C19.1258 11.0794 18.8998 11.0642 18.7108 11.0642C18.5262 11.0642 18.3024 11.0794 18.1547 11.0794V10.9643Z" fill="#211E1F"/>
<path d="M19.3076 11.095C19.1251 11.095 18.8992 11.0798 18.7102 11.0798C18.5255 11.0798 18.3039 11.095 18.154 11.095H18.1388V10.9495H18.2083C18.3452 10.9473 18.4712 10.9343 18.4712 10.7496V8.76838C18.469 8.58373 18.3452 8.57069 18.2083 8.56852H18.1388V8.42297H18.154C18.3017 8.42297 18.5298 8.43817 18.7145 8.43817C18.9035 8.43817 19.1294 8.42297 19.3076 8.42297H19.325V8.56852H19.2554C19.1186 8.57069 18.9926 8.58373 18.9926 8.76838V10.7496C18.9926 10.9343 19.1186 10.9451 19.2554 10.9495H19.325V11.095H19.3076ZM19.2924 11.0625V10.9821H19.2554C19.1207 10.9821 18.96 10.9582 18.9578 10.7496V8.76838C18.9578 8.55983 19.1186 8.53593 19.2554 8.53593H19.2924V8.45555C19.1186 8.45555 18.8992 8.47076 18.7145 8.47076C18.5342 8.47076 18.3169 8.45773 18.1714 8.45555V8.53593H18.2083C18.343 8.53593 18.5038 8.55983 18.5038 8.76838V10.7496C18.5038 10.9582 18.343 10.9821 18.2083 10.9821H18.1714V11.0625C18.3169 11.0603 18.532 11.0473 18.7102 11.0473C18.8948 11.0473 19.1142 11.0625 19.2924 11.0625ZM21.9058 10.3325L21.9123 10.326V8.90742C21.9123 8.59676 21.6972 8.55114 21.5843 8.55114H21.5017V8.43817C21.6799 8.43817 21.8536 8.45338 22.0318 8.45338C22.186 8.45338 22.3424 8.43817 22.4967 8.43817V8.55114H22.4402C22.2816 8.55114 22.1035 8.58156 22.1035 9.03125V10.754C22.1035 10.8865 22.1078 11.019 22.1252 11.1363H21.9818L20.0353 8.96607V10.5237C20.0353 10.8517 20.0983 10.9669 20.3916 10.9669H20.4546V11.082C20.2917 11.082 20.1309 11.0668 19.968 11.0668C19.7985 11.0668 19.6247 11.082 19.4531 11.082V10.9669H19.5053C19.766 10.9669 19.8463 10.7887 19.8463 10.4868V8.89438C19.8463 8.68366 19.6725 8.55549 19.5031 8.55549H19.4531V8.44252C19.5965 8.44252 19.7442 8.45773 19.8876 8.45773C20.0006 8.45773 20.1114 8.44252 20.2243 8.44252L21.9058 10.3325Z" fill="#211E1F"/>
<path d="M22.1251 11.1506L21.9687 11.1441L20.0505 9.00423V10.5206C20.0548 10.8486 20.1048 10.942 20.3893 10.9464H20.4697V11.0919H20.4524C20.2894 11.0919 20.1265 11.0767 19.9636 11.0767C19.7941 11.0767 19.6203 11.0919 19.4487 11.0919H19.4313V10.9485H19.5008C19.7507 10.9464 19.8223 10.7878 19.8245 10.4858V8.89343C19.8245 8.6914 19.6594 8.56974 19.4965 8.56974H19.4313V8.42419H19.4487C19.5942 8.42419 19.742 8.4394 19.8832 8.4394C19.9961 8.4394 20.1048 8.42419 20.2329 8.43071L21.8948 10.3012V8.91081C21.8927 8.60885 21.6928 8.57409 21.582 8.57191H21.4821V8.42636H21.4995C21.6776 8.42636 21.8514 8.44157 22.0295 8.44157C22.1838 8.44157 22.338 8.42636 22.4944 8.42636H22.5118V8.57191H22.4379C22.2815 8.57626 22.1208 8.58929 22.1164 9.03681V10.753C22.1164 10.8855 22.1208 11.0181 22.1381 11.131L22.1425 11.1506H22.1251ZM21.9796 11.118H22.1056C22.0882 11.005 22.086 10.879 22.086 10.753V9.03247C22.086 8.57843 22.2772 8.53498 22.4379 8.53498H22.477V8.4546C22.3271 8.4546 22.1794 8.46981 22.0274 8.46981C21.8536 8.46981 21.6863 8.45678 21.5147 8.4546V8.53498H21.582C21.6971 8.53498 21.9274 8.58712 21.9274 8.90864L21.9231 10.3381L21.9144 10.3468L21.9014 10.3576L20.2199 8.45678C20.1069 8.45678 19.9983 8.47198 19.8832 8.47198C19.7441 8.47198 19.6029 8.45895 19.4661 8.45678V8.53716H19.4987C19.6768 8.53716 19.8593 8.67185 19.8593 8.89343V10.4858C19.8593 10.7878 19.7746 10.9811 19.503 10.9833H19.4661V11.0659C19.629 11.0637 19.7985 11.0506 19.9636 11.0506C20.1221 11.0506 20.2786 11.0637 20.435 11.0659V10.9855H20.3872C20.0896 10.9855 20.0157 10.8551 20.0157 10.5271V8.92602L21.9796 11.118ZM23.0614 8.62623C22.7768 8.62623 22.766 8.69357 22.7095 8.96947H22.5965C22.6117 8.86302 22.6313 8.75874 22.6421 8.64795C22.6574 8.5415 22.6639 8.43722 22.6639 8.32643H22.7551C22.7855 8.4394 22.8789 8.43505 22.9832 8.43505H24.9341C25.0362 8.43505 25.1317 8.43071 25.1383 8.31774L25.2295 8.33295C25.2143 8.43505 25.1991 8.53716 25.1882 8.63926C25.1817 8.74136 25.1817 8.84347 25.1817 8.94557L25.0687 8.98685C25.0601 8.84781 25.0427 8.62405 24.7885 8.62405H24.1694V10.6357C24.1694 10.9268 24.3019 10.9616 24.4822 10.9616H24.5539V11.0767C24.4062 11.0767 24.1411 11.0615 23.9369 11.0615C23.711 11.0615 23.4459 11.0767 23.2982 11.0767V10.9616H23.3699C23.5785 10.9616 23.6827 10.942 23.6827 10.6444V8.62405L23.0614 8.62623Z" fill="#211E1F"/>
<path d="M24.5508 11.0946C24.4009 11.0946 24.138 11.0794 23.9338 11.0794C23.7079 11.0794 23.4428 11.0946 23.2951 11.0946H23.2799V10.949H23.3668C23.5753 10.9447 23.6601 10.9404 23.6644 10.6493V8.64628H23.0605V8.61369H23.697V10.6514C23.697 10.9556 23.5753 10.986 23.3668 10.986H23.3103V11.0664C23.4602 11.0664 23.7144 11.0512 23.9338 11.0512C24.1315 11.0512 24.3835 11.0642 24.5334 11.0664V10.986H24.4791C24.2966 10.986 24.1489 10.9404 24.1489 10.6427V8.61369H24.7854C25.0395 8.61369 25.0721 8.83094 25.0808 8.96997L25.1634 8.93956C25.1634 8.8418 25.1634 8.74187 25.1699 8.64193C25.1808 8.54418 25.1938 8.44859 25.209 8.35083L25.1503 8.34214C25.133 8.45293 25.0265 8.45728 24.9309 8.45728H22.9627C22.8736 8.45728 22.7759 8.45293 22.7433 8.34649H22.6803C22.6803 8.44859 22.6716 8.55069 22.6586 8.6528C22.6477 8.75707 22.6303 8.857 22.6151 8.95694H22.6955C22.7455 8.69407 22.7781 8.60718 23.0605 8.61152V8.64411C22.7802 8.64845 22.7867 8.69625 22.7259 8.97649L22.7237 8.98952H22.5782L22.5804 8.96997C22.5956 8.86352 22.6151 8.75925 22.626 8.64845C22.6412 8.54418 22.6499 8.43773 22.6499 8.32911V8.31173H22.7694L22.7715 8.32259C22.7976 8.41818 22.8671 8.41818 22.9627 8.42035H24.9331C25.0395 8.41818 25.1156 8.41818 25.1221 8.31824L25.1243 8.30087L25.1417 8.30521L25.2481 8.32259L25.2459 8.33997C25.2307 8.44207 25.2155 8.54418 25.2046 8.64411C25.1981 8.74404 25.1981 8.84614 25.1981 8.94825V8.95911L25.1873 8.96345L25.0526 9.01125V8.98952C25.0417 8.84831 25.0287 8.64193 24.7897 8.64193H24.1858V10.6384C24.1901 10.923 24.3031 10.9425 24.4834 10.9469H24.5725V11.0924L24.5508 11.0946ZM25.348 10.9643H25.4023C25.5392 10.9643 25.6826 10.9469 25.6826 10.7492V8.76794C25.6826 8.57025 25.5392 8.55287 25.4023 8.55287H25.348V8.4399C25.5783 8.4399 25.9715 8.45511 26.2887 8.45511C26.608 8.45511 26.9991 8.4399 27.2576 8.4399C27.2511 8.60283 27.2554 8.85266 27.2663 9.01776L27.1511 9.04818C27.1338 8.80269 27.0881 8.60718 26.6906 8.60718H26.1649V9.5978H26.6145C26.8405 9.5978 26.8904 9.46963 26.9122 9.26542H27.0251C27.0186 9.41314 27.0143 9.56087 27.0143 9.70859C27.0143 9.85197 27.0186 9.99535 27.0251 10.1387L26.9122 10.1605C26.8904 9.93453 26.8774 9.7868 26.6167 9.7868H26.1627V10.6666C26.1627 10.9121 26.3821 10.9121 26.6232 10.9121C27.0773 10.9121 27.2771 10.8817 27.3901 10.4516L27.4966 10.4776C27.4466 10.6775 27.401 10.8795 27.3684 11.0794C27.1251 11.0794 26.6906 11.0642 26.3517 11.0642C26.0106 11.0642 25.5609 11.0794 25.3459 11.0794V10.9643H25.348Z" fill="#211E1F"/>
<path d="M27.3717 11.095C27.1284 11.095 26.6939 11.0798 26.355 11.0798C26.0139 11.0798 25.5642 11.095 25.3492 11.095H25.3339V10.9495H25.4035C25.5403 10.9473 25.6642 10.9343 25.6663 10.7496V8.76838C25.6642 8.58373 25.5403 8.57069 25.4035 8.56852H25.3339V8.42297H25.3492C25.5794 8.42297 25.9726 8.43817 26.2898 8.43817C26.607 8.43817 27.0002 8.42297 27.2587 8.42297H27.2761V8.44035C27.2739 8.49683 27.2717 8.56418 27.2717 8.63587C27.2717 8.76621 27.2761 8.90959 27.2826 9.01821V9.03125L27.2696 9.03559L27.1371 9.07035V9.0508C27.1153 8.80531 27.0827 8.62718 26.6917 8.62283H26.1812V9.58087H26.6157C26.8329 9.5787 26.872 9.4679 26.8981 9.26369L26.9003 9.24849H27.0458V9.26587C27.0393 9.41359 27.0328 9.56132 27.0328 9.70904C27.0328 9.85242 27.0371 9.9958 27.0458 10.1392V10.1522L27.0328 10.1544L26.9024 10.1805L26.9003 10.1631C26.8742 9.9328 26.872 9.8068 26.6222 9.80246H26.1855V10.6671C26.1855 10.8974 26.3832 10.8952 26.6309 10.8974C27.0871 10.8952 27.2696 10.8735 27.3825 10.4477L27.3869 10.4325L27.4021 10.4346L27.5237 10.465L27.5194 10.4803C27.4716 10.6801 27.426 10.88 27.3912 11.0798L27.3891 11.0929L27.3717 11.095ZM27.3586 11.0625C27.3912 10.8713 27.4347 10.6801 27.4803 10.4889L27.4064 10.4694C27.2935 10.893 27.0741 10.9299 26.6287 10.9278C26.3897 10.9278 26.1529 10.9278 26.1508 10.6649V9.7677H26.62C26.8851 9.76552 26.9111 9.92411 26.9307 10.1392L27.0132 10.1218C27.0067 9.98277 27.0024 9.84373 27.0024 9.7047C27.0024 9.56132 27.0067 9.42011 27.0132 9.2789H26.9307C26.909 9.47659 26.8481 9.61345 26.6178 9.61128H26.1508V8.58807H26.6939C27.0871 8.5859 27.1523 8.78793 27.1696 9.0269L27.2522 9.00518C27.2457 8.89873 27.2413 8.76187 27.2413 8.63587C27.2413 8.57069 27.2435 8.50987 27.2457 8.45555C26.9893 8.45555 26.6048 8.47076 26.2942 8.47076C25.9835 8.47076 25.6012 8.45773 25.3687 8.45555V8.53593H25.4056C25.5403 8.53593 25.7011 8.55983 25.7011 8.76838V10.7496C25.7011 10.9582 25.5403 10.9821 25.4056 10.9821H25.3687V11.0625C25.5903 11.0625 26.027 11.0473 26.3593 11.0473C26.6895 11.0473 27.1153 11.0625 27.3586 11.0625ZM28.0104 8.84007C28.0104 8.56418 27.8583 8.55331 27.741 8.55331H27.6736V8.44035C27.7953 8.44035 28.0299 8.45555 28.2602 8.45555C28.4861 8.45555 28.6686 8.44035 28.8685 8.44035C29.3442 8.44035 29.7679 8.56852 29.7679 9.10728C29.7679 9.44618 29.5419 9.65473 29.2421 9.77204L29.8895 10.7388C29.996 10.8995 30.0698 10.943 30.2567 10.9647V11.0798C30.1328 11.0798 30.0112 11.0646 29.8852 11.0646C29.7679 11.0646 29.6462 11.0798 29.5289 11.0798C29.2378 10.6975 28.988 10.2891 28.7425 9.85459H28.4926V10.6649C28.4926 10.956 28.6273 10.9669 28.8011 10.9669H28.8685V11.082C28.6534 11.082 28.434 11.0668 28.2189 11.0668C28.0364 11.0668 27.8605 11.082 27.6715 11.082V10.9669H27.7388C27.88 10.9669 28.0082 10.9039 28.0082 10.7627L28.0104 8.84007ZM28.4948 9.71773H28.6795C29.0575 9.71773 29.2617 9.57435 29.2617 9.12683C29.2617 8.79011 29.0466 8.57504 28.7099 8.57504C28.5969 8.57504 28.5491 8.5859 28.4948 8.59024V9.71773Z" fill="#211E1F"/>
<path d="M30.2571 11.0949C30.1311 11.0949 30.0094 11.0797 29.8856 11.0797C29.7705 11.0797 29.6488 11.0949 29.5185 11.0883C29.2274 10.7082 28.9797 10.3019 28.7364 9.86961H28.5126V10.6625C28.517 10.9471 28.6299 10.945 28.8059 10.9493H28.8906V11.0949H28.8733C28.6582 11.0949 28.4388 11.0797 28.2237 11.0797C28.0434 11.0797 27.8652 11.0949 27.6762 11.0949H27.6589V10.9493H27.7436C27.8805 10.9493 27.9956 10.8885 27.9956 10.7625V8.84206C27.9934 8.57268 27.8609 8.57485 27.7436 8.57051H27.6589V8.42495H27.6762C27.7979 8.42495 28.0325 8.44016 28.2628 8.44016C28.4887 8.44016 28.6712 8.42495 28.8711 8.42495C29.3468 8.42495 29.7857 8.55747 29.7878 9.10709C29.7878 9.44816 29.5619 9.66106 29.2708 9.78054L29.9052 10.7321C30.0116 10.8885 30.0768 10.9276 30.2614 10.9515L30.2745 10.9537V11.097L30.2571 11.0949ZM28.4952 9.83703H28.7538L28.7581 9.84572C29.0036 10.2802 29.2534 10.6886 29.5315 11.0623C29.6466 11.0623 29.7683 11.0471 29.8856 11.0471C30.0073 11.0471 30.1224 11.0601 30.2397 11.0623V10.9797C30.0616 10.958 29.979 10.9037 29.8747 10.7473L29.2165 9.76316L29.236 9.75448C29.5315 9.63716 29.7509 9.43513 29.7509 9.10275C29.7509 8.57702 29.3425 8.45537 28.8667 8.45537C28.6669 8.45537 28.4866 8.47057 28.2585 8.47057C28.0369 8.47057 27.8131 8.45754 27.6893 8.45537V8.53575H27.7414C27.8587 8.53575 28.026 8.5553 28.026 8.83989V10.7603C28.026 10.9124 27.8826 10.9819 27.7414 10.9819H27.6893V11.0623C27.8718 11.0623 28.0434 11.0471 28.2215 11.0471C28.4322 11.0471 28.6473 11.0623 28.8559 11.0623V10.9819H28.8037C28.6321 10.9819 28.4779 10.9602 28.4779 10.6625V9.83703H28.4952ZM28.4952 9.73275H28.4779V8.57485L28.4931 8.57268C28.5452 8.56833 28.5952 8.55747 28.7103 8.55747C29.0557 8.55747 29.2795 8.78123 29.2795 9.12665C29.2795 9.57851 29.0623 9.73058 28.6799 9.73275H28.4952ZM28.6799 9.70016C29.0536 9.69799 29.2426 9.56765 29.2469 9.12665C29.2447 8.79644 29.0405 8.59223 28.7103 8.59006C28.6082 8.59006 28.5604 8.59875 28.5126 8.60309V9.69799H28.6799V9.70016ZM32.8249 10.3323L32.8314 10.3258V8.90723C32.8314 8.59657 32.6163 8.55095 32.5034 8.55095H32.4208V8.43799C32.599 8.43799 32.7727 8.4532 32.9509 8.4532C33.1051 8.4532 33.2615 8.43799 33.4158 8.43799V8.55095H33.3593C33.2007 8.55095 33.0226 8.58137 33.0226 9.03106V10.7538C33.0226 10.8863 33.0269 11.0188 33.0443 11.1361H32.9009L30.9544 8.96589V10.5235C30.9544 10.8515 31.0196 10.9667 31.3107 10.9667H31.3759V11.0818C31.2129 11.0818 31.05 11.0666 30.8893 11.0666C30.7176 11.0666 30.5438 11.0818 30.3744 11.0818V10.9667H30.4265C30.6872 10.9667 30.7676 10.7885 30.7676 10.4866V8.8942C30.7676 8.68347 30.5938 8.5553 30.4244 8.5553H30.3744V8.44233C30.5178 8.44233 30.6655 8.45754 30.8089 8.45754C30.9218 8.45754 31.0326 8.44233 31.1456 8.44233L32.8249 10.3323Z" fill="#211E1F"/>
<path d="M33.0447 11.1513L32.8883 11.147L30.97 9.00713V10.5235C30.9744 10.8515 31.0244 10.9449 31.3089 10.9493H31.3893V11.0948H31.3719C31.209 11.0948 31.0461 11.0796 30.8831 11.0796C30.7137 11.0796 30.5399 11.0948 30.3705 11.0948H30.3531V10.9493H30.4226C30.6724 10.9493 30.7441 10.7885 30.7463 10.4844V8.89199C30.7463 8.68996 30.5812 8.5683 30.4204 8.5683H30.3531V8.42275H30.3705C30.5138 8.42275 30.6616 8.43796 30.8049 8.43796C30.9157 8.43796 31.0265 8.42275 31.1525 8.42927L32.8144 10.3019V8.91155C32.8144 8.61175 32.6124 8.57482 32.5016 8.57265H32.4017V8.4271H32.419C32.5972 8.4271 32.771 8.4423 32.9491 8.4423C33.1034 8.4423 33.2576 8.4271 33.414 8.4271H33.4314V8.57265H33.3597C33.2033 8.57699 33.0425 8.59003 33.0382 9.03755V10.7538C33.0382 10.8863 33.0425 11.0166 33.0599 11.1339L33.0621 11.1513H33.0447ZM32.9013 11.1187H33.0252C33.0078 11.0058 33.0056 10.8798 33.0056 10.7538V9.0332C33.0056 8.57917 33.1968 8.53789 33.3597 8.53572H33.3988V8.45534C33.2511 8.45534 33.1012 8.47054 32.9513 8.47054C32.7775 8.47054 32.608 8.45751 32.4386 8.45534V8.53572H32.5059C32.6233 8.53789 32.8514 8.58786 32.8514 8.9072L32.847 10.3367L32.8405 10.3453L32.8296 10.3584L31.146 8.45751C31.033 8.45751 30.9244 8.47272 30.8093 8.47272C30.6702 8.47272 30.5269 8.45968 30.39 8.45751V8.53789H30.4226C30.6007 8.54006 30.7832 8.67258 30.7832 8.89417V10.4866C30.7832 10.7907 30.6985 10.984 30.4269 10.984H30.39V11.0644C30.5529 11.0644 30.7224 11.0492 30.8875 11.0492C31.0461 11.0492 31.2025 11.0622 31.3589 11.0644V10.984H31.3111C31.0135 10.984 30.9396 10.8537 30.9375 10.5235V8.92241L32.9013 11.1187ZM34.0223 10.5387C33.9832 10.6669 33.9376 10.7668 33.9376 10.8341C33.9376 10.9471 34.0962 10.9667 34.22 10.9667H34.2613V11.0818C34.1092 11.0731 33.9549 11.0666 33.8029 11.0666C33.666 11.0666 33.5313 11.0731 33.3945 11.0818V10.9667H33.4162C33.5639 10.9667 33.6877 10.8798 33.7442 10.7212L34.3503 8.98541C34.3981 8.84637 34.4676 8.65737 34.4915 8.51617C34.611 8.47489 34.7631 8.39885 34.8348 8.35323C34.8456 8.34889 34.8522 8.34454 34.8652 8.34454C34.8761 8.34454 34.8847 8.34454 34.8913 8.35541C34.9021 8.38582 34.913 8.42058 34.926 8.44882L35.6212 10.4279C35.6668 10.5604 35.7124 10.6994 35.7602 10.8146C35.8058 10.921 35.8862 10.9645 36.0101 10.9645H36.0318V11.0796C35.8623 11.0709 35.6907 11.0644 35.5104 11.0644C35.3257 11.0644 35.1346 11.0709 34.9434 11.0796V10.9645H34.9847C35.0716 10.9645 35.2193 10.9493 35.2193 10.8559C35.2193 10.8059 35.1845 10.7038 35.1433 10.5843L34.9955 10.1455H34.1374L34.0223 10.5387ZM34.5741 8.86158H34.5654L34.2135 9.93258H34.9195L34.5741 8.86158Z" fill="#211E1F"/>
<path d="M36.0375 11.0941C35.8681 11.0854 35.6964 11.0789 35.5161 11.0789C35.3315 11.0789 35.1425 11.0876 34.9491 11.0941H34.9317V10.9464H34.9904C35.0773 10.9464 35.2076 10.9268 35.2076 10.853C35.2076 10.8095 35.1751 10.7052 35.1338 10.5857L34.9904 10.1578H34.1562L34.0389 10.5401C33.9998 10.6683 33.9563 10.7682 33.9563 10.8312C33.9585 10.9225 34.0997 10.9464 34.2235 10.9464H34.2822V11.0941H34.2648C34.1127 11.0854 33.9585 11.0789 33.8086 11.0789C33.6739 11.0789 33.5371 11.0876 33.4002 11.0941H33.3828V10.9464H33.4219C33.5631 10.9464 33.6804 10.866 33.7347 10.7117L34.3408 8.97599C34.3908 8.83478 34.4582 8.64795 34.4907 8.49588C34.6102 8.45678 34.7601 8.38074 34.834 8.33295C34.8449 8.3286 34.8557 8.32426 34.8709 8.32426C34.8796 8.32426 34.9013 8.32643 34.9122 8.34598C34.9231 8.3764 34.9339 8.41116 34.947 8.44157L35.6443 10.4185C35.6899 10.551 35.7334 10.69 35.7833 10.803C35.8268 10.9029 35.8963 10.9442 36.018 10.9442H36.0571V11.0919L36.0375 11.0941ZM34.9643 11.0593C35.1512 11.0528 35.3358 11.0463 35.5161 11.0463C35.6921 11.0463 35.8572 11.0528 36.0201 11.0593V10.9811H36.0158C35.8854 10.9811 35.7964 10.9312 35.7508 10.8204C35.7008 10.7052 35.6552 10.5662 35.6117 10.4337L34.9165 8.45678C34.9057 8.42636 34.8948 8.3916 34.884 8.36553C34.8818 8.36119 34.8818 8.36119 34.8774 8.36119H34.8709C34.8622 8.36119 34.8579 8.36336 34.8492 8.36553C34.7753 8.41333 34.6254 8.48719 34.5125 8.5176C34.4886 8.66098 34.4212 8.84998 34.3713 8.98902L33.7652 10.7248C33.7065 10.8899 33.574 10.9833 33.4219 10.9833H33.4154V11.0615C33.5457 11.055 33.6761 11.0485 33.8064 11.0485C33.952 11.0485 34.1019 11.055 34.2453 11.0615V10.9833H34.2214C34.0975 10.9811 33.9259 10.9681 33.9216 10.8334C33.9216 10.7574 33.9672 10.6618 34.0041 10.5336L34.0215 10.538L34.0041 10.5314L34.128 10.1274H35.01L35.162 10.5771C35.2055 10.6987 35.2381 10.7986 35.2381 10.8551C35.2337 10.9703 35.073 10.979 34.9882 10.9811H34.9622L34.9643 11.0593ZM34.191 9.94706L34.5537 8.84347H34.5733H34.5842L34.9426 9.94706H34.191ZM34.2366 9.91447H34.8992L34.5711 8.89995L34.2366 9.91447ZM36.2048 8.62623C35.9202 8.62623 35.9093 8.69357 35.8529 8.96947H35.7399C35.7551 8.86302 35.7746 8.75874 35.7855 8.64795C35.8007 8.5415 35.8072 8.43722 35.8072 8.32643H35.8985C35.9289 8.4394 36.0245 8.43505 36.1244 8.43505H38.0752C38.1773 8.43505 38.2708 8.43071 38.2794 8.31774L38.3707 8.33295C38.3555 8.43505 38.3403 8.53716 38.3294 8.63926C38.3207 8.74136 38.3207 8.84347 38.3207 8.94557L38.2078 8.98685C38.2012 8.84781 38.1817 8.62405 37.9275 8.62405H37.3084V10.6357C37.3084 10.9268 37.4409 10.9616 37.6212 10.9616H37.6929V11.0767C37.5452 11.0767 37.2823 11.0615 37.0759 11.0615C36.85 11.0615 36.585 11.0767 36.4372 11.0767V10.9616H36.5089C36.7175 10.9616 36.8239 10.942 36.8239 10.6444V8.62405L36.2048 8.62623Z" fill="#211E1F"/>
<path d="M37.6924 11.0944C37.5447 11.0944 37.2796 11.0792 37.0754 11.0792C36.8495 11.0792 36.5845 11.0944 36.4367 11.0944H36.4194V10.9489H36.5084C36.717 10.9445 36.7995 10.9402 36.806 10.6491V8.64609H36.2043V8.61351H36.8408V10.6512C36.8408 10.9554 36.7191 10.9836 36.5106 10.9858H36.4541V11.0662C36.604 11.064 36.8582 11.051 37.0776 11.051C37.2753 11.051 37.5273 11.064 37.6772 11.0662V10.9858H37.6207C37.4382 10.9858 37.2927 10.9402 37.2905 10.6447V8.61568H37.927C38.1812 8.61568 38.2138 8.83292 38.2203 8.97196L38.3028 8.94154C38.3028 8.84378 38.3028 8.74385 38.3094 8.64392C38.3202 8.54616 38.3333 8.45058 38.3485 8.35282L38.292 8.34413C38.2746 8.45492 38.1681 8.45926 38.0747 8.45926H36.1044C36.0153 8.45926 35.9197 8.45492 35.8849 8.34847H35.8241C35.8241 8.45275 35.8154 8.55485 35.8002 8.65478C35.7893 8.75906 35.772 8.85899 35.7568 8.95892H35.8371C35.8871 8.69606 35.9197 8.60916 36.2021 8.61351V8.64609C35.9219 8.65044 35.9284 8.69823 35.8654 8.97847L35.8632 8.99151H35.7177L35.7198 8.97196C35.735 8.86551 35.7546 8.75906 35.7655 8.65044C35.7807 8.54399 35.7893 8.43971 35.7893 8.33109V8.31371H35.9088L35.911 8.32457C35.9371 8.42016 36.0066 8.42016 36.1022 8.42233H36.1217H38.0726C38.1768 8.42016 38.2529 8.41799 38.2594 8.32023V8.30285L38.2768 8.3072L38.3832 8.32457L38.381 8.34195C38.3658 8.44406 38.3506 8.54616 38.3398 8.64609C38.3311 8.74602 38.3311 8.8503 38.3311 8.95023V8.96109L38.3202 8.96544L38.1855 9.01323V8.99151C38.1768 8.8503 38.1616 8.64392 37.9227 8.64392H37.3231V10.6404C37.3274 10.925 37.4404 10.9445 37.6207 10.9489H37.7098V11.0944H37.6924ZM38.5092 10.9641H38.5614C38.6982 10.9641 38.8416 10.9467 38.8416 10.749V8.76775C38.8416 8.57006 38.6982 8.55268 38.5614 8.55268H38.5092V8.43971C38.6569 8.43971 38.8829 8.45492 39.0675 8.45492C39.2565 8.45492 39.4846 8.43971 39.6628 8.43971V8.55268H39.6106C39.4738 8.55268 39.3304 8.57223 39.3304 8.76775V10.749C39.3304 10.9467 39.4738 10.9641 39.6106 10.9641H39.6628V11.0792C39.4803 11.0792 39.2544 11.064 39.0654 11.064C38.8807 11.064 38.6569 11.0792 38.5092 11.0792V10.9641Z" fill="#211E1F"/>
<path d="M39.6622 11.0946C39.4797 11.0946 39.2538 11.0794 39.0648 11.0794C38.8801 11.0794 38.6564 11.0946 38.5087 11.0946H38.4913V10.9491H38.5608C38.6977 10.9469 38.8237 10.936 38.8237 10.7492V8.76797C38.8237 8.58331 38.6977 8.57028 38.5608 8.5681H38.4913V8.42255H38.5087C38.6564 8.42255 38.8823 8.43776 39.067 8.43776C39.256 8.43776 39.4819 8.42255 39.6622 8.42255H39.6774V8.5681H39.6079C39.4689 8.57028 39.345 8.58331 39.3429 8.76797V10.7492C39.345 10.9339 39.4689 10.9469 39.6079 10.9491H39.6774V11.0946H39.6622ZM39.6448 11.062V10.9817H39.6079C39.4732 10.9817 39.3125 10.9578 39.3125 10.7492V8.76797C39.3125 8.55941 39.4732 8.53552 39.6079 8.53552H39.6448V8.45514C39.471 8.45514 39.2516 8.47034 39.067 8.47034C38.8888 8.47034 38.6716 8.45731 38.5239 8.45514V8.53552H38.5608C38.6955 8.53552 38.8562 8.55941 38.8562 8.76797V10.7492C38.8562 10.9578 38.6955 10.9817 38.5608 10.9817H38.5239V11.062C38.6694 11.0599 38.8845 11.0468 39.0626 11.0468C39.2473 11.0468 39.4667 11.0599 39.6448 11.062ZM41.1699 8.38127C41.9758 8.38127 42.6189 8.88093 42.6189 9.6869C42.6189 10.5559 41.9954 11.1359 41.1894 11.1359C40.3878 11.1359 39.7752 10.5906 39.7752 9.77814C39.7752 8.99173 40.3835 8.38127 41.1699 8.38127ZM41.2264 10.9686C41.9606 10.9686 42.0888 10.3212 42.0888 9.76945C42.0888 9.21766 41.7912 8.54855 41.1634 8.54855C40.5008 8.54855 40.3053 9.13945 40.3053 9.64562C40.3053 10.3212 40.6137 10.9686 41.2264 10.9686Z" fill="#211E1F"/>
<path d="M39.758 9.77846C39.7601 8.98335 40.3749 8.36856 41.17 8.36638V8.39897C40.3923 8.39897 39.7906 9.00073 39.7906 9.77846C39.7927 10.5823 40.3967 11.1188 41.1896 11.1188C41.9869 11.1188 42.6017 10.5475 42.6038 9.68722C42.6038 8.89211 41.9695 8.39897 41.17 8.39897V8.36638C41.9825 8.36638 42.6343 8.87256 42.6343 9.68722C42.6343 10.567 42.0021 11.1514 41.1896 11.1514C40.3815 11.1493 39.7601 10.5996 39.758 9.77846ZM40.288 9.64377C40.288 9.13542 40.4879 8.53149 41.1635 8.53149C41.8044 8.53366 42.1042 9.2158 42.1064 9.76977C42.1064 10.3216 41.976 10.9842 41.2287 10.9842V10.9516C41.9478 10.9516 42.0716 10.3216 42.0738 9.76977C42.0738 9.22232 41.7783 8.56625 41.1635 8.56407C40.514 8.56407 40.3228 9.13977 40.3206 9.64377C40.3206 10.3172 40.6291 10.9494 41.2265 10.9516V10.9842C40.5987 10.9842 40.2902 10.3259 40.288 9.64377ZM45.1673 10.3324L45.176 10.3259V8.90732C45.176 8.59666 44.9609 8.55104 44.8458 8.55104H44.7632V8.43807C44.9414 8.43807 45.1152 8.45328 45.2911 8.45328C45.4475 8.45328 45.6018 8.43807 45.756 8.43807V8.55104H45.6995C45.541 8.55104 45.3628 8.58145 45.3628 9.03114V10.7539C45.3628 10.8864 45.3672 11.0189 45.3867 11.1362H45.2433L43.2947 8.96597V10.5236C43.2947 10.8516 43.3577 10.9668 43.6488 10.9668H43.714V11.0819C43.551 11.0819 43.3881 11.0667 43.2252 11.0667C43.0557 11.0667 42.8797 11.0819 42.7103 11.0819V10.9668H42.7624C43.0231 10.9668 43.1013 10.7886 43.1013 10.4867V8.89428C43.1013 8.68356 42.9275 8.55538 42.7581 8.55538H42.7081V8.44242C42.8515 8.44242 42.9992 8.45763 43.1426 8.45763C43.2556 8.45763 43.3664 8.44242 43.4793 8.44242L45.1673 10.3324Z" fill="#211E1F"/>
<path d="M45.3878 11.1513L45.2314 11.1448L43.3132 9.00496V10.5213C43.3175 10.8493 43.3675 10.9428 43.6521 10.9471H43.7346V11.0948H43.7172C43.5543 11.0948 43.3914 11.0796 43.2284 11.0796C43.059 11.0796 42.8852 11.0948 42.7136 11.0948H42.6984V10.9471H42.7679C43.0177 10.9471 43.0894 10.7863 43.0916 10.4844V8.89199C43.0916 8.68996 42.9265 8.5683 42.7635 8.5683H42.6984V8.42275H42.7136C42.8591 8.42275 43.0069 8.43796 43.1481 8.43796C43.261 8.43796 43.3696 8.42275 43.4978 8.42927L45.1597 10.2997V8.90937C45.1597 8.60741 44.9577 8.57265 44.8469 8.57048H44.747V8.42492H44.7643C44.9425 8.42492 45.1163 8.44013 45.2922 8.44013C45.4465 8.44013 45.6007 8.42492 45.7593 8.42492H45.7745V8.57048H45.7007C45.5442 8.57482 45.3835 8.59003 45.3813 9.03537V10.7538C45.3813 10.8863 45.3835 11.0188 45.403 11.1339L45.4052 11.1513H45.3878ZM45.2445 11.1187H45.3683C45.3509 11.0058 45.3487 10.8798 45.3487 10.7538V9.0332C45.3487 8.57917 45.5399 8.53789 45.7007 8.53572H45.7419V8.45534C45.592 8.45534 45.4443 8.47054 45.2922 8.47054C45.1206 8.47054 44.9512 8.45751 44.7795 8.45534V8.53572H44.8469C44.9642 8.53789 45.1923 8.58786 45.1923 8.90937L45.188 10.3388L45.1814 10.3475L45.1684 10.3606L43.4848 8.45968C43.374 8.45968 43.2632 8.47489 43.1481 8.47489C43.009 8.47489 42.8678 8.46185 42.7288 8.45968V8.54006H42.7614C42.9395 8.54223 43.122 8.67475 43.122 8.89634V10.4887C43.122 10.7907 43.0373 10.984 42.7657 10.9862H42.7288V11.0666C42.8939 11.0666 43.0612 11.0514 43.2284 11.0514C43.387 11.0514 43.5434 11.0644 43.6999 11.0666V10.9862H43.6521C43.3544 10.9862 43.2806 10.8559 43.2806 10.5278V8.92675L45.2445 11.1187ZM46.3654 10.5387C46.3285 10.6669 46.2829 10.7668 46.2829 10.8341C46.2829 10.9471 46.4415 10.9667 46.5653 10.9667H46.6066V11.0818C46.4545 11.0731 46.3002 11.0666 46.1482 11.0666C46.0113 11.0666 45.8766 11.0731 45.7398 11.0818V10.9667H45.7615C45.9092 10.9667 46.0352 10.8798 46.0917 10.7212L46.6978 8.98541C46.7456 8.84637 46.8151 8.65737 46.8368 8.51617C46.9585 8.47489 47.1084 8.39885 47.1822 8.35323C47.1931 8.34889 47.1996 8.34454 47.2127 8.34454C47.2235 8.34454 47.23 8.34454 47.2387 8.35541C47.2496 8.38582 47.2626 8.42058 47.2735 8.44882L47.9687 10.4279C48.0143 10.5604 48.0599 10.6994 48.1099 10.8146C48.1555 10.921 48.2359 10.9645 48.3597 10.9645H48.3836V11.0796C48.2141 11.0709 48.0425 11.0644 47.8622 11.0644C47.6776 11.0644 47.4886 11.0709 47.2952 11.0796V10.9645H47.3365C47.4234 10.9645 47.5711 10.9493 47.5711 10.8559C47.5711 10.8059 47.5364 10.7038 47.4951 10.5843L47.3473 10.1455H46.4892L46.3654 10.5387ZM46.9194 8.86158H46.9129L46.5609 9.93258H47.2691L46.9194 8.86158Z" fill="#211E1F"/>
<path d="M48.381 11.0943C48.2116 11.0878 48.0399 11.0791 47.8596 11.0791C47.675 11.0791 47.486 11.0878 47.2926 11.0943H47.2753V10.9488H47.3317C47.4208 10.9488 47.5512 10.9292 47.5512 10.8554C47.5512 10.8119 47.5186 10.7098 47.4751 10.5882L47.3317 10.1602H46.4975L46.3802 10.5425C46.3433 10.6729 46.2977 10.7706 46.2977 10.8336C46.2977 10.9271 46.4389 10.9488 46.5649 10.9488H46.6235V11.0965H46.6061C46.4541 11.09 46.2998 11.0813 46.1499 11.0813C46.0153 11.0813 45.8784 11.09 45.7415 11.0965H45.7241V10.9488H45.7632C45.9045 10.9488 46.0218 10.8662 46.0782 10.7142L46.6844 8.9784C46.7321 8.83719 46.8017 8.65037 46.8343 8.4983C46.9537 8.45702 47.1058 8.38099 47.1775 8.33537C47.1884 8.33102 47.197 8.32668 47.2123 8.32668C47.2231 8.32668 47.2427 8.32885 47.2535 8.3484C47.2644 8.37881 47.2753 8.4114 47.2883 8.44399L47.9835 10.4209C48.0291 10.5534 48.0747 10.6924 48.1225 10.8054C48.1659 10.9053 48.2355 10.9444 48.3571 10.9466H48.3962V11.0943H48.381ZM47.3078 11.0618C47.4947 11.0552 47.6793 11.0465 47.8596 11.0465C48.0356 11.0465 48.2007 11.0531 48.3658 11.0596V10.9814H48.3593C48.2311 10.9814 48.1421 10.9314 48.0943 10.8206C48.0443 10.7055 47.9987 10.5664 47.9552 10.4339L47.26 8.45485C47.2492 8.42443 47.2383 8.38968 47.2275 8.36361C47.2253 8.35926 47.2253 8.35926 47.2209 8.35926H47.2144C47.2057 8.35926 47.2014 8.36143 47.1927 8.36361C47.1188 8.40923 46.9668 8.48526 46.856 8.51568C46.8321 8.65906 46.7647 8.84806 46.7148 8.98709L46.1087 10.7229C46.0522 10.888 45.9197 10.9814 45.7654 10.9814H45.7589V11.0596C45.8893 11.0531 46.0196 11.0465 46.1499 11.0465C46.2955 11.0465 46.4454 11.0531 46.5909 11.0596V10.9814H46.5649C46.441 10.9792 46.2694 10.9662 46.2651 10.8315C46.2651 10.7554 46.3129 10.6599 46.3498 10.5317L46.365 10.536L46.3498 10.5295L46.4736 10.1254H47.3556L47.5077 10.5751C47.549 10.6968 47.5837 10.7967 47.5837 10.8532C47.5772 10.9683 47.4186 10.977 47.3339 10.9792H47.31L47.3078 11.0618ZM46.5366 9.9473L46.8994 8.84371H46.919H46.9298L47.2883 9.9473H46.5366ZM46.5801 9.91472H47.2405L46.9125 8.90237L46.5801 9.91472ZM49.3347 10.7076C49.3347 10.8597 49.439 10.9032 49.5606 10.9205C49.7149 10.9314 49.8865 10.9314 50.0603 10.9119C50.2189 10.8923 50.3557 10.8011 50.4231 10.7076C50.4839 10.6251 50.5165 10.5186 50.5404 10.4361H50.649C50.6077 10.6512 50.5556 10.8641 50.51 11.0791C50.1776 11.0791 49.8452 11.0639 49.5128 11.0639C49.1805 11.0639 48.8481 11.0791 48.5157 11.0791V10.964H48.5678C48.7047 10.964 48.8524 10.9466 48.8524 10.712V8.76768C48.8524 8.56999 48.7047 8.55261 48.5678 8.55261H48.5157V8.43964C48.7156 8.43964 48.9133 8.45485 49.1131 8.45485C49.3065 8.45485 49.4955 8.43964 49.6888 8.43964V8.55261H49.5932C49.4498 8.55261 49.3369 8.55695 49.3369 8.75682V10.7076H49.3347Z" fill="#211E1F"/>
<path d="M50.5094 11.095C50.177 11.095 49.8425 11.0798 49.5123 11.0798C49.1799 11.0798 48.8475 11.095 48.513 11.095H48.4978V10.9494H48.5673C48.7041 10.9472 48.8345 10.9364 48.8345 10.7126V8.7683C48.8323 8.58364 48.7041 8.57278 48.5673 8.56843H48.4978V8.42288H48.513C48.715 8.42288 48.9105 8.43809 49.1104 8.43809C49.3016 8.43809 49.4906 8.42288 49.6861 8.42288H49.7013V8.56843H49.5905C49.4449 8.57278 49.3537 8.56626 49.3494 8.75743V10.7083C49.3494 10.8495 49.4428 10.8864 49.5601 10.9038C49.6274 10.9081 49.6969 10.9125 49.7708 10.9125C49.8642 10.9125 49.9598 10.9081 50.0576 10.8973C50.2118 10.8799 50.3443 10.7908 50.4095 10.6996C50.4682 10.6192 50.5007 10.5149 50.5246 10.4324L50.529 10.4193H50.6724L50.668 10.4389C50.6246 10.6561 50.5724 10.8669 50.5268 11.0819L50.5246 11.095H50.5094ZM50.4942 11.0624C50.5377 10.8582 50.5876 10.6561 50.6289 10.4519H50.5507C50.5268 10.5345 50.4942 10.6366 50.4334 10.7191C50.3639 10.8169 50.2227 10.9103 50.0597 10.9299C49.9598 10.9407 49.862 10.9451 49.7708 10.9451C49.6969 10.9451 49.6274 10.9407 49.5579 10.9364C49.4341 10.9233 49.3146 10.8712 49.3168 10.7083V8.75743C49.3168 8.54671 49.4493 8.53585 49.5905 8.53585H49.6687V8.45547C49.4819 8.45547 49.2994 8.47067 49.1104 8.47067C48.9149 8.47067 48.7237 8.45764 48.5282 8.45547V8.53585H48.5651C48.6998 8.53585 48.8649 8.55974 48.8649 8.7683V10.7126C48.8649 10.9581 48.6998 10.982 48.5651 10.982H48.5282V11.0624C48.8562 11.0624 49.1821 11.0472 49.5101 11.0472C49.8403 11.0472 50.1684 11.0624 50.4942 11.0624ZM50.6028 8.33164C50.8309 8.33164 51.0004 8.50761 51.0004 8.73136C51.0004 8.95512 50.8309 9.12892 50.6028 9.12892C50.3747 9.12892 50.2053 8.95512 50.2053 8.73136C50.2053 8.50761 50.3747 8.33164 50.6028 8.33164ZM50.6028 9.05288C50.781 9.05288 50.9178 8.90081 50.9178 8.72919C50.9178 8.55757 50.7832 8.40333 50.6028 8.40333C50.4247 8.40333 50.2878 8.55757 50.2878 8.72919C50.2878 8.90081 50.4247 9.05288 50.6028 9.05288ZM50.4052 8.93992V8.92037C50.4551 8.91385 50.4638 8.91602 50.4638 8.88561V8.59016C50.4638 8.54888 50.4595 8.53367 50.4073 8.53585V8.5163H50.6115C50.681 8.5163 50.7462 8.54888 50.7462 8.62274C50.7462 8.6814 50.7071 8.72485 50.6528 8.74223L50.718 8.83347C50.7484 8.87474 50.7832 8.91385 50.8049 8.92688V8.93992H50.7267C50.6897 8.93992 50.6572 8.86171 50.5833 8.75743H50.5398V8.88995C50.5398 8.91602 50.5485 8.91385 50.5985 8.92037V8.93992H50.4052ZM50.5398 8.73136H50.5876C50.6398 8.73136 50.6637 8.69226 50.6637 8.62926C50.6637 8.56626 50.6267 8.54454 50.5855 8.54454H50.542V8.73136H50.5398Z" fill="#211E1F"/>
<path d="M9.77155 13.2148C13.3843 13.2322 16.6798 10.269 16.6798 6.66499C16.6798 2.72422 13.3821 -0.00217112 9.77155 1.29732e-06H6.66281C3.0088 -0.00217112 0 2.72422 0 6.66499C0 10.2712 3.0088 13.2322 6.66281 13.2148H9.77155Z" fill="#0079BE"/>
<path d="M6.6774 0.544996C3.33839 0.544996 0.631552 3.254 0.629379 6.59519C0.629379 9.93637 3.33622 12.6432 6.6774 12.6432C10.0186 12.6432 12.7254 9.9342 12.7254 6.59519C12.7254 3.254 10.0186 0.547169 6.6774 0.544996ZM2.84525 6.59519C2.84742 4.96153 3.86846 3.56901 5.3066 3.01721V10.1732C3.86846 9.62137 2.84742 8.22885 2.84525 6.59519ZM8.05037 10.1753V3.01721C9.48851 3.56901 10.5095 4.96153 10.5117 6.59519C10.5095 8.22885 9.48851 9.62137 8.05037 10.1753Z" fill="white"/>
<path d="M18.8 2.84392C18.8 2.21826 18.4742 2.25954 18.1613 2.25302V2.07271C18.4329 2.08574 18.7109 2.08574 18.9803 2.08574C19.2714 2.08574 19.669 2.07271 20.1838 2.07271C21.9826 2.07271 22.9624 3.27406 22.9624 4.50582C22.9624 5.19448 22.5605 6.92373 20.0991 6.92373C19.745 6.92373 19.417 6.91069 19.0911 6.91069C18.7783 6.91069 18.472 6.91721 18.1592 6.92373V6.74341C18.5763 6.70214 18.7783 6.68693 18.7978 6.21552L18.8 2.84392ZM19.48 6.10255C19.48 6.63696 19.8623 6.69997 20.2034 6.69997C21.7045 6.69997 22.1977 5.56596 22.1977 4.53189C22.1977 3.23278 21.3635 2.2943 20.0231 2.2943C19.7385 2.2943 19.606 2.31385 19.48 2.32254V6.10255ZM23.2057 6.74341H23.3382C23.5315 6.74341 23.6728 6.74341 23.6728 6.51314V4.62965C23.6728 4.32334 23.5685 4.28206 23.3121 4.14303V4.03223C23.638 3.93447 24.029 3.80413 24.0551 3.7824C24.1051 3.75416 24.1463 3.74765 24.1811 3.74765C24.2159 3.74765 24.2289 3.78892 24.2289 3.8454V6.51314C24.2289 6.74341 24.381 6.74341 24.5765 6.74341H24.6938V6.92373C24.457 6.92373 24.2137 6.91069 23.9639 6.91069C23.714 6.91069 23.4642 6.91721 23.2057 6.92373V6.74341ZM23.9487 2.67664C23.7683 2.67664 23.6076 2.50937 23.6076 2.32905C23.6076 2.15526 23.7749 1.9945 23.9487 1.9945C24.129 1.9945 24.2897 2.14005 24.2897 2.32905C24.2897 2.51806 24.1377 2.67664 23.9487 2.67664ZM25.3542 4.67092C25.3542 4.41458 25.2782 4.34506 24.9523 4.21254V4.08003C25.2499 3.98227 25.5345 3.8932 25.8691 3.74547C25.8908 3.74547 25.9103 3.76068 25.9103 3.81499V4.26685C26.3079 3.98227 26.6468 3.74547 27.1139 3.74547C27.7048 3.74547 27.9133 4.17561 27.9133 4.71872V6.51096C27.9133 6.74124 28.0654 6.74124 28.2609 6.74124H28.3869V6.92155C28.1436 6.92155 27.9003 6.90852 27.6505 6.90852C27.4006 6.90852 27.1486 6.91504 26.8988 6.92155V6.74124H27.0226C27.2181 6.74124 27.355 6.74124 27.355 6.51096V4.71437C27.355 4.31682 27.1139 4.12347 26.7163 4.12347C26.4947 4.12347 26.1406 4.30379 25.9103 4.45803V6.51531C25.9103 6.74559 26.0646 6.74559 26.2579 6.74559H26.3818V6.9259C26.1385 6.9259 25.8951 6.91286 25.6453 6.91286C25.3955 6.91286 25.1457 6.91938 24.8958 6.9259V6.74559H25.0218C25.2173 6.74559 25.3542 6.74559 25.3542 6.51531V4.67092ZM28.9126 5.00548C28.8974 5.06848 28.8974 5.17275 28.9126 5.40955C28.9539 6.06996 29.3775 6.6109 29.9337 6.6109C30.316 6.6109 30.6158 6.40234 30.8722 6.146L30.9699 6.24376C30.6506 6.66738 30.253 7.028 29.6838 7.028C28.5781 7.028 28.3565 5.957 28.3565 5.51382C28.3565 4.15172 29.2733 3.74765 29.7599 3.74765C30.3225 3.74765 30.9286 4.10175 30.9352 4.8382C30.9352 4.87948 30.9352 4.92075 30.9286 4.9642L30.8656 5.00548H28.9126ZM30.1422 4.78172C30.316 4.78172 30.3356 4.69048 30.3356 4.60792C30.3356 4.25382 30.1205 3.96923 29.7316 3.96923C29.308 3.96923 29.0169 4.28206 28.9322 4.78172H30.1422ZM31.0937 6.74341H31.2806C31.4739 6.74341 31.613 6.74341 31.613 6.51314V4.56013C31.613 4.34506 31.3566 4.30379 31.2523 4.2473V4.14303C31.7607 3.92796 32.0387 3.74547 32.1017 3.74547C32.143 3.74547 32.1626 3.7672 32.1626 3.83671V4.46237H32.1778C32.3516 4.19082 32.6427 3.74547 33.0663 3.74547C33.2401 3.74547 33.4617 3.86278 33.4617 4.11478C33.4617 4.30161 33.3292 4.46889 33.1358 4.46889C32.9186 4.46889 32.9186 4.30161 32.6774 4.30161C32.5601 4.30161 32.1713 4.46237 32.1713 4.87948V6.51314C32.1713 6.74341 32.3103 6.74341 32.5058 6.74341H32.8947V6.92373C32.5123 6.91721 32.2212 6.91069 31.9214 6.91069C31.6369 6.91069 31.3436 6.91721 31.0937 6.92373V6.74341ZM33.7702 5.957C33.8614 6.41538 34.1373 6.80424 34.6457 6.80424C35.0541 6.80424 35.2083 6.55441 35.2083 6.3111C35.2083 5.48993 33.6941 5.75496 33.6941 4.63617C33.6941 4.2473 34.007 3.74547 34.7717 3.74547C34.9932 3.74547 35.293 3.80847 35.5624 3.94751L35.6124 4.65572H35.4516C35.3821 4.21906 35.1388 3.96706 34.6934 3.96706C34.4154 3.96706 34.1525 4.12782 34.1525 4.42544C34.1525 5.2401 35.7645 4.9881 35.7645 6.07865C35.7645 6.53703 35.3951 7.02366 34.5696 7.02366C34.2915 7.02366 33.9657 6.9259 33.7224 6.78686L33.6463 5.98741L33.7702 5.957ZM42.0384 3.33054H41.8646C41.7321 2.51806 41.1564 2.19002 40.3787 2.19002C39.5792 2.19002 38.4191 2.72444 38.4191 4.39285C38.4191 5.79841 39.4206 6.80424 40.4895 6.80424C41.1781 6.80424 41.7473 6.33065 41.8863 5.60072L42.0449 5.642L41.8863 6.65652C41.5952 6.83683 40.8088 7.02583 40.3504 7.02583C38.7255 7.02583 37.6957 5.97655 37.6957 4.41241C37.6957 2.9873 38.9666 1.96626 40.3287 1.96626C40.8914 1.96626 41.4345 2.14874 41.9689 2.33557L42.0384 3.33054ZM42.2882 6.74341H42.4207C42.6163 6.74341 42.7553 6.74341 42.7553 6.51314V2.64188C42.7553 2.19002 42.651 2.17699 42.386 2.09878V1.98798C42.6641 1.89674 42.9552 1.77292 43.1029 1.68819C43.1789 1.64691 43.2354 1.61216 43.255 1.61216C43.2984 1.61216 43.3114 1.65343 43.3114 1.70991V6.51314C43.3114 6.74341 43.4635 6.74341 43.659 6.74341H43.7763V6.92373C43.5417 6.92373 43.2984 6.91069 43.0464 6.91069C42.7966 6.91069 42.5467 6.91721 42.2882 6.92373V6.74341ZM46.7504 6.54138C46.7504 6.66738 46.8264 6.6739 46.9437 6.6739C47.0263 6.6739 47.1306 6.66738 47.2218 6.66738V6.81293C46.922 6.84117 46.3528 6.98672 46.2203 7.028L46.1856 7.00628V6.44362C45.7684 6.78469 45.4491 7.028 44.956 7.028C44.5801 7.028 44.1913 6.78469 44.1913 6.20248V4.42327C44.1913 4.24296 44.163 4.06916 43.7742 4.0344V3.90189C44.024 3.89537 44.5801 3.85409 44.6692 3.85409C44.7452 3.85409 44.7452 3.90189 44.7452 4.05613V5.84838C44.7452 6.05693 44.7452 6.65434 45.3492 6.65434C45.586 6.65434 45.8988 6.47403 46.1899 6.23072V4.36027C46.1899 4.22123 45.8575 4.1452 45.6077 4.07568V3.94968C46.2333 3.9084 46.6222 3.85192 46.6917 3.85192C46.7482 3.85192 46.7482 3.89972 46.7482 3.97792L46.7504 6.54138ZM48.1342 4.2473C48.4123 4.01051 48.7881 3.74765 49.1705 3.74765C49.9764 3.74765 50.463 4.44934 50.463 5.20751C50.463 6.11776 49.7961 7.028 48.8011 7.028C48.2863 7.028 48.0169 6.86072 47.8344 6.78469L47.6259 6.94328L47.4803 6.86724C47.5411 6.45665 47.5781 6.05476 47.5781 5.63113V2.64188C47.5781 2.19002 47.4738 2.17699 47.2088 2.09878V1.98798C47.4868 1.89674 47.7779 1.77292 47.9257 1.68819C48.0017 1.64691 48.0582 1.61216 48.0799 1.61216C48.1212 1.61216 48.1342 1.65343 48.1342 1.70991V4.2473ZM48.1342 6.13731C48.1342 6.40234 48.384 6.84769 48.8489 6.84769C49.5919 6.84769 49.9047 6.11776 49.9047 5.49862C49.9047 4.74913 49.3356 4.12347 48.7925 4.12347C48.5339 4.12347 48.3189 4.29075 48.132 4.45151L48.1342 6.13731ZM18.1526 10.9644H18.2069C18.3438 10.9644 18.4872 10.947 18.4872 10.7494V8.76811C18.4872 8.57042 18.3438 8.55304 18.2069 8.55304H18.1526V8.44007C18.3004 8.44007 18.5263 8.45528 18.7131 8.45528C18.9021 8.45528 19.1281 8.44007 19.3062 8.44007V8.55304H19.2519C19.1172 8.55304 18.9716 8.57259 18.9716 8.76811V10.7494C18.9716 10.947 19.115 10.9644 19.2519 10.9644H19.3062V11.0796C19.1237 11.0796 18.8978 11.0644 18.7088 11.0644C18.5241 11.0644 18.3004 11.0796 18.1526 11.0796V10.9644Z" fill="#211E1F"/>
<path d="M19.3055 11.0942C19.123 11.0942 18.8971 11.079 18.7081 11.079C18.5234 11.079 18.3019 11.0942 18.152 11.0942H18.1367V10.9486H18.2063C18.3431 10.9465 18.4691 10.9334 18.4691 10.7488V8.76754C18.467 8.58288 18.3431 8.56985 18.2063 8.56768H18.1367V8.42212H18.152C18.2997 8.42212 18.5278 8.43733 18.7124 8.43733C18.9014 8.43733 19.1274 8.42212 19.3055 8.42212H19.3229V8.56768H19.2534C19.1165 8.56985 18.9905 8.58288 18.9905 8.76754V10.7488C18.9905 10.9334 19.1165 10.9443 19.2534 10.9486H19.3229V11.0942H19.3055ZM19.2903 11.0616V10.9812H19.2534C19.1187 10.9812 18.9579 10.9573 18.9558 10.7488V8.76754C18.9558 8.55899 19.1165 8.53509 19.2534 8.53509H19.2903V8.45471C19.1165 8.45471 18.8971 8.46992 18.7124 8.46992C18.5321 8.46992 18.3149 8.45688 18.1693 8.45471V8.53509H18.2063C18.341 8.53509 18.5017 8.55899 18.5017 8.76754V10.7488C18.5017 10.9573 18.341 10.9812 18.2063 10.9812H18.1693V11.0616C18.3149 11.0594 18.53 11.0464 18.7081 11.0464C18.8928 11.0464 19.1122 11.0616 19.2903 11.0616ZM21.9037 10.3317L21.9102 10.3252V8.90657C21.9102 8.59592 21.6952 8.5503 21.5822 8.5503H21.4997V8.43733C21.6778 8.43733 21.8516 8.45254 22.0297 8.45254C22.184 8.45254 22.3404 8.43733 22.4946 8.43733V8.5503H22.4381C22.2796 8.5503 22.1014 8.58071 22.1014 9.0304V10.7531C22.1014 10.8856 22.1058 11.0182 22.1231 11.1355H21.9798L20.0333 8.96523V10.5229C20.0333 10.8509 20.0963 10.966 20.3895 10.966H20.4525V11.0812C20.2896 11.0812 20.1289 11.066 19.9659 11.066C19.7965 11.066 19.6227 11.0812 19.4511 11.0812V10.966H19.5032C19.7639 10.966 19.8443 10.7879 19.8443 10.4859V8.89354C19.8443 8.68281 19.6705 8.55464 19.501 8.55464H19.4511V8.44168C19.5944 8.44168 19.7422 8.45688 19.8855 8.45688C19.9985 8.45688 20.1093 8.44168 20.2223 8.44168L21.9037 10.3317Z" fill="#211E1F"/>
<path d="M22.1231 11.1507L21.9666 11.1442L20.0484 9.00438V10.5207C20.0527 10.8488 20.1027 10.9422 20.3873 10.9465H20.4677V11.0921H20.4503C20.2874 11.0921 20.1244 11.0769 19.9615 11.0769C19.7921 11.0769 19.6183 11.0921 19.4466 11.0921H19.4293V10.9487H19.4988C19.7486 10.9465 19.8203 10.7879 19.8225 10.486V8.89358C19.8225 8.69155 19.6574 8.56989 19.4944 8.56989H19.4293V8.42434H19.4466C19.5922 8.42434 19.7399 8.43955 19.8811 8.43955C19.9941 8.43955 20.1027 8.42434 20.2309 8.43086L21.8928 10.3013V8.91096C21.8906 8.60899 21.6908 8.57424 21.58 8.57206H21.48V8.42651H21.4974C21.6755 8.42651 21.8493 8.44172 22.0275 8.44172C22.1817 8.44172 22.336 8.42651 22.4924 8.42651H22.5098V8.57206H22.4359C22.2795 8.57641 22.1187 8.58944 22.1144 9.03696V10.7532C22.1144 10.8857 22.1187 11.0182 22.1361 11.1312L22.1404 11.1507H22.1231ZM21.9775 11.1181H22.1035C22.0861 11.0052 22.084 10.8792 22.084 10.7532V9.03262C22.084 8.57858 22.2751 8.53513 22.4359 8.53513H22.475V8.45475C22.3251 8.45475 22.1774 8.46996 22.0253 8.46996C21.8515 8.46996 21.6842 8.45693 21.5126 8.45475V8.53513H21.58C21.6951 8.53513 21.9254 8.58727 21.9254 8.90879L21.921 10.3382L21.9123 10.3469L21.8993 10.3578L20.2178 8.45692C20.1049 8.45692 19.9963 8.47213 19.8811 8.47213C19.7421 8.47213 19.6009 8.4591 19.464 8.45692V8.5373H19.4966C19.6747 8.5373 19.8572 8.67199 19.8572 8.89358V10.486C19.8572 10.7879 19.7725 10.9813 19.5009 10.9835H19.464V11.066C19.627 11.0638 19.7964 11.0508 19.9615 11.0508C20.1201 11.0508 20.2765 11.0638 20.4329 11.066V10.9856H20.3851C20.0875 10.9856 20.0136 10.8553 20.0136 10.5272V8.92617L21.9775 11.1181ZM23.0594 8.62637C22.7748 8.62637 22.7639 8.69372 22.7074 8.96962H22.5945C22.6097 8.86317 22.6292 8.75889 22.6401 8.6481C22.6553 8.54165 22.6618 8.43737 22.6618 8.32658H22.7531C22.7835 8.43955 22.8769 8.4352 22.9812 8.4352H24.932C25.0341 8.4352 25.1297 8.43086 25.1362 8.31789L25.2275 8.3331C25.2122 8.4352 25.197 8.53731 25.1862 8.63941C25.1797 8.74151 25.1797 8.84362 25.1797 8.94572L25.0667 8.987C25.058 8.84796 25.0406 8.6242 24.7864 8.6242H24.1673V10.6359C24.1673 10.927 24.2998 10.9617 24.4801 10.9617H24.5518V11.0769C24.4041 11.0769 24.1391 11.0617 23.9349 11.0617C23.7089 11.0617 23.4439 11.0769 23.2962 11.0769V10.9617H23.3679C23.5764 10.9617 23.6807 10.9422 23.6807 10.6446V8.6242L23.0594 8.62637Z" fill="#211E1F"/>
<path d="M24.5507 11.0947C24.4008 11.0947 24.1379 11.0795 23.9337 11.0795C23.7078 11.0795 23.4427 11.0947 23.295 11.0947H23.2798V10.9492H23.3667C23.5753 10.9448 23.66 10.9405 23.6643 10.6494V8.64643H23.0604V8.61384H23.6969V10.6516C23.6969 10.9557 23.5753 10.9861 23.3667 10.9861H23.3102V11.0665C23.4601 11.0665 23.7143 11.0513 23.9337 11.0513C24.1314 11.0513 24.3834 11.0643 24.5333 11.0665V10.9861H24.479C24.2965 10.9861 24.1488 10.9405 24.1488 10.6429V8.61384H24.7853C25.0395 8.61384 25.0721 8.83108 25.0808 8.97012L25.1633 8.93971C25.1633 8.84195 25.1633 8.74202 25.1698 8.64208C25.1807 8.54432 25.1937 8.44874 25.2089 8.35098L25.1503 8.34229C25.1329 8.45308 25.0264 8.45743 24.9309 8.45743H22.9626C22.8736 8.45743 22.7758 8.45308 22.7432 8.34663H22.6802C22.6802 8.44874 22.6715 8.55084 22.6585 8.65295C22.6476 8.75722 22.6303 8.85715 22.6151 8.95708H22.6954C22.7454 8.69422 22.778 8.60733 23.0604 8.61167V8.64426C22.7802 8.6486 22.7867 8.69639 22.7258 8.97664L22.7237 8.98967H22.5781L22.5803 8.97012C22.5955 8.86367 22.6151 8.75939 22.6259 8.6486C22.6411 8.54433 22.6498 8.43788 22.6498 8.32926V8.31188H22.7693L22.7715 8.32274C22.7975 8.41832 22.8671 8.41832 22.9626 8.4205H24.933C25.0395 8.41832 25.1155 8.41832 25.122 8.31839L25.1242 8.30101L25.1416 8.30536L25.248 8.32274L25.2459 8.34012C25.2306 8.44222 25.2154 8.54432 25.2046 8.64426C25.1981 8.74419 25.1981 8.84629 25.1981 8.9484V8.95926L25.1872 8.9636L25.0525 9.0114V8.98967C25.0416 8.84846 25.0286 8.64208 24.7896 8.64208H24.1857V10.6385C24.1901 10.9231 24.303 10.9427 24.4833 10.947H24.5724V11.0926L24.5507 11.0947ZM25.348 10.9644H25.4023C25.5391 10.9644 25.6825 10.947 25.6825 10.7493V8.76808C25.6825 8.57039 25.5391 8.55301 25.4023 8.55301H25.348V8.44005C25.5782 8.44005 25.9714 8.45526 26.2886 8.45526C26.608 8.45526 26.999 8.44005 27.2575 8.44005C27.251 8.60298 27.2553 8.85281 27.2662 9.01791L27.1511 9.04833C27.1337 8.80284 27.0881 8.60733 26.6905 8.60733H26.1648V9.59795H26.6145C26.8404 9.59795 26.8904 9.46978 26.9121 9.26557H27.0251C27.0186 9.41329 27.0142 9.56102 27.0142 9.70874C27.0142 9.85212 27.0186 9.9955 27.0251 10.1389L26.9121 10.1606C26.8904 9.93467 26.8773 9.78695 26.6167 9.78695H26.1626V10.6668C26.1626 10.9123 26.382 10.9123 26.6232 10.9123C27.0772 10.9123 27.2771 10.8819 27.39 10.4517L27.4965 10.4778C27.4465 10.6776 27.4009 10.8797 27.3683 11.0795C27.125 11.0795 26.6905 11.0643 26.3516 11.0643C26.0105 11.0643 25.5609 11.0795 25.3458 11.0795V10.9644H25.348Z" fill="#211E1F"/>
<path d="M27.3696 11.0942C27.1263 11.0942 26.6918 11.079 26.3529 11.079C26.0119 11.079 25.5622 11.0942 25.3471 11.0942H25.3319V10.9486H25.4014C25.5383 10.9465 25.6621 10.9334 25.6643 10.7488V8.76754C25.6621 8.58288 25.5383 8.56985 25.4014 8.56768H25.3319V8.42212H25.3471C25.5774 8.42212 25.9706 8.43733 26.2878 8.43733C26.6049 8.43733 26.9981 8.42212 27.2567 8.42212H27.274V8.4395C27.2719 8.49599 27.2697 8.56333 27.2697 8.63502C27.2697 8.76537 27.274 8.90875 27.2806 9.01737V9.0304L27.2675 9.03475L27.135 9.06951V9.04995C27.1133 8.80447 27.0807 8.62633 26.6897 8.62199H26.1791V9.58002H26.6136C26.8309 9.57785 26.87 9.46706 26.896 9.26285L26.8982 9.24764H27.0438V9.26502C27.0372 9.41275 27.0307 9.56047 27.0307 9.7082C27.0307 9.85158 27.0351 9.99496 27.0438 10.1383V10.1514L27.0307 10.1535L26.9004 10.1796L26.8982 10.1622C26.8721 9.93196 26.87 9.80596 26.6201 9.80161H26.1835V10.6662C26.1835 10.8965 26.3812 10.8943 26.6288 10.8965C27.085 10.8943 27.2675 10.8726 27.3805 10.4468L27.3848 10.4316L27.4 10.4338L27.5217 10.4642L27.5173 10.4794C27.4696 10.6793 27.4239 10.8791 27.3892 11.079L27.387 11.092L27.3696 11.0942ZM27.3566 11.0616C27.3892 10.8704 27.4326 10.6793 27.4782 10.4881L27.4044 10.4685C27.2914 10.8922 27.072 10.9291 26.6267 10.9269C26.3877 10.9269 26.1509 10.9269 26.1487 10.6641V9.76685H26.618C26.883 9.76468 26.9091 9.92327 26.9286 10.1383L27.0112 10.121C27.0047 9.98192 27.0003 9.84289 27.0003 9.70385C27.0003 9.56047 27.0047 9.41926 27.0112 9.27806H26.9286C26.9069 9.47575 26.8461 9.61261 26.6158 9.61044H26.1487V8.58723H26.6918C27.085 8.58505 27.1502 8.78709 27.1676 9.02606L27.2501 9.00433C27.2436 8.89788 27.2393 8.76102 27.2393 8.63502C27.2393 8.56985 27.2415 8.50902 27.2436 8.45471C26.9873 8.45471 26.6028 8.46992 26.2921 8.46992C25.9814 8.46992 25.5991 8.45688 25.3667 8.45471V8.53509H25.4036C25.5383 8.53509 25.699 8.55899 25.699 8.76754V10.7488C25.699 10.9573 25.5383 10.9812 25.4036 10.9812H25.3667V11.0616C25.5882 11.0616 26.0249 11.0464 26.3573 11.0464C26.6875 11.0464 27.1133 11.0616 27.3566 11.0616ZM28.0083 8.83923C28.0083 8.56333 27.8562 8.55247 27.7389 8.55247H27.6716V8.4395C27.7932 8.4395 28.0279 8.45471 28.2581 8.45471C28.4841 8.45471 28.6666 8.4395 28.8664 8.4395C29.3422 8.4395 29.7658 8.56768 29.7658 9.10644C29.7658 9.44533 29.5399 9.65389 29.2401 9.7712L29.8875 10.7379C29.9939 10.8987 30.0678 10.9421 30.2546 10.9639V11.079C30.1308 11.079 30.0091 11.0638 29.8831 11.0638C29.7658 11.0638 29.6441 11.079 29.5268 11.079C29.2357 10.6966 28.9859 10.2882 28.7404 9.85375H28.4906V10.6641C28.4906 10.9552 28.6253 10.966 28.7991 10.966H28.8664V11.0812C28.6514 11.0812 28.4319 11.066 28.2169 11.066C28.0344 11.066 27.8584 11.0812 27.6694 11.0812V10.966H27.7368C27.878 10.966 28.0061 10.903 28.0061 10.7618L28.0083 8.83923ZM28.4928 9.71689H28.6774C29.0554 9.71689 29.2596 9.57351 29.2596 9.12599C29.2596 8.78926 29.0446 8.57419 28.7078 8.57419C28.5949 8.57419 28.5471 8.58506 28.4928 8.5894V9.71689Z" fill="#211E1F"/>
<path d="M30.255 11.094C30.129 11.094 30.0074 11.0788 29.8835 11.0788C29.7684 11.0788 29.6468 11.094 29.5164 11.0875C29.2253 10.7073 28.9776 10.3011 28.7343 9.86877H28.5106V10.6617C28.5149 10.9463 28.6279 10.9441 28.8039 10.9485H28.8886V11.094H28.8712C28.6561 11.094 28.4367 11.0788 28.2216 11.0788C28.0413 11.0788 27.8632 11.094 27.6742 11.094H27.6568V10.9485H27.7415C27.8784 10.9485 27.9935 10.8876 27.9935 10.7616V8.84121C27.9914 8.57183 27.8589 8.57401 27.7415 8.56966H27.6568V8.42411H27.6742C27.7959 8.42411 28.0305 8.43932 28.2607 8.43932C28.4867 8.43932 28.6692 8.42411 28.869 8.42411C29.3448 8.42411 29.7836 8.55663 29.7858 9.10625C29.7858 9.44732 29.5599 9.66022 29.2688 9.7797L29.9031 10.7312C30.0095 10.8876 30.0747 10.9267 30.2594 10.9506L30.2724 10.9528V11.0962L30.255 11.094ZM28.4932 9.83618H28.7517L28.7561 9.84487C29.0015 10.2794 29.2514 10.6878 29.5294 11.0614C29.6446 11.0614 29.7662 11.0462 29.8835 11.0462C30.0052 11.0462 30.1203 11.0593 30.2377 11.0614V10.9789C30.0595 10.9572 29.977 10.9028 29.8727 10.7464L29.2144 9.76232L29.234 9.75363C29.5294 9.63632 29.7489 9.43429 29.7489 9.10191C29.7489 8.57618 29.3404 8.45452 28.8647 8.45452C28.6648 8.45452 28.4845 8.46973 28.2564 8.46973C28.0348 8.46973 27.8111 8.4567 27.6872 8.45452V8.5349H27.7394C27.8567 8.5349 28.024 8.55445 28.024 8.83904V10.7595C28.024 10.9115 27.8806 10.981 27.7394 10.981H27.6872V11.0614C27.8697 11.0614 28.0413 11.0462 28.2195 11.0462C28.4302 11.0462 28.6453 11.0614 28.8538 11.0614V10.981H28.8017C28.6301 10.981 28.4758 10.9593 28.4758 10.6617V9.83618H28.4932ZM28.4932 9.73191H28.4758V8.57401L28.491 8.57183C28.5432 8.56749 28.5931 8.55663 28.7083 8.55663C29.0537 8.55663 29.2774 8.78039 29.2774 9.1258C29.2774 9.57767 29.0602 9.72973 28.6779 9.73191H28.4932ZM28.6779 9.69932C29.0515 9.69715 29.2405 9.5668 29.2449 9.1258C29.2427 8.79559 29.0385 8.59139 28.7083 8.58921C28.6062 8.58921 28.5584 8.5979 28.5106 8.60225V9.69715H28.6779V9.69932ZM32.8228 10.3315L32.8293 10.325V8.90639C32.8293 8.59573 32.6143 8.55011 32.5013 8.55011H32.4188V8.43714C32.5969 8.43714 32.7707 8.45235 32.9488 8.45235C33.1031 8.45235 33.2595 8.43714 33.4137 8.43714V8.55011H33.3572C33.1987 8.55011 33.0205 8.58052 33.0205 9.03022V10.7529C33.0205 10.8855 33.0249 11.018 33.0422 11.1353H32.8989L30.9524 8.96504V10.5227C30.9524 10.8507 31.0175 10.9658 31.3087 10.9658H31.3738V11.081C31.2109 11.081 31.048 11.0658 30.8872 11.0658C30.7156 11.0658 30.5418 11.081 30.3723 11.081V10.9658H30.4245C30.6852 10.9658 30.7655 10.7877 30.7655 10.4857V8.89335C30.7655 8.68263 30.5918 8.55445 30.4223 8.55445H30.3723V8.44149C30.5157 8.44149 30.6634 8.4567 30.8068 8.4567C30.9198 8.4567 31.0306 8.44149 31.1435 8.44149L32.8228 10.3315Z" fill="#211E1F"/>
<path d="M33.0426 11.1515L32.8862 11.1471L30.968 9.00728V10.5236C30.9723 10.8517 31.0223 10.9451 31.3069 10.9494H31.3873V11.095H31.3699C31.2069 11.095 31.044 11.0798 30.8811 11.0798C30.7116 11.0798 30.5378 11.095 30.3684 11.095H30.351V10.9494H30.4205C30.6704 10.9494 30.742 10.7887 30.7442 10.4845V8.89214C30.7442 8.69011 30.5791 8.56845 30.4184 8.56845H30.351V8.4229H30.3684C30.5118 8.4229 30.6595 8.43811 30.8029 8.43811C30.9137 8.43811 31.0245 8.4229 31.1505 8.42942L32.8124 10.302V8.9117C32.8124 8.6119 32.6103 8.57497 32.4995 8.5728H32.3996V8.42724H32.417C32.5951 8.42724 32.7689 8.44245 32.9471 8.44245C33.1013 8.44245 33.2555 8.42724 33.412 8.42724H33.4293V8.5728H33.3576C33.2012 8.57714 33.0405 8.59018 33.0361 9.0377V10.7539C33.0361 10.8864 33.0405 11.0168 33.0578 11.1341L33.06 11.1515H33.0426ZM32.8993 11.1189H33.0231C33.0057 11.0059 33.0035 10.8799 33.0035 10.7539V9.03335C33.0035 8.57931 33.1947 8.53804 33.3576 8.53587H33.3967V8.45549C33.249 8.45549 33.0991 8.47069 32.9492 8.47069C32.7754 8.47069 32.606 8.45766 32.4365 8.45549V8.53587H32.5039C32.6212 8.53804 32.8493 8.588 32.8493 8.90735L32.845 10.3368L32.8384 10.3455L32.8276 10.3585L31.1439 8.45766C31.031 8.45766 30.9224 8.47287 30.8072 8.47287C30.6682 8.47287 30.5248 8.45983 30.3879 8.45766V8.53804H30.4205C30.5987 8.54021 30.7812 8.67273 30.7812 8.89432V10.4867C30.7812 10.7908 30.6964 10.9842 30.4249 10.9842H30.3879V11.0646C30.5509 11.0646 30.7203 11.0494 30.8854 11.0494C31.044 11.0494 31.2004 11.0624 31.3568 11.0646V10.9842H31.3091C31.0114 10.9842 30.9376 10.8538 30.9354 10.5236V8.92256L32.8993 11.1189ZM34.0202 10.5388C33.9811 10.667 33.9355 10.7669 33.9355 10.8343C33.9355 10.9473 34.0941 10.9668 34.2179 10.9668H34.2592V11.0819C34.1071 11.0733 33.9529 11.0667 33.8008 11.0667C33.664 11.0667 33.5293 11.0733 33.3924 11.0819V10.9668H33.4141C33.5619 10.9668 33.6857 10.8799 33.7422 10.7213L34.3483 8.98556C34.3961 8.84652 34.4656 8.65752 34.4895 8.51631C34.609 8.47504 34.761 8.399 34.8327 8.35338C34.8436 8.34904 34.8501 8.34469 34.8631 8.34469C34.874 8.34469 34.8827 8.34469 34.8892 8.35556C34.9001 8.38597 34.9109 8.42073 34.924 8.44897L35.6191 10.428C35.6648 10.5606 35.7104 10.6996 35.7582 10.8147C35.8038 10.9212 35.8842 10.9646 36.008 10.9646H36.0297V11.0798C35.8603 11.0711 35.6887 11.0646 35.5083 11.0646C35.3237 11.0646 35.1325 11.0711 34.9413 11.0798V10.9646H34.9826C35.0695 10.9646 35.2172 10.9494 35.2172 10.856C35.2172 10.806 35.1825 10.7039 35.1412 10.5845L34.9935 10.1456H34.1354L34.0202 10.5388ZM34.572 8.86173H34.5633L34.2114 9.93273H34.9174L34.572 8.86173Z" fill="#211E1F"/>
<path d="M36.0355 11.0942C35.866 11.0856 35.6944 11.079 35.5141 11.079C35.3294 11.079 35.1404 11.0877 34.9471 11.0942H34.9297V10.9465H34.9883C35.0752 10.9465 35.2056 10.927 35.2056 10.8531C35.2056 10.8097 35.173 10.7054 35.1317 10.5859L34.9883 10.1579H34.1541L34.0368 10.5403C33.9977 10.6684 33.9543 10.7684 33.9543 10.8314C33.9564 10.9226 34.0977 10.9465 34.2215 10.9465H34.2801V11.0942H34.2628C34.1107 11.0856 33.9564 11.079 33.8065 11.079C33.6719 11.079 33.535 11.0877 33.3981 11.0942H33.3808V10.9465H33.4199C33.5611 10.9465 33.6784 10.8661 33.7327 10.7119L34.3388 8.97613C34.3888 8.83493 34.4561 8.6481 34.4887 8.49603C34.6082 8.45693 34.7581 8.38089 34.8319 8.3331C34.8428 8.32875 34.8537 8.32441 34.8689 8.32441C34.8776 8.32441 34.8993 8.32658 34.9101 8.34613C34.921 8.37655 34.9319 8.4113 34.9449 8.44172L35.6422 10.4186C35.6879 10.5511 35.7313 10.6902 35.7813 10.8031C35.8247 10.9031 35.8942 10.9443 36.0159 10.9443H36.055V11.0921L36.0355 11.0942ZM34.9623 11.0595C35.1491 11.053 35.3338 11.0465 35.5141 11.0465C35.69 11.0465 35.8551 11.053 36.0181 11.0595V10.9813H36.0137C35.8834 10.9813 35.7943 10.9313 35.7487 10.8205C35.6987 10.7054 35.6531 10.5663 35.6097 10.4338L34.9145 8.45692C34.9036 8.42651 34.8928 8.39175 34.8819 8.36568C34.8797 8.36134 34.8797 8.36134 34.8754 8.36134H34.8689C34.8602 8.36134 34.8558 8.36351 34.8471 8.36568C34.7733 8.41348 34.6234 8.48734 34.5104 8.51775C34.4865 8.66113 34.4192 8.85013 34.3692 8.98917L33.7631 10.7249C33.7044 10.89 33.5719 10.9835 33.4199 10.9835H33.4133V11.0617C33.5437 11.0551 33.674 11.0486 33.8044 11.0486C33.9499 11.0486 34.0998 11.0551 34.2432 11.0617V10.9835H34.2193C34.0955 10.9813 33.9239 10.9682 33.9195 10.8336C33.9195 10.7575 33.9651 10.6619 34.0021 10.5338L34.0194 10.5381L34.0021 10.5316L34.1259 10.1275H35.0079L35.16 10.5772C35.2034 10.6989 35.236 10.7988 35.236 10.8553C35.2317 10.9704 35.0709 10.9791 34.9862 10.9813H34.9601L34.9623 11.0595ZM34.1889 9.94721L34.5517 8.84362H34.5712H34.5821L34.9406 9.94721H34.1889ZM34.2345 9.91462H34.8971L34.5691 8.9001L34.2345 9.91462ZM36.2027 8.62637C35.9181 8.62637 35.9073 8.69372 35.8508 8.96962H35.7378C35.753 8.86317 35.7726 8.75889 35.7834 8.6481C35.7987 8.54165 35.8052 8.43737 35.8052 8.32658H35.8964C35.9268 8.43955 36.0224 8.4352 36.1223 8.4352H38.0732C38.1753 8.4352 38.2687 8.43086 38.2774 8.31789L38.3686 8.3331C38.3534 8.4352 38.3382 8.53731 38.3274 8.63941C38.3187 8.74151 38.3187 8.84362 38.3187 8.94572L38.2057 8.987C38.1992 8.84796 38.1796 8.6242 37.9255 8.6242H37.3063V10.6359C37.3063 10.927 37.4388 10.9617 37.6191 10.9617H37.6908V11.0769C37.5431 11.0769 37.2802 11.0617 37.0739 11.0617C36.8479 11.0617 36.5829 11.0769 36.4352 11.0769V10.9617H36.5069C36.7154 10.9617 36.8219 10.9422 36.8219 10.6446V8.6242L36.2027 8.62637Z" fill="#211E1F"/>
<path d="M37.6923 11.0946C37.5446 11.0946 37.2796 11.0794 37.0754 11.0794C36.8494 11.0794 36.5844 11.0946 36.4367 11.0946H36.4193V10.949H36.5084C36.7169 10.9447 36.7995 10.9403 36.806 10.6492V8.64624H36.2042V8.61366H36.8407V10.6514C36.8407 10.9555 36.7191 10.9838 36.5105 10.9859H36.454V11.0663C36.6039 11.0641 36.8581 11.0511 37.0775 11.0511C37.2752 11.0511 37.5272 11.0641 37.6771 11.0663V10.9859H37.6206C37.4381 10.9859 37.2926 10.9403 37.2904 10.6449V8.61583H37.9269C38.1811 8.61583 38.2137 8.83307 38.2202 8.9721L38.3028 8.94169C38.3028 8.84393 38.3028 8.744 38.3093 8.64407C38.3202 8.54631 38.3332 8.45072 38.3484 8.35296L38.2919 8.34428C38.2745 8.45507 38.1681 8.45941 38.0747 8.45941H36.1043C36.0152 8.45941 35.9196 8.45507 35.8849 8.34862H35.824C35.824 8.4529 35.8154 8.555 35.8001 8.65493C35.7893 8.75921 35.7719 8.85914 35.7567 8.95907H35.8371C35.887 8.69621 35.9196 8.60931 36.202 8.61366V8.64624C35.9218 8.65059 35.9283 8.69838 35.8653 8.97862L35.8631 8.99166H35.7176L35.7198 8.9721C35.735 8.86566 35.7545 8.75921 35.7654 8.65059C35.7806 8.54414 35.7893 8.43986 35.7893 8.33124V8.31386H35.9088L35.9109 8.32472C35.937 8.42031 36.0065 8.42031 36.1021 8.42248H36.1217H38.0725C38.1768 8.42031 38.2528 8.41814 38.2593 8.32038V8.303L38.2767 8.30734L38.3832 8.32472L38.381 8.3421C38.3658 8.44421 38.3506 8.54631 38.3397 8.64624C38.331 8.74617 38.331 8.85045 38.331 8.95038V8.96124L38.3202 8.96559L38.1855 9.01338V8.99166C38.1768 8.85045 38.1616 8.64407 37.9226 8.64407H37.323V10.6405C37.3274 10.9251 37.4403 10.9447 37.6206 10.949H37.7097V11.0946H37.6923ZM38.5092 10.9642H38.5613C38.6982 10.9642 38.8415 10.9468 38.8415 10.7491V8.7679C38.8415 8.57021 38.6982 8.55283 38.5613 8.55283H38.5092V8.43986C38.6569 8.43986 38.8828 8.45507 39.0675 8.45507C39.2565 8.45507 39.4846 8.43986 39.6627 8.43986V8.55283H39.6106C39.4737 8.55283 39.3303 8.57238 39.3303 8.7679V10.7491C39.3303 10.9468 39.4737 10.9642 39.6106 10.9642H39.6627V11.0794C39.4802 11.0794 39.2543 11.0641 39.0653 11.0641C38.8806 11.0641 38.6569 11.0794 38.5092 11.0794V10.9642Z" fill="#211E1F"/>
<path d="M39.6621 11.0948C39.4797 11.0948 39.2537 11.0796 39.0647 11.0796C38.8801 11.0796 38.6563 11.0948 38.5086 11.0948H38.4912V10.9492H38.5607C38.6976 10.9471 38.8236 10.9362 38.8236 10.7494V8.76811C38.8236 8.58346 38.6976 8.57042 38.5607 8.56825H38.4912V8.4227H38.5086C38.6563 8.4227 38.8822 8.43791 39.0669 8.43791C39.2559 8.43791 39.4818 8.4227 39.6621 8.4227H39.6774V8.56825H39.6078C39.4688 8.57042 39.345 8.58346 39.3428 8.76811V10.7494C39.345 10.934 39.4688 10.9471 39.6078 10.9492H39.6774V11.0948H39.6621ZM39.6448 11.0622V10.9818H39.6078C39.4731 10.9818 39.3124 10.9579 39.3124 10.7494V8.76811C39.3124 8.55956 39.4731 8.53567 39.6078 8.53567H39.6448V8.45529C39.471 8.45529 39.2516 8.47049 39.0669 8.47049C38.8888 8.47049 38.6715 8.45746 38.5238 8.45529V8.53567H38.5607C38.6954 8.53567 38.8562 8.55956 38.8562 8.76811V10.7494C38.8562 10.9579 38.6954 10.9818 38.5607 10.9818H38.5238V11.0622C38.6693 11.06 38.8844 11.047 39.0626 11.047C39.2472 11.047 39.4666 11.06 39.6448 11.0622ZM41.1698 8.38142C41.9758 8.38142 42.6188 8.88108 42.6188 9.68705C42.6188 10.556 41.9953 11.1361 41.1894 11.1361C40.3877 11.1361 39.7751 10.5908 39.7751 9.77829C39.7751 8.99187 40.3834 8.38142 41.1698 8.38142ZM41.2263 10.9688C41.9606 10.9688 42.0887 10.3214 42.0887 9.7696C42.0887 9.21781 41.7911 8.5487 41.1633 8.5487C40.5007 8.5487 40.3052 9.1396 40.3052 9.64577C40.3052 10.3214 40.6137 10.9688 41.2263 10.9688Z" fill="#211E1F"/>
<path d="M39.7579 9.77761C39.7601 8.98251 40.3749 8.36771 41.17 8.36554V8.39813C40.3923 8.39813 39.7905 8.99989 39.7905 9.77761C39.7927 10.5814 40.3966 11.118 41.1895 11.118C41.9868 11.118 42.6016 10.5466 42.6038 9.68637C42.6038 8.89127 41.9694 8.39813 41.17 8.39813V8.36554C41.9825 8.36554 42.6342 8.87171 42.6342 9.68637C42.6342 10.5662 42.002 11.1506 41.1895 11.1506C40.3814 11.1484 39.7601 10.5988 39.7579 9.77761ZM40.288 9.64292C40.288 9.13458 40.4878 8.53064 41.1635 8.53064C41.8043 8.53282 42.1041 9.21496 42.1063 9.76892C42.1063 10.3207 41.9759 10.9833 41.2286 10.9833V10.9507C41.9477 10.9507 42.0715 10.3207 42.0737 9.76892C42.0737 9.22147 41.7783 8.5654 41.1635 8.56323C40.5139 8.56323 40.3227 9.13892 40.3206 9.64292C40.3206 10.3164 40.629 10.9485 41.2265 10.9507V10.9833C40.5986 10.9833 40.2901 10.3251 40.288 9.64292ZM45.1672 10.3316L45.1759 10.3251V8.90647C45.1759 8.59582 44.9609 8.5502 44.8457 8.5502H44.7632V8.43723C44.9413 8.43723 45.1151 8.45244 45.2911 8.45244C45.4475 8.45244 45.6017 8.43723 45.756 8.43723V8.5502H45.6995C45.5409 8.5502 45.3628 8.58061 45.3628 9.0303V10.753C45.3628 10.8855 45.3671 11.0181 45.3866 11.1354H45.2433L43.2946 8.96513V10.5228C43.2946 10.8508 43.3576 10.9659 43.6487 10.9659H43.7139V11.0811C43.551 11.0811 43.388 11.0659 43.2251 11.0659C43.0556 11.0659 42.8797 11.0811 42.7102 11.0811V10.9659H42.7624C43.0231 10.9659 43.1013 10.7878 43.1013 10.4858V8.89344C43.1013 8.68271 42.9275 8.55454 42.758 8.55454H42.7081V8.44157C42.8514 8.44157 42.9992 8.45678 43.1425 8.45678C43.2555 8.45678 43.3663 8.44157 43.4793 8.44157L45.1672 10.3316Z" fill="#211E1F"/>
<path d="M45.3858 11.1515L45.2294 11.1449L43.3111 9.00511V10.5215C43.3155 10.8495 43.3654 10.9429 43.65 10.9473H43.7326V11.095H43.7152C43.5523 11.095 43.3893 11.0798 43.2264 11.0798C43.0569 11.0798 42.8831 11.095 42.7115 11.095H42.6963V10.9473H42.7658C43.0157 10.9473 43.0874 10.7865 43.0895 10.4845V8.89214C43.0895 8.69011 42.9244 8.56845 42.7615 8.56845H42.6963V8.4229H42.7115C42.8571 8.4229 43.0048 8.43811 43.146 8.43811C43.259 8.43811 43.3676 8.4229 43.4958 8.42942L45.1577 10.2999V8.90952C45.1577 8.60756 44.9556 8.5728 44.8448 8.57062H44.7449V8.42507H44.7623C44.9404 8.42507 45.1142 8.44028 45.2902 8.44028C45.4444 8.44028 45.5987 8.42507 45.7573 8.42507H45.7725V8.57062H45.6986C45.5422 8.57497 45.3814 8.59018 45.3793 9.03552V10.7539C45.3793 10.8864 45.3814 11.0189 45.401 11.1341L45.4032 11.1515H45.3858ZM45.2424 11.1189H45.3662C45.3488 11.0059 45.3467 10.8799 45.3467 10.7539V9.03335C45.3467 8.57931 45.5378 8.53804 45.6986 8.53587H45.7399V8.45549C45.59 8.45549 45.4423 8.47069 45.2902 8.47069C45.1186 8.47069 44.9491 8.45766 44.7775 8.45549V8.53587H44.8448C44.9622 8.53804 45.1903 8.588 45.1903 8.90952L45.1859 10.339L45.1794 10.3477L45.1664 10.3607L43.4827 8.45983C43.3719 8.45983 43.2611 8.47504 43.146 8.47504C43.007 8.47504 42.8658 8.462 42.7267 8.45983V8.54021H42.7593C42.9375 8.54238 43.1199 8.6749 43.1199 8.89649V10.4889C43.1199 10.7908 43.0352 10.9842 42.7637 10.9864H42.7267V11.0667C42.8918 11.0667 43.0591 11.0515 43.2264 11.0515C43.385 11.0515 43.5414 11.0646 43.6978 11.0667V10.9864H43.65C43.3524 10.9864 43.2785 10.856 43.2785 10.528V8.9269L45.2424 11.1189ZM46.3634 10.5388C46.3264 10.667 46.2808 10.7669 46.2808 10.8343C46.2808 10.9473 46.4394 10.9668 46.5632 10.9668H46.6045V11.0819C46.4524 11.0733 46.2982 11.0667 46.1461 11.0667C46.0093 11.0667 45.8746 11.0733 45.7377 11.0819V10.9668H45.7594C45.9072 10.9668 46.0332 10.8799 46.0896 10.7213L46.6957 8.98556C46.7435 8.84652 46.8131 8.65752 46.8348 8.51631C46.9564 8.47504 47.1063 8.399 47.1802 8.35338C47.1911 8.34904 47.1976 8.34469 47.2106 8.34469C47.2215 8.34469 47.228 8.34469 47.2367 8.35556C47.2475 8.38597 47.2606 8.42073 47.2714 8.44897L47.9666 10.428C48.0122 10.5606 48.0579 10.6996 48.1078 10.8147C48.1534 10.9212 48.2338 10.9646 48.3576 10.9646H48.3815V11.0798C48.2121 11.0711 48.0405 11.0646 47.8602 11.0646C47.6755 11.0646 47.4865 11.0711 47.2932 11.0798V10.9646H47.3344C47.4213 10.9646 47.5691 10.9494 47.5691 10.856C47.5691 10.806 47.5343 10.7039 47.493 10.5845L47.3453 10.1456H46.4872L46.3634 10.5388ZM46.9173 8.86173H46.9108L46.5589 9.93273H47.2671L46.9173 8.86173Z" fill="#211E1F"/>
<path d="M48.379 11.0945C48.2095 11.088 48.0379 11.0793 47.8576 11.0793C47.6729 11.0793 47.4839 11.088 47.2906 11.0945H47.2732V10.9489H47.3297C47.4188 10.9489 47.5491 10.9294 47.5491 10.8555C47.5491 10.8121 47.5165 10.71 47.4731 10.5883L47.3297 10.1603H46.4955L46.3782 10.5427C46.3412 10.673 46.2956 10.7708 46.2956 10.8338C46.2956 10.9272 46.4368 10.9489 46.5628 10.9489H46.6215V11.0967H46.6041C46.452 11.0901 46.2978 11.0815 46.1479 11.0815C46.0132 11.0815 45.8763 11.0901 45.7395 11.0967H45.7221V10.9489H45.7612C45.9024 10.9489 46.0197 10.8664 46.0762 10.7143L46.6823 8.97855C46.7301 8.83734 46.7996 8.65052 46.8322 8.49845C46.9517 8.45717 47.1038 8.38114 47.1754 8.33551C47.1863 8.33117 47.195 8.32682 47.2102 8.32682C47.2211 8.32682 47.2406 8.329 47.2515 8.34855C47.2623 8.37896 47.2732 8.41155 47.2862 8.44414L47.9814 10.421C48.027 10.5536 48.0727 10.6926 48.1204 10.8056C48.1639 10.9055 48.2334 10.9446 48.3551 10.9468H48.3942V11.0945H48.379ZM47.3058 11.0619C47.4926 11.0554 47.6773 11.0467 47.8576 11.0467C48.0335 11.0467 48.1987 11.0532 48.3638 11.0597V10.9815H48.3572C48.2291 10.9815 48.14 10.9316 48.0922 10.8208C48.0422 10.7056 47.9966 10.5666 47.9532 10.4341L47.258 8.455C47.2471 8.42458 47.2363 8.38982 47.2254 8.36376C47.2232 8.35941 47.2232 8.35941 47.2189 8.35941H47.2124C47.2037 8.35941 47.1993 8.36158 47.1907 8.36376C47.1168 8.40938 46.9647 8.48541 46.8539 8.51583C46.83 8.6592 46.7627 8.84821 46.7127 8.98724L46.1066 10.723C46.0501 10.8881 45.9176 10.9815 45.7634 10.9815H45.7569V11.0597C45.8872 11.0532 46.0175 11.0467 46.1479 11.0467C46.2934 11.0467 46.4433 11.0532 46.5889 11.0597V10.9815H46.5628C46.439 10.9794 46.2674 10.9663 46.263 10.8316C46.263 10.7556 46.3108 10.66 46.3477 10.5318L46.363 10.5362L46.3477 10.5297L46.4716 10.1256H47.3536L47.5057 10.5753C47.5469 10.6969 47.5817 10.7969 47.5817 10.8534C47.5752 10.9685 47.4166 10.9772 47.3319 10.9794H47.308L47.3058 11.0619ZM46.5346 9.94745L46.8974 8.84386H46.9169H46.9278L47.2862 9.94745H46.5346ZM46.578 9.91486H47.2384L46.9104 8.90252L46.578 9.91486ZM49.3327 10.7078C49.3327 10.8599 49.4369 10.9033 49.5586 10.9207C49.7128 10.9316 49.8845 10.9316 50.0582 10.912C50.2168 10.8925 50.3537 10.8012 50.421 10.7078C50.4819 10.6252 50.5145 10.5188 50.5383 10.4362H50.647C50.6057 10.6513 50.5536 10.8642 50.5079 11.0793C50.1756 11.0793 49.8432 11.0641 49.5108 11.0641C49.1784 11.0641 48.846 11.0793 48.5137 11.0793V10.9641H48.5658C48.7027 10.9641 48.8504 10.9468 48.8504 10.7121V8.76783C48.8504 8.57014 48.7027 8.55276 48.5658 8.55276H48.5137V8.43979C48.7135 8.43979 48.9112 8.455 49.1111 8.455C49.3044 8.455 49.4934 8.43979 49.6868 8.43979V8.55276H49.5912C49.4478 8.55276 49.3348 8.5571 49.3348 8.75696V10.7078H49.3327Z" fill="#211E1F"/>
<path d="M50.5094 11.0951C50.177 11.0951 49.8424 11.0799 49.5122 11.0799C49.1798 11.0799 48.8475 11.0951 48.5129 11.0951H48.4977V10.9496H48.5672C48.7041 10.9474 48.8344 10.9365 48.8344 10.7128V8.76844C48.8322 8.58379 48.7041 8.57293 48.5672 8.56858H48.4977V8.42303H48.5129C48.7149 8.42303 48.9105 8.43824 49.1103 8.43824C49.3015 8.43824 49.4905 8.42303 49.686 8.42303H49.7012V8.56858H49.5904C49.4449 8.57293 49.3536 8.56641 49.3493 8.75758V10.7084C49.3493 10.8496 49.4427 10.8866 49.56 10.9039C49.6274 10.9083 49.6969 10.9126 49.7707 10.9126C49.8642 10.9126 49.9597 10.9083 50.0575 10.8974C50.2117 10.88 50.3443 10.791 50.4094 10.6997C50.4681 10.6193 50.5007 10.5151 50.5246 10.4325L50.5289 10.4195H50.6723L50.6679 10.439C50.6245 10.6563 50.5724 10.867 50.5267 11.0821L50.5246 11.0951H50.5094ZM50.4942 11.0625C50.5376 10.8583 50.5876 10.6563 50.6288 10.4521H50.5506C50.5267 10.5346 50.4942 10.6367 50.4333 10.7193C50.3638 10.817 50.2226 10.9105 50.0597 10.93C49.9597 10.9409 49.862 10.9452 49.7707 10.9452C49.6969 10.9452 49.6274 10.9409 49.5578 10.9365C49.434 10.9235 49.3145 10.8713 49.3167 10.7084V8.75758C49.3167 8.54686 49.4492 8.536 49.5904 8.536H49.6686V8.45562C49.4818 8.45562 49.2993 8.47082 49.1103 8.47082C48.9148 8.47082 48.7236 8.45779 48.5281 8.45562V8.536H48.565C48.6997 8.536 48.8648 8.55989 48.8648 8.76844V10.7128C48.8648 10.9582 48.6997 10.9821 48.565 10.9821H48.5281V11.0625C48.8561 11.0625 49.182 11.0473 49.51 11.0473C49.8403 11.0473 50.1683 11.0625 50.4942 11.0625ZM50.6028 8.33179C50.8309 8.33179 51.0003 8.50775 51.0003 8.73151C51.0003 8.95527 50.8309 9.12907 50.6028 9.12907C50.3747 9.12907 50.2052 8.95527 50.2052 8.73151C50.2052 8.50775 50.3747 8.33179 50.6028 8.33179ZM50.6028 9.05303C50.7809 9.05303 50.9178 8.90096 50.9178 8.72934C50.9178 8.55772 50.7831 8.40348 50.6028 8.40348C50.4246 8.40348 50.2878 8.55772 50.2878 8.72934C50.2878 8.90096 50.4246 9.05303 50.6028 9.05303ZM50.4051 8.94007V8.92051C50.455 8.914 50.4637 8.91617 50.4637 8.88576V8.59031C50.4637 8.54903 50.4594 8.53382 50.4073 8.536V8.51644H50.6115C50.681 8.51644 50.7462 8.54903 50.7462 8.62289C50.7462 8.68155 50.7071 8.725 50.6527 8.74238L50.7179 8.83362C50.7483 8.87489 50.7831 8.914 50.8048 8.92703V8.94007H50.7266C50.6897 8.94007 50.6571 8.86186 50.5832 8.75758H50.5398V8.8901C50.5398 8.91617 50.5485 8.914 50.5984 8.92051V8.94007H50.4051ZM50.5398 8.73151H50.5876C50.6397 8.73151 50.6636 8.69241 50.6636 8.62941C50.6636 8.56641 50.6267 8.54469 50.5854 8.54469H50.5419V8.73151H50.5398Z" fill="#211E1F"/>
</svg>
