<svg width="52" height="13" viewBox="0 0 52 13" fill="none" xmlns="http://www.w3.org/2000/svg">
<path fill-rule="evenodd" clip-rule="evenodd" d="M2.31269 0.180455H0V8.22984H2.28267C3.51437 8.22984 4.38517 7.9593 5.16617 7.2987C6.06728 6.54801 6.6378 5.40639 6.6378 4.205C6.6378 1.83255 4.86561 0.180455 2.31269 0.180455ZM4.14495 6.24745C3.63448 6.66812 3.00332 6.87832 1.98239 6.87832H1.56201V1.56201H1.98239C3.00332 1.56201 3.60416 1.74217 4.14495 2.19258C4.68544 2.67302 5.01603 3.42429 5.01603 4.205C5.01574 4.986 4.68544 5.76701 4.14495 6.24745ZM7.35875 8.23013H8.92047V0.180455H7.35875V8.23013ZM12.7649 3.27415C11.8037 2.91382 11.5334 2.70363 11.5334 2.25293C11.5334 1.74246 12.0439 1.38213 12.7048 1.38213C13.1852 1.38213 13.5759 1.5623 13.9662 2.01271L14.8073 0.96175C14.1164 0.360911 13.3056 0.0606379 12.4346 0.0606379C10.9929 0.0606379 9.91167 1.05183 9.91167 2.37333C9.91167 3.48464 10.4221 4.02542 11.8941 4.56591C12.5249 4.7761 12.8252 4.92624 12.9753 5.01633C13.3056 5.22681 13.4558 5.52679 13.4558 5.85738C13.4558 6.51828 12.9453 6.99872 12.2244 6.99872C11.5034 6.99872 10.8728 6.60836 10.5122 5.91744L9.52131 6.90863C10.2423 7.95959 11.1131 8.44032 12.3144 8.44032C13.9362 8.44032 15.0778 7.35905 15.0778 5.79733C15.0775 4.50557 14.5371 3.93475 12.7649 3.27415ZM15.5583 4.205C15.5583 6.57775 17.4206 8.41 19.823 8.41C20.4839 8.41 21.0845 8.2896 21.7754 7.9593V6.09702C21.1445 6.7276 20.604 6.99813 19.8831 6.99813C18.3214 6.99813 17.18 5.82677 17.18 4.20471C17.18 2.67302 18.3514 1.44161 19.823 1.44161C20.574 1.44161 21.1445 1.71185 21.7754 2.34272V0.510466C21.1145 0.149845 20.544 0 19.8531 0C17.4803 0.000291528 15.5583 1.8926 15.5583 4.205Z" fill="black"/>
<path fill-rule="evenodd" clip-rule="evenodd" d="M26.6701 0C24.297 0 22.3747 1.86228 22.3747 4.14466C22.3747 6.60778 24.2069 8.40971 26.6701 8.40971C29.0722 8.40971 30.9649 6.57746 30.9649 4.20471C30.9651 1.86228 29.1026 0 26.6701 0Z" fill="#DB8135"/>
<path fill-rule="evenodd" clip-rule="evenodd" d="M26.6701 0C24.297 0 22.3747 1.86228 22.3747 4.14466C22.3747 6.60778 24.2069 8.40971 26.6701 8.40971C29.0722 8.40971 30.9649 6.57746 30.9649 4.20471C30.9651 1.86228 29.1026 0 26.6701 0Z" fill="#DB8135"/>
<path fill-rule="evenodd" clip-rule="evenodd" d="M30.9649 4.20471C30.9649 1.86199 29.1023 0 26.6701 0C24.297 0 22.3747 1.86228 22.3747 4.14466C22.3747 6.60778 24.2069 8.40971 26.6701 8.40971C29.0722 8.40971 30.9649 6.57746 30.9649 4.20471Z" fill="#DB8135"/>
<path fill-rule="evenodd" clip-rule="evenodd" d="M30.9649 4.20471C30.9649 1.86199 29.1023 0 26.6701 0C24.297 0 22.3747 1.86228 22.3747 4.14466C22.3747 6.60778 24.2069 8.40971 26.6701 8.40971C29.0722 8.40971 30.9649 6.57746 30.9649 4.20471Z" fill="#DB8137"/>
<path fill-rule="evenodd" clip-rule="evenodd" d="M30.9649 4.20471C30.9649 1.86199 29.1023 0 26.6701 0C24.297 0 22.3747 1.86228 22.3747 4.14466C22.3747 6.60778 24.2069 8.40971 26.6701 8.40971C29.0722 8.40971 30.9649 6.57746 30.9649 4.20471Z" fill="#DC8337"/>
<path fill-rule="evenodd" clip-rule="evenodd" d="M30.9649 4.20471C30.9649 1.86199 29.1023 0 26.6701 0C24.297 0 22.3747 1.86228 22.3747 4.14466C22.3747 6.60778 24.2069 8.40971 26.6701 8.40971C29.0722 8.40971 30.9649 6.57746 30.9649 4.20471Z" fill="#DC8539"/>
<path fill-rule="evenodd" clip-rule="evenodd" d="M30.9649 4.20471C30.9649 1.86199 29.1023 0 26.6701 0C24.297 0 22.3747 1.86228 22.3747 4.14466C22.3747 6.60778 24.2069 8.40971 26.6701 8.40971C29.0722 8.40971 30.9649 6.57746 30.9649 4.20471Z" fill="#DC853A"/>
<path fill-rule="evenodd" clip-rule="evenodd" d="M30.9649 4.20471C30.9649 1.86199 29.1023 0 26.6701 0C24.297 0 22.3747 1.86228 22.3747 4.14466C22.3747 6.60778 24.2069 8.40971 26.6701 8.40971C29.0722 8.40971 30.9649 6.57746 30.9649 4.20471Z" fill="#DC853C"/>
<path fill-rule="evenodd" clip-rule="evenodd" d="M30.9649 4.20471C30.9649 1.86199 29.1023 0 26.6701 0C24.297 0 22.3747 1.86228 22.3747 4.14466C22.3747 6.60778 24.2069 8.40971 26.6701 8.40971C29.0722 8.40971 30.9649 6.57746 30.9649 4.20471Z" fill="#DD873E"/>
<path fill-rule="evenodd" clip-rule="evenodd" d="M30.9649 4.20471C30.9649 1.86199 29.1023 0 26.6701 0C24.297 0 22.3747 1.86228 22.3747 4.14466C22.3747 6.60778 24.2069 8.40971 26.6701 8.40971C29.0722 8.40971 30.9649 6.57746 30.9649 4.20471Z" fill="#DD873E"/>
<path fill-rule="evenodd" clip-rule="evenodd" d="M30.9649 4.20471C30.9649 1.86199 29.1023 0 26.6701 0C24.297 0 22.3747 1.86228 22.3747 4.14466C22.3747 6.60778 24.2069 8.40971 26.6701 8.40971C29.0722 8.40971 30.9649 6.57746 30.9649 4.20471Z" fill="#DD883F"/>
<path fill-rule="evenodd" clip-rule="evenodd" d="M30.9649 4.20471C30.9649 1.86199 29.1023 0 26.6701 0C24.297 0 22.3747 1.86228 22.3747 4.14466C22.3747 6.60778 24.2069 8.40971 26.6701 8.40971C29.0722 8.40971 30.9649 6.57746 30.9649 4.20471Z" fill="#DD8841"/>
<path fill-rule="evenodd" clip-rule="evenodd" d="M30.9649 4.20471C30.9649 1.86199 29.1023 0 26.6701 0C24.297 0 22.3747 1.86228 22.3747 4.14466C22.3747 6.60778 24.2069 8.40971 26.6701 8.40971C29.0722 8.40971 30.9649 6.57746 30.9649 4.20471Z" fill="#DE8A41"/>
<path fill-rule="evenodd" clip-rule="evenodd" d="M30.9649 4.20471C30.9649 1.86199 29.1023 0 26.6701 0C24.297 0 22.3747 1.86228 22.3747 4.14466C22.3747 6.60778 24.2069 8.40971 26.6701 8.40971C29.0722 8.40971 30.9649 6.57746 30.9649 4.20471Z" fill="#DE8A43"/>
<path fill-rule="evenodd" clip-rule="evenodd" d="M30.9649 4.20471C30.9649 1.86199 29.1023 0 26.6701 0C24.297 0 22.3747 1.86228 22.3747 4.14466C22.3747 6.60778 24.2069 8.40971 26.6701 8.40971C29.0722 8.40971 30.9649 6.57746 30.9649 4.20471Z" fill="#DE8A44"/>
<path fill-rule="evenodd" clip-rule="evenodd" d="M30.9649 4.20471C30.9649 1.86199 29.1023 0 26.6701 0C24.297 0 22.3747 1.86228 22.3747 4.14466C22.3747 6.60778 24.2069 8.40971 26.6701 8.40971C29.0722 8.40971 30.9649 6.57746 30.9649 4.20471Z" fill="#DE8C46"/>
<path fill-rule="evenodd" clip-rule="evenodd" d="M30.9668 4.205C30.9668 4.16856 30.9665 4.13212 30.9654 4.09568V4.09422C30.9646 4.05844 30.9632 4.02268 30.9613 3.98694V3.98402C30.9595 3.94901 30.9573 3.91403 30.9546 3.87907C30.9546 3.87762 30.9546 3.87616 30.954 3.8747C30.9516 3.84036 30.9488 3.80606 30.9456 3.77179C30.945 3.76975 30.945 3.768 30.945 3.76596C30.9415 3.73237 30.9376 3.69884 30.933 3.66538V3.66451C30.9289 3.6326 30.9246 3.60072 30.9199 3.56889C30.9193 3.56568 30.9187 3.56247 30.9187 3.55927C30.9135 3.52778 30.9085 3.49659 30.9027 3.4651L30.901 3.45461L30.8919 3.40359L30.88 3.34325L30.8738 3.31438C30.8686 3.28989 30.8636 3.26541 30.8578 3.24121C30.8555 3.22984 30.852 3.21876 30.8499 3.20739L30.8327 3.13917L30.8155 3.07504L30.8071 3.04356C30.801 3.02111 30.794 2.99895 30.7878 2.97679L30.7776 2.9421C30.2459 1.22704 28.6469 0 26.6723 0C24.9342 0 23.4384 0.999358 22.7621 2.43076C22.5116 2.9784 22.3804 3.57306 22.3773 4.17527C22.3805 4.69564 22.4659 5.18629 22.6213 5.63611L22.6347 5.67372L22.6405 5.68946C22.8063 6.13904 23.0462 6.55764 23.3504 6.92788C24.1229 7.84969 25.2995 8.40971 26.6723 8.40971C28.6241 8.40971 30.2389 7.20046 30.7765 5.47403L30.8039 5.38132C30.8823 5.10537 30.9326 4.82193 30.9543 4.53589L30.9549 4.5353C30.9572 4.49915 30.9601 4.46271 30.9616 4.42627C30.9652 4.35267 30.9667 4.27869 30.9668 4.205Z" fill="#DF8E47"/>
<path fill-rule="evenodd" clip-rule="evenodd" d="M30.9356 4.20471C30.9356 2.57099 30.0001 1.15678 28.6398 0.450119C28.0544 0.162089 27.3877 0 26.6708 0C25.7481 0 24.8948 0.281907 24.1949 0.75943C23.1142 1.52702 22.4055 2.78264 22.4055 4.20471C22.4055 5.76905 23.2631 7.14594 24.5301 7.88817C25.152 8.22313 25.8782 8.40971 26.6708 8.40971C27.6702 8.40971 28.5806 8.09253 29.3036 7.55204C30.2948 6.76841 30.9356 5.55653 30.9356 4.20471Z" fill="#DF8E48"/>
<path fill-rule="evenodd" clip-rule="evenodd" d="M26.6724 4.20471H30.8768C30.8768 1.89202 28.9848 0 26.6724 0C26.6359 0 26.6001 0.000582256 26.5642 0.00145684H26.5613C24.2996 0.0606371 22.4671 1.92933 22.4671 4.20471C22.466 5.08519 22.7392 5.94413 23.2488 6.66219C23.7583 7.38025 24.4789 7.92176 25.3103 8.21147C25.7342 8.34062 26.191 8.41 26.6721 8.41C27.2592 8.41 27.8154 8.3001 28.3215 8.1004C29.0812 7.7715 29.728 7.22736 30.1821 6.53512C30.6361 5.84288 30.8775 5.03285 30.8765 4.205L26.6724 4.20471Z" fill="#DF8E4A"/>
<path fill-rule="evenodd" clip-rule="evenodd" d="M30.8452 4.20448C30.8452 1.92182 28.9827 0.0295081 26.6706 0.0295081C24.3576 0.0295081 22.4953 1.92182 22.4953 4.20448C22.4941 4.75311 22.6013 5.29656 22.8107 5.80365C23.0201 6.31074 23.3276 6.77147 23.7156 7.1594C24.1035 7.54732 24.5643 7.8548 25.0714 8.06417C25.5785 8.27354 26.1219 8.38069 26.6706 8.37946C27.2191 8.38061 27.7625 8.27341 28.2696 8.064C28.7766 7.85459 29.2373 7.54711 29.6252 7.15919C30.0131 6.77127 30.3205 6.31057 30.5299 5.80352C30.7393 5.29647 30.8464 4.75306 30.8452 4.20448Z" fill="#DF904A"/>
<path fill-rule="evenodd" clip-rule="evenodd" d="M30.816 4.20473C30.816 1.92206 28.9534 0.0898066 26.6713 0.0898066C24.3883 0.0898066 22.5261 1.92206 22.5261 4.20473C22.5261 6.48768 24.3883 8.34967 26.6713 8.34967C28.9534 8.34967 30.816 6.48739 30.816 4.20473Z" fill="#E0914C"/>
<path fill-rule="evenodd" clip-rule="evenodd" d="M30.7864 4.2052C30.7864 1.95256 28.9244 0.120597 26.6721 0.120597C24.4191 0.120597 22.5569 1.95256 22.5569 4.2052C22.5569 6.48815 24.4191 8.32012 26.6721 8.32012C28.9247 8.32012 30.7864 6.48815 30.7864 4.2052Z" fill="#E0914E"/>
<path fill-rule="evenodd" clip-rule="evenodd" d="M30.7256 4.20497C30.7256 1.98236 28.9234 0.150105 26.671 0.150105C24.4181 0.150105 22.6159 1.98236 22.6159 4.20497C22.6159 6.45761 24.4181 8.28957 26.671 8.28957C28.9237 8.28957 30.7256 6.45761 30.7256 4.20497Z" fill="#DF924F"/>
<path fill-rule="evenodd" clip-rule="evenodd" d="M30.6963 4.20416C30.6963 1.98155 28.8941 0.179613 26.6718 0.179613C24.4489 0.179613 22.6467 1.98184 22.6467 4.20416C22.6467 6.42648 24.4489 8.229 26.6718 8.229C28.8941 8.229 30.6963 6.42648 30.6963 4.20416Z" fill="#E09351"/>
<path fill-rule="evenodd" clip-rule="evenodd" d="M30.6668 4.2044C30.6668 2.01182 28.8646 0.239912 26.6726 0.239912C24.4797 0.239912 22.6775 2.01182 22.6775 4.2044C22.6775 6.42701 24.4797 8.19922 26.6726 8.19922C28.8649 8.19922 30.6668 6.42701 30.6668 4.2044Z" fill="#E09552"/>
<path fill-rule="evenodd" clip-rule="evenodd" d="M30.6052 4.20517C30.6052 2.0429 28.8628 0.270703 26.6708 0.270703C24.4779 0.270703 22.7057 2.0429 22.7057 4.20517C22.7057 6.39775 24.4779 8.16966 26.6708 8.16966C28.8631 8.16966 30.6052 6.39775 30.6052 4.20517Z" fill="#E09554"/>
<path fill-rule="evenodd" clip-rule="evenodd" d="M30.5764 4.20466C30.5774 3.69165 30.4771 3.1835 30.2812 2.70936C30.0853 2.23522 29.7977 1.80441 29.435 1.44166C29.0722 1.07891 28.6414 0.791347 28.1673 0.59547C27.6932 0.399594 27.185 0.299259 26.672 0.300219C26.159 0.299182 25.6508 0.399463 25.1766 0.595308C24.7024 0.791153 24.2715 1.07871 23.9087 1.44147C23.5459 1.80424 23.2584 2.23507 23.0625 2.70924C22.8666 3.18342 22.7663 3.69161 22.7673 4.20466C22.7673 6.36721 24.5092 8.13941 26.672 8.13941C28.834 8.13941 30.5764 6.36721 30.5764 4.20466Z" fill="#E09555"/>
<path fill-rule="evenodd" clip-rule="evenodd" d="M30.5472 4.20541C30.5472 2.07288 28.8053 0.331002 26.673 0.331002C24.5402 0.331002 22.7981 2.07288 22.7981 4.20541C22.7981 6.36797 24.5402 8.08011 26.673 8.08011C27.1822 8.08134 27.6866 7.98196 28.1572 7.78766C28.6278 7.59337 29.0554 7.308 29.4154 6.94795C29.7754 6.58789 30.0607 6.16026 30.2549 5.68961C30.4492 5.21895 30.5485 4.71456 30.5472 4.20541Z" fill="#E19756"/>
<path fill-rule="evenodd" clip-rule="evenodd" d="M30.5151 4.20566C30.5151 2.10345 28.8035 0.3913 26.671 0.3913C24.5382 0.3913 22.8263 2.10345 22.8263 4.20566C22.8247 4.71097 22.9231 5.21162 23.1157 5.67877C23.3084 6.14592 23.5915 6.57037 23.9489 6.92767C24.3062 7.28497 24.7307 7.56808 25.1978 7.7607C25.665 7.95332 26.1657 8.05166 26.671 8.05004C27.1762 8.05158 27.6768 7.95319 28.1439 7.76053C28.611 7.56788 29.0354 7.28475 29.3927 6.92746C29.75 6.57017 30.0331 6.14575 30.2257 5.67863C30.4183 5.21152 30.5166 4.71092 30.5151 4.20566Z" fill="#E19757"/>
<path fill-rule="evenodd" clip-rule="evenodd" d="M30.4558 4.20385C30.4558 2.10164 28.7736 0.419525 26.6717 0.419525C24.5689 0.419525 22.8571 2.10164 22.8571 4.20385C22.8571 6.30635 24.5692 8.01821 26.6717 8.01821C28.7739 8.01821 30.4558 6.30606 30.4558 4.20385Z" fill="#E29959"/>
<path fill-rule="evenodd" clip-rule="evenodd" d="M30.4247 4.2059C30.4247 2.13342 28.7426 0.451599 26.6707 0.451599C24.5979 0.451599 22.9161 2.13342 22.9161 4.2059C22.9161 6.27837 24.5982 7.99023 26.6707 7.99023C28.7426 7.99023 30.4247 6.27837 30.4247 4.2059Z" fill="#E2995B"/>
<path fill-rule="evenodd" clip-rule="evenodd" d="M30.3951 4.20538C30.3951 2.16322 28.713 0.481107 26.6714 0.481107C24.6287 0.481107 22.9469 2.16322 22.9469 4.20538C22.9469 6.27785 24.629 7.92965 26.6714 7.92965C28.7133 7.92965 30.3951 6.27785 30.3951 4.20538Z" fill="#E29B5B"/>
<path fill-rule="evenodd" clip-rule="evenodd" d="M30.3664 4.20562C30.3664 2.1932 28.7141 0.541406 26.6722 0.541406C24.6295 0.541406 22.9777 2.1932 22.9777 4.20562C22.9777 6.24807 24.6298 7.89987 26.6722 7.89987C28.7141 7.89987 30.3664 6.24778 30.3664 4.20562Z" fill="#E29B5D"/>
<path fill-rule="evenodd" clip-rule="evenodd" d="M30.3051 4.20383C30.306 3.72634 30.2126 3.25338 30.0303 2.81206C29.848 2.37074 29.5804 1.96976 29.2428 1.63211C28.9052 1.29447 28.5042 1.0268 28.0629 0.844479C27.6216 0.662153 27.1486 0.568753 26.6712 0.569637C24.6585 0.569637 23.0367 2.19141 23.0367 4.20383C23.0367 6.21624 24.6585 7.86833 26.6712 7.86833C28.6833 7.86833 30.3051 6.21624 30.3051 4.20383Z" fill="#E39D5F"/>
<path fill-rule="evenodd" clip-rule="evenodd" d="M30.2755 4.20587C30.2755 2.22348 28.654 0.601705 26.6719 0.601705C24.6892 0.601705 23.0675 2.22348 23.0675 4.20587C23.0675 6.21829 24.6892 7.84006 26.6719 7.84006C28.654 7.84006 30.2755 6.21829 30.2755 4.20587Z" fill="#E39D61"/>
<path fill-rule="evenodd" clip-rule="evenodd" d="M30.2443 4.20406C30.2443 2.2517 28.6522 0.62993 26.6701 0.62993C24.6874 0.62993 23.0957 2.2517 23.0957 4.20406C23.0957 6.18645 24.6874 7.7782 26.6701 7.7782C28.6522 7.7782 30.2443 6.18645 30.2443 4.20406Z" fill="#E39F63"/>
<path fill-rule="evenodd" clip-rule="evenodd" d="M30.2147 4.20559C30.2147 2.25323 28.6227 0.691511 26.6709 0.691511C24.7182 0.691511 23.1265 2.25323 23.1265 4.20559C23.1265 6.15796 24.7182 7.74999 26.6709 7.74999C28.6227 7.74999 30.2147 6.15796 30.2147 4.20559Z" fill="#E39F63"/>
<path fill-rule="evenodd" clip-rule="evenodd" d="M30.1559 4.20507C30.1559 2.28303 28.5948 0.721019 26.6724 0.721019C24.7498 0.721019 23.1881 2.28273 23.1881 4.20507C23.1881 6.15743 24.7498 7.71915 26.6724 7.71915C28.5948 7.71915 30.1559 6.15743 30.1559 4.20507Z" fill="#E39F64"/>
<path fill-rule="evenodd" clip-rule="evenodd" d="M30.1246 4.20584C30.1246 2.31382 28.593 0.75181 26.6706 0.75181C24.748 0.75181 23.2163 2.31382 23.2163 4.20584C23.2163 6.12817 24.748 7.69018 26.6706 7.69018C28.593 7.69018 30.1246 6.12817 30.1246 4.20584Z" fill="#E4A166"/>
<path fill-rule="evenodd" clip-rule="evenodd" d="M30.0951 4.20531C30.0951 2.3133 28.5634 0.781318 26.6714 0.781318C24.7788 0.781318 23.2471 2.31301 23.2471 4.20531C23.2471 6.09762 24.7788 7.62961 26.6714 7.62961C28.5634 7.62961 30.0951 6.09762 30.0951 4.20531Z" fill="#E4A367"/>
<path fill-rule="evenodd" clip-rule="evenodd" d="M30.0658 4.20428C30.0658 2.34228 28.5341 0.840333 26.6721 0.840333C24.8096 0.840333 23.2779 2.34199 23.2779 4.20428C23.2779 6.09658 24.8096 7.59825 26.6721 7.59825C28.5341 7.59825 30.0658 6.09658 30.0658 4.20428Z" fill="#E4A369"/>
<path fill-rule="evenodd" clip-rule="evenodd" d="M30.005 4.20504C30.005 2.37308 28.5331 0.871124 26.6711 0.871124C24.8085 0.871124 23.3369 2.37308 23.3369 4.20504C23.3369 6.06732 24.8085 7.56898 26.6711 7.56898C28.5331 7.56898 30.005 6.06732 30.005 4.20504Z" fill="#E4A36A"/>
<path fill-rule="evenodd" clip-rule="evenodd" d="M29.9755 4.20582C29.9767 3.77163 29.8921 3.34147 29.7265 2.94009C29.5609 2.53871 29.3177 2.17401 29.0106 1.86698C28.7036 1.55994 28.339 1.31662 27.9376 1.151C27.5362 0.985384 27.1061 0.900737 26.6719 0.90193C26.2376 0.900622 25.8074 0.985185 25.4059 1.15075C25.0045 1.31632 24.6397 1.55963 24.3327 1.86668C24.0256 2.17373 23.7822 2.53847 23.6166 2.93991C23.451 3.34135 23.3664 3.77156 23.3677 4.20582C23.3677 6.03807 24.8393 7.53974 26.6719 7.53974C28.5036 7.53974 29.9755 6.03807 29.9755 4.20582Z" fill="#E5A56C"/>
<path fill-rule="evenodd" clip-rule="evenodd" d="M29.9436 4.20499C29.9436 2.40306 28.4717 0.931423 26.6701 0.931423C24.8675 0.931423 23.3959 2.40306 23.3959 4.20499C23.3959 6.00722 24.8675 7.47885 26.6701 7.47885C28.4717 7.47885 29.9436 6.00722 29.9436 4.20499Z" fill="#E5A56C"/>
<path fill-rule="evenodd" clip-rule="evenodd" d="M29.9141 4.20524C29.9141 2.43333 28.4427 0.991722 26.6708 0.991722C24.8983 0.991722 23.4267 2.43333 23.4267 4.20524C23.4267 6.00746 24.8983 7.44878 26.6708 7.44878C28.4427 7.44878 29.9141 6.00746 29.9141 4.20524Z" fill="#E5A76E"/>
<path fill-rule="evenodd" clip-rule="evenodd" d="M29.8556 4.20472C29.8556 2.46284 28.444 1.02123 26.6721 1.02123C24.8996 1.02123 23.4883 2.46284 23.4883 4.20472C23.4883 5.97692 24.8999 7.41852 26.6721 7.41852C28.444 7.41852 29.8556 5.97692 29.8556 4.20472Z" fill="#E5A770"/>
<path fill-rule="evenodd" clip-rule="evenodd" d="M29.8237 4.20548C29.8237 2.4636 28.4121 1.05202 26.6706 1.05202C24.9281 1.05202 23.5165 2.4636 23.5165 4.20548C23.5165 5.94765 24.9281 7.35923 26.6706 7.35923C28.4124 7.35923 29.8237 5.94765 29.8237 4.20548Z" fill="#E6A970"/>
<path fill-rule="evenodd" clip-rule="evenodd" d="M29.7945 4.20496C29.7945 2.49311 28.3829 1.08153 26.6713 1.08153C24.9589 1.08153 23.5473 2.49311 23.5473 4.20496C23.5473 5.94713 24.9589 7.32839 26.6713 7.32839C28.3829 7.32839 29.7945 5.94713 29.7945 4.20496Z" fill="#E6A972"/>
<path fill-rule="evenodd" clip-rule="evenodd" d="M29.7655 4.2052C29.7655 2.52338 28.3836 1.14183 26.6721 1.14183C24.9596 1.14183 23.5781 2.52338 23.5781 4.2052C23.5775 4.61166 23.6572 5.01424 23.8124 5.38986C23.9677 5.76548 24.1956 6.10677 24.483 6.39417C24.7705 6.68156 25.1118 6.90941 25.4874 7.06466C25.863 7.21992 26.2656 7.29951 26.6721 7.2989C27.0785 7.29944 27.481 7.21978 27.8566 7.0645C28.2322 6.90921 28.5734 6.68134 28.8608 6.39396C29.1481 6.10657 29.3759 5.76531 29.5312 5.38972C29.6864 5.01414 29.7661 4.61161 29.7655 4.2052Z" fill="#E6AB74"/>
<path fill-rule="evenodd" clip-rule="evenodd" d="M29.7041 4.2047C29.7052 3.80608 29.6275 3.41117 29.4754 3.04268C29.3234 2.67419 29.1 2.33938 28.8182 2.0575C28.5363 1.77561 28.2015 1.55221 27.833 1.40014C27.4646 1.24806 27.0697 1.17031 26.6711 1.17135C26.2724 1.17019 25.8774 1.24786 25.5088 1.39989C25.1402 1.55191 24.8053 1.77529 24.5234 2.05719C24.2414 2.33908 24.018 2.67393 23.8659 3.04248C23.7138 3.41103 23.636 3.806 23.6371 4.2047C23.6371 5.88682 24.9886 7.26837 26.6711 7.26837C28.3526 7.26837 29.7041 5.88682 29.7041 4.2047Z" fill="#E6AB75"/>
<path fill-rule="evenodd" clip-rule="evenodd" d="M29.6748 4.20416C29.6748 2.55207 28.3236 1.20084 26.6718 1.20084C25.0197 1.20084 23.6679 2.55237 23.6679 4.20416C23.6679 5.88628 25.0194 7.20778 26.6718 7.20778C27.0666 7.20913 27.4578 7.13235 27.8227 6.98188C28.1877 6.8314 28.5193 6.6102 28.7985 6.33101C29.0776 6.05183 29.2988 5.72017 29.4492 5.35515C29.5996 4.99013 29.6763 4.59895 29.6748 4.20416Z" fill="#E7AD77"/>
<path fill-rule="evenodd" clip-rule="evenodd" d="M29.6433 4.20493C29.6433 2.58316 28.3218 1.23163 26.67 1.23163C25.0179 1.23163 23.6961 2.58316 23.6961 4.20493C23.6961 5.85702 25.0176 7.17852 26.67 7.17852C27.0609 7.18014 27.4483 7.10433 27.8098 6.95546C28.1713 6.80659 28.4997 6.58762 28.7762 6.31117C29.0526 6.03472 29.2715 5.70627 29.4204 5.34476C29.5692 4.98326 29.645 4.59587 29.6433 4.20493Z" fill="#E7AD77"/>
<path fill-rule="evenodd" clip-rule="evenodd" d="M29.614 4.20546C29.614 2.58369 28.2925 1.29193 26.6708 1.29193C25.0487 1.29193 23.7269 2.58369 23.7269 4.20546C23.7269 5.82753 25.0484 7.14902 26.6708 7.14902C28.2922 7.14902 29.614 5.82753 29.614 4.20546Z" fill="#E8AF79"/>
<path fill-rule="evenodd" clip-rule="evenodd" d="M29.5526 4.20465C29.5526 2.61291 28.2612 1.32144 26.6697 1.32144C25.0777 1.32144 23.7859 2.61291 23.7859 4.20465C23.7859 5.82672 25.0774 7.11819 26.6697 7.11819C28.2612 7.11819 29.5526 5.82672 29.5526 4.20465Z" fill="#E8AF7B"/>
<path fill-rule="evenodd" clip-rule="evenodd" d="M29.5237 4.20442C29.5237 2.64271 28.2619 1.35095 26.6705 1.35095C25.0785 1.35095 23.8167 2.64271 23.8167 4.20442C23.8167 5.79617 25.0782 7.0579 26.6705 7.0579C28.2619 7.0579 29.5237 5.79646 29.5237 4.20442Z" fill="#E8B17B"/>
<path fill-rule="evenodd" clip-rule="evenodd" d="M29.4944 4.2049C29.4948 3.83405 29.422 3.46677 29.2803 3.12407C29.1386 2.78138 28.9306 2.47 28.6684 2.20777C28.4062 1.94554 28.0948 1.7376 27.7521 1.59586C27.4094 1.45412 27.0421 1.38136 26.6713 1.38174C26.3004 1.38128 25.933 1.45399 25.5902 1.59569C25.2475 1.7374 24.936 1.94532 24.6737 2.20756C24.4115 2.4698 24.2035 2.7812 24.0617 3.12394C23.9199 3.46667 23.8471 3.834 23.8475 4.2049C23.8471 4.57582 23.9198 4.94319 24.0616 5.28596C24.2034 5.62872 24.4113 5.94016 24.6736 6.20243C24.9359 6.4647 25.2474 6.67265 25.5902 6.81437C25.933 6.9561 26.3003 7.02881 26.6713 7.02835C27.0421 7.0287 27.4094 6.9559 27.7521 6.81413C28.0948 6.67235 28.4062 6.46439 28.6684 6.20213C28.9306 5.93988 29.1386 5.62849 29.2803 5.28578C29.422 4.94306 29.4948 4.57576 29.4944 4.2049Z" fill="#E8B17D"/>
<path fill-rule="evenodd" clip-rule="evenodd" d="M29.4649 4.20514C29.4649 2.67345 28.2037 1.44204 26.672 1.44204C25.14 1.44204 23.8783 2.67345 23.8783 4.20514C23.8783 5.73683 25.1397 6.99856 26.672 6.99856C28.2037 6.99856 29.4649 5.73712 29.4649 4.20514Z" fill="#E8B17E"/>
<path fill-rule="evenodd" clip-rule="evenodd" d="M29.4063 4.20464C29.4063 2.70298 28.1746 1.47156 26.6733 1.47156C26.314 1.47033 25.958 1.54018 25.6259 1.67709C25.2937 1.814 24.9919 2.01527 24.7378 2.2693C24.4838 2.52333 24.2825 2.82511 24.1455 3.15726C24.0086 3.48941 23.9387 3.84537 23.9399 4.20464C23.9399 5.73633 25.1413 6.96774 26.6733 6.96774C28.1746 6.96774 29.4063 5.73633 29.4063 4.20464Z" fill="#E9B381"/>
<path fill-rule="evenodd" clip-rule="evenodd" d="M29.3742 4.20413C29.3757 3.84876 29.3069 3.49661 29.1716 3.16801C29.0363 2.8394 28.8373 2.54083 28.586 2.28953C28.3347 2.03823 28.0362 1.83918 27.7076 1.70385C27.379 1.56853 27.0268 1.49961 26.6715 1.50108C26.3161 1.49957 25.9639 1.56846 25.6352 1.70377C25.3066 1.83907 25.008 2.03811 24.7567 2.28941C24.5053 2.54071 24.3063 2.83928 24.1709 3.16791C24.0356 3.49654 23.9667 3.84872 23.9681 4.20413C23.9667 4.55954 24.0356 4.91174 24.1709 5.24038C24.3063 5.56903 24.5053 5.86762 24.7567 6.11895C25.008 6.37027 25.3066 6.56934 25.6352 6.70467C25.9639 6.84001 26.3161 6.90893 26.6715 6.90747C27.0269 6.90889 27.379 6.83994 27.7076 6.70458C28.0362 6.56923 28.3347 6.37014 28.586 6.11882C28.8373 5.8675 29.0363 5.56892 29.1716 5.24029C29.3069 4.91167 29.3757 4.55951 29.3742 4.20413Z" fill="#E9B381"/>
<path fill-rule="evenodd" clip-rule="evenodd" d="M29.3424 4.20487C29.3424 2.73323 28.141 1.53184 26.6696 1.53184C25.1977 1.53184 23.9963 2.73323 23.9963 4.20487C23.9963 5.6765 25.1977 6.87789 26.6696 6.87789C28.141 6.87789 29.3424 5.6765 29.3424 4.20487Z" fill="#E9B583"/>
<path fill-rule="evenodd" clip-rule="evenodd" d="M29.3134 4.20511C29.3134 2.7635 28.1114 1.59214 26.6704 1.59214C25.2285 1.59214 24.0271 2.7635 24.0271 4.20511C24.0271 5.67674 25.2285 6.8481 26.6704 6.8481C28.1114 6.8481 29.3134 5.67674 29.3134 4.20511Z" fill="#E9B584"/>
<path fill-rule="evenodd" clip-rule="evenodd" d="M29.252 4.20587C29.252 2.79429 28.1104 1.62293 26.6694 1.62293C25.2275 1.62293 24.0861 2.79429 24.0861 4.20587C24.0861 5.64748 25.2275 6.81884 26.6694 6.81884C28.1104 6.81884 29.252 5.64748 29.252 4.20587Z" fill="#EAB786"/>
<path fill-rule="evenodd" clip-rule="evenodd" d="M29.2228 4.20407C29.2231 3.86876 29.1572 3.53667 29.0291 3.22682C28.9009 2.91697 28.7129 2.63543 28.4758 2.39831C28.2387 2.16119 27.9572 1.97315 27.6474 1.84495C27.3375 1.71674 27.0054 1.65089 26.6701 1.65116C25.2583 1.65116 24.1169 2.79249 24.1169 4.20407C24.1169 5.61565 25.2583 6.75698 26.6701 6.75698C27.0054 6.75725 27.3375 6.6914 27.6474 6.5632C27.9572 6.43499 28.2387 6.24695 28.4758 6.00983C28.7129 5.77272 28.9009 5.49118 29.0291 5.18132C29.1572 4.87147 29.2231 4.53939 29.2228 4.20407Z" fill="#EAB788"/>
<path fill-rule="evenodd" clip-rule="evenodd" d="M29.1958 4.20612C29.1958 2.82457 28.0547 1.68323 26.6735 1.68323C25.2916 1.68323 24.1503 2.82457 24.1503 4.20612C24.1503 5.6177 25.2916 6.729 26.6735 6.729C28.0547 6.729 29.1958 5.6177 29.1958 4.20612Z" fill="#EBB989"/>
<path fill-rule="evenodd" clip-rule="evenodd" d="M29.162 4.20508C29.162 2.85355 28.0507 1.74225 26.6691 1.74225C25.2873 1.74225 24.176 2.85355 24.176 4.20508C24.1751 4.5327 24.2391 4.85724 24.3641 5.16008C24.4891 5.46291 24.6727 5.73805 24.9044 5.9697C25.1361 6.20135 25.4112 6.38493 25.7141 6.50991C26.0169 6.63488 26.3415 6.69878 26.6691 6.69794C26.9967 6.69874 27.3212 6.63482 27.624 6.50982C27.9268 6.38483 28.202 6.20124 28.4336 5.9696C28.6653 5.73795 28.8489 5.46282 28.9738 5.16001C29.0988 4.8572 29.1628 4.53267 29.162 4.20508Z" fill="#EBB98A"/>
<path fill-rule="evenodd" clip-rule="evenodd" d="M29.1057 4.20586C29.107 3.88603 29.0451 3.56909 28.9233 3.27334C28.8015 2.97759 28.6224 2.70888 28.3963 2.4827C28.1701 2.25653 27.9014 2.07738 27.6057 1.95558C27.31 1.83378 26.993 1.77175 26.6732 1.77306C25.3214 1.77306 24.2401 2.85404 24.2401 4.20586C24.2401 5.55768 25.3214 6.66898 26.6732 6.66898C28.0244 6.66898 29.1057 5.55768 29.1057 4.20586Z" fill="#EBBB8C"/>
<path fill-rule="evenodd" clip-rule="evenodd" d="M29.0736 4.20404C29.0736 2.88254 27.9929 1.80126 26.6714 1.80126C25.3496 1.80126 24.2683 2.88225 24.2683 4.20404C24.2683 5.55556 25.3496 6.60711 26.6714 6.60711C27.9929 6.60711 29.0736 5.55586 29.0736 4.20404Z" fill="#EBBB8C"/>
<path fill-rule="evenodd" clip-rule="evenodd" d="M29.0424 4.20609C29.0424 2.91462 27.9914 1.83334 26.6696 1.83334C25.3478 1.83334 24.2966 2.91433 24.2966 4.20609C24.2947 4.51822 24.3548 4.82763 24.4734 5.11636C24.5921 5.40509 24.7668 5.66741 24.9875 5.88812C25.2082 6.10882 25.4706 6.28352 25.7593 6.40209C26.0481 6.52065 26.3575 6.58073 26.6696 6.57883C26.9818 6.58073 27.2911 6.52065 27.5799 6.40208C27.8686 6.28351 28.1309 6.10881 28.3516 5.8881C28.5724 5.66739 28.7471 5.40507 28.8656 5.11634C28.9842 4.82761 29.0443 4.51821 29.0424 4.20609Z" fill="#ECBD8F"/>
<path fill-rule="evenodd" clip-rule="evenodd" d="M29.0128 4.20505C29.0128 2.91358 27.9618 1.89235 26.6703 1.89235C25.3786 1.89235 24.3273 2.91329 24.3273 4.20505C24.3273 5.49681 25.3786 6.54806 26.6703 6.54806C27.9618 6.54806 29.0128 5.49681 29.0128 4.20505Z" fill="#ECBD90"/>
<path fill-rule="evenodd" clip-rule="evenodd" d="M28.954 4.20453C28.9541 3.90477 28.8952 3.60792 28.7806 3.33094C28.6659 3.05397 28.4979 2.80229 28.2859 2.5903C28.074 2.37831 27.8224 2.21017 27.5454 2.09548C27.2685 1.98078 26.9716 1.92179 26.6719 1.92186C26.3721 1.92171 26.0751 1.98065 25.7981 2.0953C25.5211 2.20996 25.2694 2.37809 25.0573 2.59008C24.8453 2.80207 24.6772 3.05377 24.5625 3.33078C24.4478 3.6078 24.3888 3.90471 24.3889 4.20453C24.3889 5.46597 25.4101 6.51722 26.6719 6.51722C27.933 6.51722 28.954 5.46597 28.954 4.20453Z" fill="#ECBF93"/>
<path fill-rule="evenodd" clip-rule="evenodd" d="M28.9227 4.20529C28.9227 2.97388 27.9012 1.95265 26.6701 1.95265C25.4083 1.95265 24.4171 2.97388 24.4171 4.20529C24.4171 5.46673 25.4083 6.45793 26.6701 6.45793C27.9012 6.45793 28.9227 5.46673 28.9227 4.20529Z" fill="#ECBF93"/>
<path fill-rule="evenodd" clip-rule="evenodd" d="M28.8957 4.20605C28.8957 2.97464 27.9045 1.98344 26.6734 1.98344C25.4417 1.98344 24.4505 2.97435 24.4505 4.20605C24.4505 5.43776 25.4417 6.42867 26.6734 6.42867C26.9654 6.42932 27.2548 6.37228 27.5247 6.26081C27.7946 6.14934 28.0399 5.98564 28.2464 5.77912C28.4529 5.57259 28.6165 5.32732 28.728 5.05736C28.8394 4.78741 28.8964 4.4981 28.8957 4.20605Z" fill="#EDC195"/>
<path fill-rule="evenodd" clip-rule="evenodd" d="M28.8639 4.20472C28.8639 3.00334 27.8733 2.04246 26.6716 2.04246C25.4699 2.04246 24.4787 3.00363 24.4787 4.20472C24.4787 5.40611 25.4699 6.39731 26.6716 6.39731C27.873 6.39731 28.8639 5.40611 28.8639 4.20472Z" fill="#EDC196"/>
<path fill-rule="evenodd" clip-rule="evenodd" d="M28.8028 4.20449C28.8028 3.03313 27.8416 2.07197 26.6706 2.07197C25.4989 2.07197 24.5377 3.03313 24.5377 4.20449C24.5377 5.40588 25.4989 6.36705 26.6706 6.36705C27.8419 6.36705 28.8028 5.40588 28.8028 4.20449Z" fill="#EEC397"/>
<path fill-rule="evenodd" clip-rule="evenodd" d="M28.7736 4.20497C28.7736 3.06363 27.8427 2.10276 26.6714 2.10276C25.4997 2.10276 24.5686 3.06393 24.5686 4.20497C24.5669 4.48157 24.6201 4.75576 24.7252 5.01164C24.8302 5.26751 24.9851 5.49998 25.1807 5.69556C25.3763 5.89114 25.6088 6.04594 25.8647 6.15098C26.1206 6.25602 26.3948 6.30921 26.6714 6.30747C26.9479 6.30917 27.2221 6.25595 27.4779 6.15089C27.7338 6.04583 27.9662 5.89102 28.1618 5.69544C28.3573 5.49986 28.5121 5.2674 28.6171 5.01155C28.7221 4.7557 28.7753 4.48153 28.7736 4.20497Z" fill="#EEC399"/>
<path fill-rule="evenodd" clip-rule="evenodd" d="M28.744 4.20474C28.744 3.06341 27.8131 2.13227 26.6721 2.13227C25.5305 2.13227 24.5993 3.06341 24.5993 4.20474C24.5993 5.34636 25.5305 6.27721 26.6721 6.27721C27.8131 6.27721 28.744 5.34636 28.744 4.20474Z" fill="#EEC59B"/>
<path fill-rule="evenodd" clip-rule="evenodd" d="M28.7121 4.20498C28.7121 3.09368 27.7813 2.19256 26.6703 2.19256C25.5587 2.19256 24.6275 3.09368 24.6275 4.20498C24.6275 5.34661 25.5587 6.24743 26.6703 6.24743C27.7813 6.24743 28.7121 5.34661 28.7121 4.20498Z" fill="#EEC69D"/>
<path fill-rule="evenodd" clip-rule="evenodd" d="M28.6539 4.20575C28.6539 3.12476 27.7828 2.22336 26.6718 2.22336C25.5602 2.22336 24.6891 3.12447 24.6891 4.20575C24.6891 5.31705 25.5602 6.21816 26.6718 6.21816C27.7828 6.21816 28.6539 5.31705 28.6539 4.20575Z" fill="#EEC69F"/>
<path fill-rule="evenodd" clip-rule="evenodd" d="M28.6244 4.20523C28.6249 3.94875 28.5747 3.6947 28.4768 3.45764C28.3789 3.22058 28.2352 3.00518 28.0538 2.8238C27.8725 2.64241 27.6572 2.49861 27.4201 2.40063C27.1831 2.30266 26.9291 2.25245 26.6726 2.25287C26.416 2.25233 26.1619 2.30246 25.9248 2.40038C25.6876 2.4983 25.4722 2.64209 25.2907 2.82348C25.1093 3.00488 24.9655 3.22032 24.8675 3.45744C24.7696 3.69455 24.7194 3.94868 24.7199 4.20523C24.7194 4.46178 24.7696 4.71591 24.8675 4.95303C24.9655 5.19015 25.1093 5.40558 25.2907 5.58698C25.4722 5.76838 25.6876 5.91216 25.9248 6.01008C26.1619 6.108 26.416 6.15814 26.6726 6.1576C26.9291 6.15806 27.1831 6.10787 27.4202 6.00991C27.6572 5.91195 27.8726 5.76815 28.0539 5.58675C28.2353 5.40536 28.379 5.18995 28.4769 4.95287C28.5748 4.71579 28.6249 4.46172 28.6244 4.20523Z" fill="#EFC89F"/>
<path fill-rule="evenodd" clip-rule="evenodd" d="M28.5931 4.20442C28.5931 3.15346 27.722 2.28237 26.6708 2.28237C25.6192 2.28237 24.7482 3.15346 24.7482 4.20442C24.7474 4.4571 24.7966 4.70744 24.8929 4.94104C24.9893 5.17464 25.1309 5.38687 25.3096 5.56553C25.4883 5.7442 25.7005 5.88576 25.9341 5.98208C26.1677 6.07839 26.4181 6.12756 26.6708 6.12675C26.9234 6.12752 27.1738 6.07833 27.4073 5.98199C27.6409 5.88566 27.8531 5.74409 28.0318 5.56543C28.2105 5.38677 28.352 5.17455 28.4484 4.94097C28.5447 4.7074 28.5939 4.45708 28.5931 4.20442Z" fill="#EFC8A1"/>
<path fill-rule="evenodd" clip-rule="evenodd" d="M28.5636 4.20466C28.5636 3.18373 27.7225 2.34267 26.6716 2.34267C25.62 2.34267 24.779 3.18373 24.779 4.20466C24.7779 4.45348 24.8262 4.70004 24.9209 4.93012C25.0156 5.16019 25.155 5.36922 25.331 5.54515C25.5069 5.72108 25.716 5.86042 25.9461 5.95513C26.1762 6.04984 26.4227 6.09805 26.6716 6.09697C26.9203 6.09797 27.1668 6.04971 27.3968 5.95496C27.6269 5.86022 27.8359 5.72087 28.0118 5.54494C28.1876 5.36902 28.327 5.16002 28.4217 4.92998C28.5164 4.69994 28.5646 4.45343 28.5636 4.20466Z" fill="#EFCAA3"/>
<path fill-rule="evenodd" clip-rule="evenodd" d="M28.5022 4.20546C28.5038 3.96447 28.4575 3.72556 28.366 3.50259C28.2745 3.27963 28.1397 3.07706 27.9693 2.90663C27.7989 2.73621 27.5963 2.60132 27.3734 2.5098C27.1504 2.41828 26.9115 2.37195 26.6705 2.3735C26.4295 2.37191 26.1905 2.41821 25.9675 2.50971C25.7445 2.6012 25.5419 2.73607 25.3714 2.9065C25.2009 3.07692 25.066 3.2795 24.9744 3.50248C24.8829 3.72547 24.8365 3.96441 24.838 4.20546C24.838 5.22669 25.649 6.06774 26.6705 6.06774C27.6915 6.06774 28.5022 5.22698 28.5022 4.20546Z" fill="#EFCAA3"/>
<path fill-rule="evenodd" clip-rule="evenodd" d="M28.4729 4.2049C28.4729 3.21371 27.6622 2.40297 26.6713 2.40297C25.6798 2.40297 24.8687 3.21371 24.8687 4.2049C24.8687 5.1961 25.6798 6.00713 26.6713 6.00713C27.6619 6.00713 28.4729 5.1961 28.4729 4.2049Z" fill="#F0CCA6"/>
<path fill-rule="evenodd" clip-rule="evenodd" d="M28.4439 4.20438C28.4439 3.24351 27.6326 2.43248 26.672 2.43248C25.6805 2.43248 24.8995 3.24351 24.8995 4.20438C24.8995 5.19558 25.6805 5.97658 26.672 5.97658C27.6326 5.97658 28.4439 5.19558 28.4439 4.20438Z" fill="#F0CCA8"/>
<path fill-rule="evenodd" clip-rule="evenodd" d="M28.4147 4.20463C28.4147 3.24375 27.6334 2.49278 26.6728 2.49278C25.7116 2.49278 24.9303 3.24375 24.9303 4.20463C24.9306 4.66664 25.1143 5.10963 25.441 5.43629C25.7678 5.76295 26.2108 5.94657 26.6728 5.9468C27.1347 5.94642 27.5776 5.76273 27.9042 5.43609C28.2308 5.10944 28.4144 4.66653 28.4147 4.20463Z" fill="#F1CEAA"/>
<path fill-rule="evenodd" clip-rule="evenodd" d="M28.3533 4.20539C28.3537 3.98444 28.3105 3.76558 28.2262 3.56136C28.1418 3.35714 28.018 3.17158 27.8617 3.01533C27.7055 2.85907 27.52 2.7352 27.3158 2.65081C27.1116 2.56643 26.8927 2.52319 26.6717 2.52357C25.7403 2.52357 24.9893 3.27425 24.9893 4.20539C24.9893 5.13654 25.7403 5.91754 26.6717 5.91754C27.6026 5.91754 28.3533 5.13654 28.3533 4.20539Z" fill="#F1CEAA"/>
<path fill-rule="evenodd" clip-rule="evenodd" d="M28.324 4.20516C28.324 3.30434 27.5731 2.55307 26.6722 2.55307C25.7708 2.55307 25.0201 3.30405 25.0201 4.20516C25.0195 4.4223 25.0618 4.63743 25.1446 4.83817C25.2274 5.0389 25.349 5.22129 25.5026 5.37483C25.6561 5.52837 25.8385 5.65004 26.0392 5.73283C26.24 5.81562 26.4551 5.85791 26.6722 5.85725C26.8893 5.85787 27.1044 5.81556 27.3051 5.73275C27.5058 5.64994 27.6882 5.52826 27.8417 5.37472C27.9952 5.22119 28.1169 5.03882 28.1996 4.8381C28.2824 4.63738 28.3247 4.42228 28.324 4.20516Z" fill="#F1D0AD"/>
<path fill-rule="evenodd" clip-rule="evenodd" d="M28.2945 4.20564C28.2945 3.33455 27.5735 2.58387 26.673 2.58387C25.7716 2.58387 25.0509 3.33455 25.0509 4.20564C25.05 4.41891 25.0913 4.63025 25.1725 4.82747C25.2537 5.02468 25.3732 5.20387 25.524 5.35467C25.6748 5.50548 25.8539 5.62492 26.0512 5.70611C26.2484 5.7873 26.4597 5.82862 26.673 5.8277C26.8862 5.82855 27.0975 5.78717 27.2946 5.70594C27.4918 5.62472 27.6709 5.50526 27.8217 5.35446C27.9724 5.20366 28.0918 5.02451 28.1729 4.82733C28.2541 4.63015 28.2954 4.41886 28.2945 4.20564Z" fill="#F1D0AE"/>
<path fill-rule="evenodd" clip-rule="evenodd" d="M28.2626 4.2046C28.2626 3.33351 27.5417 2.64288 26.6712 2.64288C25.8001 2.64288 25.0791 3.33351 25.0791 4.2046C25.0791 5.07568 25.8001 5.79634 26.6712 5.79634C27.5417 5.79634 28.2626 5.07539 28.2626 4.2046Z" fill="#F2D2B1"/>
<path fill-rule="evenodd" clip-rule="evenodd" d="M28.2044 4.20408C28.2044 3.36331 27.5132 2.67239 26.6727 2.67239C25.8316 2.67239 25.1407 3.36331 25.1407 4.20408C25.1407 5.07516 25.8319 5.76579 26.6727 5.76579C27.5132 5.76579 28.2044 5.07487 28.2044 4.20408Z" fill="#F2D2B3"/>
<path fill-rule="evenodd" clip-rule="evenodd" d="M28.1723 4.20484C28.1723 3.39381 27.5111 2.70318 26.6709 2.70318C25.8298 2.70318 25.169 3.39381 25.169 4.20484C25.169 5.0459 25.8301 5.7065 26.6709 5.7065C27.5114 5.7065 28.1723 5.04561 28.1723 4.20484Z" fill="#F3D4B4"/>
<path fill-rule="evenodd" clip-rule="evenodd" d="M28.143 4.20432C28.1425 3.81424 27.9873 3.44028 27.7115 3.16442C27.4357 2.88856 27.0618 2.7333 26.6717 2.73269C25.8603 2.73269 25.1997 3.39358 25.1997 4.20432C25.1997 5.01506 25.8603 5.67596 26.6717 5.67596C27.0617 5.67526 27.4356 5.51998 27.7114 5.24414C27.9872 4.9683 28.1424 4.59438 28.143 4.20432Z" fill="#F3D4B5"/>
<path fill-rule="evenodd" clip-rule="evenodd" d="M28.1135 4.20585C28.1135 3.42514 27.4529 2.79427 26.6724 2.79427C25.8911 2.79427 25.2305 3.42514 25.2305 4.20585C25.2305 5.01688 25.8914 5.64745 26.6724 5.64745C27.4531 5.64745 28.1135 5.01659 28.1135 4.20585Z" fill="#F3D4B7"/>
<path fill-rule="evenodd" clip-rule="evenodd" d="M28.0527 4.20405C28.0532 4.02251 28.0178 3.84266 27.9485 3.67483C27.8793 3.50701 27.7776 3.35452 27.6492 3.22614C27.5209 3.09775 27.3684 2.996 27.2006 2.92673C27.0328 2.85746 26.8529 2.82204 26.6714 2.8225C26.4898 2.82196 26.3099 2.85733 26.142 2.92656C25.9741 2.9958 25.8216 3.09754 25.6932 3.22593C25.5648 3.35432 25.463 3.50683 25.3937 3.6747C25.3245 3.84256 25.2891 4.02246 25.2896 4.20405C25.2896 4.98506 25.8904 5.61563 26.6714 5.61563C27.4521 5.61563 28.0527 4.98476 28.0527 4.20405Z" fill="#F3D6B8"/>
<path fill-rule="evenodd" clip-rule="evenodd" d="M28.0234 4.2061C28.0241 4.02844 27.9897 3.85238 27.922 3.6881C27.8544 3.52381 27.7549 3.37454 27.6293 3.2489C27.5037 3.12326 27.3544 3.02373 27.1901 2.95605C27.0259 2.88837 26.8498 2.85388 26.6722 2.85458C25.9212 2.85458 25.3203 3.45542 25.3203 4.2061C25.3203 4.95679 25.9212 5.55763 26.6722 5.55763C26.8498 5.55832 27.0259 5.52384 27.1901 5.45616C27.3544 5.38848 27.5037 5.28895 27.6293 5.16331C27.7549 5.03766 27.8544 4.88839 27.922 4.72411C27.9897 4.55982 28.0241 4.38377 28.0234 4.2061Z" fill="#F4D8BA"/>
<path fill-rule="evenodd" clip-rule="evenodd" d="M27.9918 4.20429C27.9918 3.48334 27.391 2.88279 26.6704 2.88279C25.9497 2.88279 25.3486 3.48363 25.3486 4.20429C25.3486 4.95527 25.9497 5.52579 26.6704 5.52579C27.391 5.52579 27.9918 4.95497 27.9918 4.20429Z" fill="#F4D9BC"/>
<path fill-rule="evenodd" clip-rule="evenodd" d="M27.9626 4.20453C27.9626 3.51361 27.3921 2.94309 26.6711 2.94309C25.9502 2.94309 25.3794 3.51361 25.3794 4.20453C25.3794 4.92548 25.9502 5.496 26.6711 5.496C27.3921 5.496 27.9626 4.92519 27.9626 4.20453Z" fill="#F4D9BE"/>
<path fill-rule="evenodd" clip-rule="evenodd" d="M27.9038 4.20401C27.9038 3.51309 27.3633 2.9726 26.6726 2.9726C25.9814 2.9726 25.4409 3.51309 25.4409 4.20401C25.4409 4.89494 25.9814 5.46546 26.6726 5.46546C27.3633 5.46546 27.9038 4.89464 27.9038 4.20401Z" fill="#F4DBBF"/>
<path fill-rule="evenodd" clip-rule="evenodd" d="M27.8722 4.20606C27.8713 3.88772 27.7444 3.58268 27.5193 3.35757C27.2942 3.13247 26.9892 3.0056 26.6708 3.00467C26.0097 3.00467 25.4692 3.54517 25.4692 4.20606C25.4692 4.86695 26.0097 5.40745 26.6708 5.40745C26.9892 5.40652 27.2942 5.27965 27.5193 5.05455C27.7444 4.82945 27.8713 4.5244 27.8722 4.20606Z" fill="#F4DBC0"/>
<path fill-rule="evenodd" clip-rule="evenodd" d="M27.843 4.20426C27.843 3.57339 27.3022 3.0329 26.6716 3.0329C26.0407 3.0329 25.5 3.57339 25.5 4.20426C25.5 4.86515 26.0407 5.37562 26.6716 5.37562C27.3019 5.37562 27.843 4.86515 27.843 4.20426Z" fill="#F5DDC3"/>
<path fill-rule="evenodd" clip-rule="evenodd" d="M27.8134 4.2045C27.8134 3.60366 27.3027 3.0932 26.6724 3.0932C26.0415 3.0932 25.5307 3.60366 25.5307 4.2045C25.5307 4.5072 25.651 4.79751 25.865 5.01155C26.0791 5.22559 26.3694 5.34583 26.6721 5.34583C26.9748 5.34583 27.2651 5.22559 27.4791 5.01155C27.6932 4.79751 27.8134 4.5072 27.8134 4.2045Z" fill="#F5DDC3"/>
<path fill-rule="evenodd" clip-rule="evenodd" d="M27.752 4.20497C27.752 3.60414 27.2722 3.12399 26.6713 3.12399C26.0705 3.12399 25.5898 3.60443 25.5898 4.20497C25.5898 4.80552 26.0705 5.31628 26.6713 5.31628C27.2722 5.31628 27.752 4.80581 27.752 4.20497Z" fill="#F6DFC6"/>
<path fill-rule="evenodd" clip-rule="evenodd" d="M27.7231 4.20574C27.7231 3.63492 27.2426 3.15478 26.6721 3.15478C26.101 3.15478 25.6206 3.63522 25.6206 4.20574C25.6206 4.80658 26.101 5.25699 26.6721 5.25699C27.2426 5.25699 27.7231 4.80658 27.7231 4.20574Z" fill="#F6DFC7"/>
<path fill-rule="evenodd" clip-rule="evenodd" d="M27.6913 4.20522C27.6913 3.66472 27.2408 3.18429 26.6703 3.18429C26.0992 3.18429 25.6488 3.66472 25.6488 4.20522C25.6477 4.33967 25.6733 4.47299 25.7243 4.59742C25.7752 4.72185 25.8504 4.83489 25.9455 4.92995C26.0406 5.02501 26.1537 5.10018 26.2781 5.15109C26.4025 5.20199 26.5359 5.22761 26.6703 5.22644C26.8047 5.22753 26.938 5.20186 27.0624 5.15092C27.1867 5.09998 27.2997 5.02479 27.3948 4.92974C27.4898 4.83469 27.5649 4.72168 27.6158 4.59729C27.6667 4.4729 27.6924 4.33962 27.6913 4.20522Z" fill="#F6E1CA"/>
<path fill-rule="evenodd" clip-rule="evenodd" d="M27.6617 4.20546C27.6617 3.66497 27.2113 3.24459 26.6711 3.24459C26.1303 3.24459 25.6796 3.66497 25.6796 4.20546C25.6796 4.74625 26.13 5.19666 26.6711 5.19666C27.2115 5.19666 27.6617 4.74625 27.6617 4.20546Z" fill="#F6E1CC"/>
<path fill-rule="evenodd" clip-rule="evenodd" d="M27.6034 4.20523C27.6022 3.95871 27.5038 3.72262 27.3295 3.54828C27.1552 3.37393 26.9191 3.2754 26.6726 3.27409C26.426 3.27524 26.1898 3.3737 26.0153 3.54807C25.8409 3.72244 25.7424 3.95861 25.7411 4.20523C25.7411 4.74602 26.1618 5.1664 26.6726 5.1664C27.1828 5.1664 27.6034 4.74602 27.6034 4.20523Z" fill="#F7E3CD"/>
<path fill-rule="evenodd" clip-rule="evenodd" d="M27.5716 4.20571C27.5716 3.72527 27.181 3.30488 26.6708 3.30488C26.16 3.30488 25.7694 3.72527 25.7694 4.20571C25.7694 4.71617 26.16 5.10682 26.6708 5.10682C27.181 5.10682 27.5716 4.71617 27.5716 4.20571Z" fill="#F7E3CF"/>
<path fill-rule="evenodd" clip-rule="evenodd" d="M27.5426 4.20548C27.5424 3.9746 27.4507 3.75321 27.2875 3.5899C27.1243 3.42659 26.903 3.3347 26.6721 3.33439C26.445 3.34027 26.2291 3.43462 26.0706 3.59734C25.912 3.76006 25.8233 3.97828 25.8233 4.20548C25.8233 4.43268 25.912 4.65089 26.0706 4.81361C26.2291 4.97633 26.445 5.07069 26.6721 5.07656C26.903 5.07633 27.1244 4.98447 27.2876 4.82114C27.4508 4.65781 27.5425 4.43638 27.5426 4.20548Z" fill="#F7E3D0"/>
<path fill-rule="evenodd" clip-rule="evenodd" d="M27.5125 4.20572C27.5125 3.75531 27.1224 3.39469 26.672 3.39469C26.221 3.39469 25.831 3.75531 25.831 4.20572C25.8307 4.31624 25.8523 4.42571 25.8945 4.52785C25.9367 4.63 25.9986 4.72281 26.0768 4.80096C26.1549 4.8791 26.2477 4.94104 26.3499 4.98323C26.452 5.02541 26.5615 5.04701 26.672 5.04678C26.7825 5.04697 26.8919 5.02535 26.994 4.98314C27.0961 4.94093 27.1889 4.87898 27.267 4.80083C27.345 4.72269 27.4069 4.62989 27.4491 4.52777C27.4912 4.42564 27.5128 4.3162 27.5125 4.20572Z" fill="#F8E5D1"/>
<path fill-rule="evenodd" clip-rule="evenodd" d="M27.452 4.20493C27.452 3.78455 27.1217 3.42422 26.6713 3.42422C26.5685 3.42345 26.4666 3.44311 26.3715 3.48206C26.2764 3.52101 26.19 3.57848 26.1173 3.65112C26.0446 3.72376 25.9871 3.81013 25.9481 3.90521C25.909 4.00028 25.8893 4.10216 25.89 4.20493C25.89 4.65534 26.2203 5.01596 26.6713 5.01596C27.1217 5.01596 27.452 4.65563 27.452 4.20493Z" fill="#F8E8D4"/>
<path fill-rule="evenodd" clip-rule="evenodd" d="M27.4222 4.206C27.4232 4.10715 27.4045 4.00909 27.3671 3.91756C27.3298 3.82603 27.2746 3.74286 27.2047 3.67293C27.1348 3.603 27.0517 3.54771 26.9602 3.5103C26.8687 3.47288 26.7706 3.45409 26.6718 3.45503C26.5729 3.45405 26.4748 3.47281 26.3832 3.51021C26.2917 3.5476 26.2085 3.60288 26.1386 3.67281C26.0687 3.74274 26.0134 3.82591 25.976 3.91747C25.9386 4.00902 25.9198 4.10711 25.9208 4.206C25.9198 4.3049 25.9385 4.40301 25.9759 4.49458C26.0133 4.58615 26.0686 4.66935 26.1385 4.73928C26.2084 4.80922 26.2916 4.8645 26.3832 4.90188C26.4748 4.93926 26.5729 4.95799 26.6718 4.95698C26.7706 4.95791 26.8687 4.93912 26.9602 4.90171C27.0517 4.86429 27.1348 4.809 27.2047 4.73907C27.2746 4.66914 27.3298 4.58598 27.3671 4.49445C27.4045 4.40292 27.4232 4.30485 27.4222 4.206Z" fill="#F8E8D6"/>
<path fill-rule="evenodd" clip-rule="evenodd" d="M27.3909 4.20493C27.3909 3.81457 27.06 3.51401 26.6699 3.51401C26.2793 3.51401 25.949 3.81428 25.949 4.20493C25.949 4.59557 26.2793 4.92588 26.6699 4.92588C27.06 4.92588 27.3909 4.59557 27.3909 4.20493Z" fill="#F8E8D8"/>
<path fill-rule="evenodd" clip-rule="evenodd" d="M27.3616 4.20569C27.3616 3.84536 27.0307 3.5448 26.671 3.5448C26.3101 3.5448 25.9798 3.84536 25.9798 4.20569C25.9798 4.59605 26.3101 4.89661 26.671 4.89661C27.0307 4.89661 27.3616 4.59634 27.3616 4.20569Z" fill="#F9EAD9"/>
<path fill-rule="evenodd" clip-rule="evenodd" d="M27.2999 4.20517C27.2999 3.87487 27.0294 3.5743 26.6697 3.5743C26.3087 3.5743 26.0388 3.87458 26.0388 4.20517C26.0388 4.56579 26.3087 4.86607 26.6697 4.86607C27.0294 4.86607 27.2999 4.56579 27.2999 4.20517Z" fill="#FAECDC"/>
<path fill-rule="evenodd" clip-rule="evenodd" d="M27.2713 4.20465C27.2707 4.04546 27.2073 3.89295 27.0947 3.78039C26.9821 3.66783 26.8296 3.60435 26.6704 3.60381C26.3395 3.60381 26.0696 3.87406 26.0696 4.20465C26.0696 4.53524 26.3395 4.80549 26.6704 4.80549C26.8296 4.80503 26.9822 4.74158 27.0948 4.629C27.2074 4.51642 27.2708 4.36386 27.2713 4.20465Z" fill="#FAECDD"/>
<path fill-rule="evenodd" clip-rule="evenodd" d="M27.242 4.2046C27.242 3.90433 26.9715 3.66411 26.6715 3.66411C26.3709 3.66411 26.1004 3.90433 26.1004 4.2046C26.1004 4.5349 26.3709 4.77542 26.6715 4.77542C26.7464 4.77542 26.8206 4.76065 26.8899 4.73196C26.9591 4.70327 27.022 4.66122 27.075 4.60821C27.128 4.5552 27.17 4.49227 27.1987 4.42302C27.2273 4.35377 27.242 4.27955 27.242 4.2046Z" fill="#FAECDF"/>
<path fill-rule="evenodd" clip-rule="evenodd" d="M27.2124 4.20537C27.2124 3.93512 26.9722 3.6949 26.6719 3.6949C26.3714 3.6949 26.1312 3.93512 26.1312 4.20537C26.1312 4.50593 26.3714 4.74615 26.6719 4.74615C26.743 4.74642 26.8135 4.73262 26.8792 4.70553C26.9449 4.67845 27.0046 4.63862 27.0548 4.58835C27.1051 4.53807 27.1449 4.47835 27.1719 4.41261C27.199 4.34688 27.2128 4.27645 27.2124 4.20537Z" fill="#FAEEE0"/>
<path fill-rule="evenodd" clip-rule="evenodd" d="M27.1516 4.20485C27.1516 3.9346 26.9409 3.72441 26.6712 3.72441C26.4007 3.72441 26.1902 3.9346 26.1902 4.20485C26.1902 4.47509 26.401 4.71531 26.6712 4.71531C26.9412 4.71531 27.1516 4.47509 27.1516 4.20485Z" fill="#FBF0E3"/>
<path fill-rule="evenodd" clip-rule="evenodd" d="M27.1224 4.20433C27.1224 3.96411 26.9116 3.75392 26.672 3.75392C26.4317 3.75392 26.221 3.96411 26.221 4.20433C26.221 4.47457 26.4317 4.65474 26.672 4.65474C26.9116 4.65474 27.1224 4.47457 27.1224 4.20433Z" fill="#FBF1E5"/>
<path fill-rule="evenodd" clip-rule="evenodd" d="M27.09 4.20457C27.09 3.99438 26.9095 3.81422 26.6699 3.81422C26.4297 3.81422 26.2492 3.99438 26.2492 4.20457C26.2492 4.44508 26.4297 4.62525 26.6699 4.62525C26.9095 4.62525 27.09 4.44508 27.09 4.20457Z" fill="#FBF1E7"/>
<path fill-rule="evenodd" clip-rule="evenodd" d="M27.0607 4.20534C27.0607 3.99514 26.8808 3.84501 26.6706 3.84501C26.4599 3.84501 26.28 3.99514 26.28 4.20534C26.28 4.41582 26.4599 4.59569 26.6706 4.59569C26.8808 4.59569 27.0607 4.41553 27.0607 4.20534Z" fill="#FCF3E8"/>
<path fill-rule="evenodd" clip-rule="evenodd" d="M27.0002 4.20482C27.0002 4.02465 26.8498 3.87452 26.6699 3.87452C26.4894 3.87452 26.339 4.02494 26.339 4.20482C26.339 4.4153 26.4894 4.56544 26.6699 4.56544C26.8498 4.56544 27.0002 4.4153 27.0002 4.20482Z" fill="#FCF3EA"/>
<path fill-rule="evenodd" clip-rule="evenodd" d="M26.9703 4.2043C26.9703 4.05416 26.8502 3.90402 26.6704 3.90402C26.4899 3.90402 26.3698 4.05416 26.3698 4.2043C26.3698 4.38475 26.4899 4.50486 26.6704 4.50486C26.8502 4.50486 26.9703 4.38475 26.9703 4.2043Z" fill="#FCF5ED"/>
<path fill-rule="evenodd" clip-rule="evenodd" d="M26.9436 4.20454C26.9436 4.0544 26.8235 3.96432 26.6737 3.96432C26.5233 3.96432 26.4032 4.0544 26.4032 4.20454C26.4032 4.35468 26.5233 4.47479 26.6737 4.47479C26.7092 4.4749 26.7444 4.46799 26.7772 4.45445C26.81 4.4409 26.8398 4.421 26.8649 4.39588C26.89 4.37075 26.9099 4.34091 26.9234 4.30807C26.9369 4.27524 26.9438 4.24005 26.9436 4.20454Z" fill="#FCF5EF"/>
<path fill-rule="evenodd" clip-rule="evenodd" d="M26.9112 4.2053C26.9112 4.0852 26.7911 3.99511 26.6716 3.99511C26.5515 3.99511 26.4314 4.08549 26.4314 4.2053C26.4314 4.32541 26.5515 4.44582 26.6716 4.44582C26.7911 4.44582 26.9112 4.32541 26.9112 4.2053Z" fill="#FDF8F1"/>
<path fill-rule="evenodd" clip-rule="evenodd" d="M26.8507 4.20478C26.8507 4.1147 26.7606 4.02462 26.6708 4.02462C26.5802 4.02462 26.4904 4.1147 26.4904 4.20478C26.4904 4.32489 26.5805 4.41527 26.6708 4.41527C26.7609 4.41527 26.8507 4.32489 26.8507 4.20478Z" fill="#FDF8F3"/>
<path fill-rule="evenodd" clip-rule="evenodd" d="M26.8215 4.20426C26.8215 4.14421 26.7617 4.05413 26.6716 4.05413C26.5809 4.05413 26.5212 4.14421 26.5212 4.20426C26.5212 4.29435 26.5809 4.3544 26.6716 4.3544C26.7617 4.3544 26.8215 4.29435 26.8215 4.20426Z" fill="#FDF8F5"/>
<path fill-rule="evenodd" clip-rule="evenodd" d="M26.789 4.20451C26.789 4.14445 26.7293 4.11443 26.6695 4.11443C26.6092 4.11443 26.5494 4.14445 26.5494 4.20451C26.5494 4.26456 26.6092 4.32462 26.6695 4.32462C26.7293 4.32462 26.789 4.26456 26.789 4.20451Z" fill="#FEFBF6"/>
<path fill-rule="evenodd" clip-rule="evenodd" d="M26.7306 4.20527C26.7306 4.17524 26.7003 4.14522 26.6709 4.14522C26.6405 4.14522 26.5802 4.17524 26.5802 4.20527C26.5802 4.26533 26.6405 4.29535 26.6709 4.29535C26.7006 4.29535 26.7306 4.26533 26.7306 4.20527Z" fill="#FFFFFB"/>
<path fill-rule="evenodd" clip-rule="evenodd" d="M26.6993 4.20475C26.6993 4.20475 26.6993 4.17473 26.6695 4.17473C26.6392 4.17473 26.6392 4.20475 26.6392 4.20475C26.6392 4.23478 26.6392 4.26481 26.6695 4.26481C26.6993 4.26481 26.6993 4.23478 26.6993 4.20475Z" fill="white"/>
<path fill-rule="evenodd" clip-rule="evenodd" d="M34.5111 5.586L32.3786 0.179613H30.6364L34.0607 8.43919H34.9018L38.3858 0.179613H36.6737L34.5111 5.586ZM39.1068 8.22929H43.552V6.87747H40.6685V4.71492H43.4316V3.33336H40.6685V1.56117H43.552V0.179613H39.1068V8.22929ZM49.7691 2.55236C49.7691 1.0507 48.7476 0.179613 46.9159 0.179613H44.6029V8.229H46.1647V5.01519H46.3749L48.5374 8.229H50.4597L47.9369 4.83473C49.1079 4.59481 49.7691 3.78378 49.7691 2.55236ZM46.6151 3.90418H46.1647V1.44135H46.6451C47.6363 1.44135 48.1465 1.86173 48.1465 2.64274C48.1468 3.45348 47.6366 3.90418 46.6151 3.90418ZM0.358586 10.5927V11.3139H1.2492V11.6058H0.358586V12.8623H0.0384884V10.3006H1.27836V10.5927H0.358586ZM2.74037 10.3006H3.06076V12.8623H2.74037V10.3006ZM4.60732 10.1776L6.52849 12.1935V10.3006H6.84859V12.9678L4.92537 10.953V12.8623H4.60732V10.1776ZM9.81022 11.9285H8.89774L9.35369 10.8912L9.81022 11.9285ZM9.94141 12.2206L10.2335 12.8623H10.5781L9.35398 10.1919L8.13044 12.8623H8.47357L8.76655 12.2206H9.94141ZM11.8594 10.1776L13.7826 12.1935V10.3006H14.103V12.9678L12.1774 10.953V12.8623H11.8594V10.1776ZM17.5197 10.7904C17.3375 10.6265 17.085 10.5388 16.8433 10.5388C16.2705 10.5388 15.832 11.0178 15.832 11.5854C15.832 12.146 16.2661 12.6247 16.8375 12.6247C17.0894 12.6247 17.3296 12.5302 17.5194 12.3597V12.7375C17.3143 12.8537 17.0829 12.9154 16.8471 12.9168C16.1151 12.9168 15.5111 12.336 15.5111 11.595C15.5111 10.837 16.1192 10.2452 16.8751 10.2452C17.0999 10.2452 17.327 10.3006 17.5191 10.4192V10.7904H17.5197ZM18.9899 10.3006H19.3082V12.8623H18.9899V10.3006ZM22.2926 11.9285H21.3804L21.8387 10.8912L22.2926 11.9285ZM22.4241 12.2206L22.717 12.8623H23.0602L21.8387 10.1919L20.6145 12.8623H20.9568L21.2489 12.2206H22.4241ZM24.6916 12.5716H25.4702V12.8623H24.3732V10.3006H24.6916V12.5716ZM29.9965 10.7869C29.9038 10.6262 29.7808 10.5449 29.5855 10.5449C29.3811 10.5449 29.156 10.684 29.156 10.909C29.156 11.1087 29.356 11.2148 29.5146 11.2758L29.6968 11.3478C30.0618 11.4897 30.3335 11.6909 30.3335 12.1186C30.3335 12.5847 29.9726 12.9168 29.5146 12.9168C29.0995 12.9168 28.7768 12.6115 28.7237 12.2002L29.0458 12.1329C29.0417 12.4142 29.2662 12.6182 29.54 12.6182C29.816 12.6182 30.0125 12.3879 30.0125 12.1186C30.0125 11.8439 29.7921 11.7244 29.5717 11.632L29.3957 11.5582C29.1024 11.4323 28.8377 11.2661 28.8377 10.909C28.8377 10.4939 29.2044 10.2452 29.5927 10.2452C29.877 10.2452 30.1119 10.3854 30.2504 10.6329L29.9965 10.7869ZM31.7798 10.3006H33.157V10.5927H32.1002V11.3107H33.1281V11.6026H32.1002V12.5716H33.157V12.8623H31.7798V10.3006ZM34.9706 10.586H35.0525C35.3714 10.586 35.751 10.6437 35.751 11.0455C35.751 11.4527 35.3956 11.5134 35.07 11.5134H34.9703V10.586H34.9706ZM35.4353 11.7486C35.8055 11.7037 36.0501 11.3988 36.0501 11.0312C36.0501 10.7869 35.9271 10.5449 35.7125 10.419C35.5093 10.3038 35.2644 10.3006 35.0379 10.3006H34.6508V12.8623H34.9708V11.7798H35.1023L35.8568 12.8623H36.2434L35.4353 11.7486ZM38.4383 12.1967L39.1995 10.3006H39.5502L38.4383 12.9996L37.3244 10.3006H37.6745L38.4383 12.1967ZM40.8548 10.3006H41.1746V12.8623H40.8548V10.3006ZM44.6196 10.7904C44.435 10.6265 44.1823 10.5388 43.9397 10.5388C43.3674 10.5388 42.929 11.0178 42.929 11.5854C42.929 12.146 43.3628 12.6247 43.9339 12.6247C44.1861 12.6247 44.4286 12.5302 44.6196 12.3597V12.7375C44.4137 12.8535 44.1818 12.9152 43.9455 12.9168C43.2156 12.9168 42.6086 12.336 42.6086 11.595C42.6086 10.837 43.2196 10.2452 43.9724 10.2452C44.1971 10.2452 44.4245 10.3006 44.6199 10.4192V10.7904H44.6196ZM46.0953 10.3006H47.4722V10.5927H46.416V11.3107H47.4418V11.6026H46.416V12.5716H47.4722V12.8623H46.0953V10.3006ZM50.1015 10.7869C50.0082 10.6262 49.8857 10.5449 49.6922 10.5449C49.489 10.5449 49.2639 10.684 49.2639 10.909C49.2639 11.1087 49.4621 11.2148 49.6204 11.2758L49.8056 11.3478C50.1676 11.4897 50.4393 11.6909 50.4393 12.1186C50.4393 12.5847 50.079 12.9168 49.6204 12.9168C49.207 12.9168 48.882 12.6115 48.8301 12.2002L49.1514 12.1329C49.1473 12.4142 49.3735 12.6182 49.6478 12.6182C49.9233 12.6182 50.121 12.3879 50.121 12.1186C50.121 11.8439 49.8983 11.7244 49.6784 11.632L49.5021 11.5582C49.2088 11.4323 48.9441 11.2661 48.9441 10.909C48.9441 10.4939 49.3114 10.2452 49.6991 10.2452C49.9834 10.2452 50.2189 10.3854 50.3592 10.6329L50.1015 10.7869ZM50.6868 0.893567C50.6868 0.955371 50.6446 0.988021 50.5589 0.988021H50.5297V0.803483H50.5609C50.646 0.803775 50.6868 0.832929 50.6868 0.893567ZM50.9381 1.38129L50.7046 1.08802C50.8043 1.06236 50.8618 0.98948 50.8618 0.889194C50.8618 0.750427 50.7644 0.672005 50.5912 0.672005H50.3653V1.38129H50.5326V1.10667L50.7314 1.38129H50.9381ZM51.2364 1.02534C51.2364 0.686581 50.9609 0.407298 50.6265 0.407298C50.5451 0.406758 50.4644 0.422364 50.3891 0.453214C50.3138 0.484064 50.2454 0.529544 50.1878 0.587023C50.1301 0.644502 50.0845 0.712837 50.0535 0.788074C50.0224 0.863311 50.0067 0.943954 50.007 1.02534C50.007 1.36963 50.2837 1.64425 50.6265 1.64425C50.9609 1.64396 51.2364 1.36497 51.2364 1.02534ZM51.1116 1.02709C51.1116 1.3052 50.893 1.53318 50.6236 1.53318C50.3525 1.53318 50.1294 1.30637 50.1294 1.02709C50.1294 0.744596 50.3504 0.520118 50.6236 0.520118C50.893 0.520118 51.1116 0.748094 51.1116 1.02709Z" fill="black"/>
</svg>
