<svg width="32" height="25" viewBox="0 0 32 25" fill="none" xmlns="http://www.w3.org/2000/svg">
<path d="M32 19.6773C32 22.4156 29.7702 24.6455 27.0318 24.6455H0V4.96821C0 2.22983 2.22983 0 4.96821 0H32V19.6773Z" fill="white"/>
<path d="M23.1972 14.6306H25.251C25.3097 14.6306 25.4466 14.611 25.5053 14.611C25.8965 14.5328 26.229 14.1807 26.229 13.6917C26.229 13.2223 25.8965 12.8702 25.5053 12.7724C25.4466 12.7528 25.3292 12.7528 25.251 12.7528H23.1972V14.6306Z" fill="url(#paint0_linear_1_189)"/>
<path d="M25.0166 1.66277C23.0606 1.66277 21.4567 3.24713 21.4567 5.22268V8.9195H26.4836C26.6009 8.9195 26.7379 8.9195 26.8357 8.93906C27.9701 8.99774 28.8112 9.58454 28.8112 10.6017C28.8112 11.4036 28.244 12.0882 27.1877 12.2251V12.2642C28.3418 12.3425 29.222 12.988 29.222 13.9855C29.222 15.0613 28.244 15.7655 26.953 15.7655H21.4371V23.0026H26.6596C28.6156 23.0026 30.2195 21.4183 30.2195 19.4427V1.66277H25.0166Z" fill="url(#paint1_linear_1_189)"/>
<path d="M25.9747 10.8362C25.9747 10.3668 25.6422 10.0538 25.251 9.99516C25.2119 9.99516 25.1141 9.9756 25.0554 9.9756H23.1972V11.6969H25.0554C25.1141 11.6969 25.2314 11.6969 25.251 11.6773C25.6422 11.6186 25.9747 11.3057 25.9747 10.8362Z" fill="url(#paint2_linear_1_189)"/>
<path d="M5.33955 1.66277C3.38356 1.66277 1.77965 3.24713 1.77965 5.22268V14.0051C2.77721 14.4941 3.81388 14.807 4.85056 14.807C6.08283 14.807 6.74787 14.0638 6.74787 13.0466V8.89994H9.79921V13.0271C9.79921 14.631 8.80166 15.9415 5.41779 15.9415C3.364 15.9415 1.76009 15.4916 1.76009 15.4916V22.9831H6.98258C8.93857 22.9831 10.5425 21.3987 10.5425 19.4232V1.66277H5.33955Z" fill="url(#paint3_linear_1_189)"/>
<path d="M15.1794 1.66277C13.2234 1.66277 11.6195 3.24713 11.6195 5.22268V9.87793C12.5193 9.1151 14.0841 8.6261 16.6073 8.74346C17.9569 8.80214 19.4044 9.17378 19.4044 9.17378V10.6799C18.6807 10.3082 17.82 9.97573 16.7051 9.89749C14.7882 9.76057 13.6342 10.6994 13.6342 12.3425C13.6342 14.0051 14.7882 14.9439 16.7051 14.7875C17.82 14.7092 18.6807 14.3572 19.4044 14.0051V15.5112C19.4044 15.5112 17.9765 15.8828 16.6073 15.9415C14.0841 16.0589 12.5193 15.5699 11.6195 14.807V23.0222H16.842C18.798 23.0222 20.4019 21.4378 20.4019 19.4623V1.66277H15.1794Z" fill="url(#paint4_linear_1_189)"/>
<defs>
<linearGradient id="paint0_linear_1_189" x1="21.4531" y1="13.694" x2="30.2429" y2="13.694" gradientUnits="userSpaceOnUse">
<stop stop-color="#007940"/>
<stop offset="0.229" stop-color="#00873F"/>
<stop offset="0.743" stop-color="#40A737"/>
<stop offset="1" stop-color="#5CB531"/>
</linearGradient>
<linearGradient id="paint1_linear_1_189" x1="21.4532" y1="12.3241" x2="30.2436" y2="12.3241" gradientUnits="userSpaceOnUse">
<stop stop-color="#007940"/>
<stop offset="0.229" stop-color="#00873F"/>
<stop offset="0.743" stop-color="#40A737"/>
<stop offset="1" stop-color="#5CB531"/>
</linearGradient>
<linearGradient id="paint2_linear_1_189" x1="21.4529" y1="10.8337" x2="30.2429" y2="10.8337" gradientUnits="userSpaceOnUse">
<stop stop-color="#007940"/>
<stop offset="0.229" stop-color="#00873F"/>
<stop offset="0.743" stop-color="#40A737"/>
<stop offset="1" stop-color="#5CB531"/>
</linearGradient>
<linearGradient id="paint3_linear_1_189" x1="1.77554" y1="12.3241" x2="10.7013" y2="12.3241" gradientUnits="userSpaceOnUse">
<stop stop-color="#1F286F"/>
<stop offset="0.475" stop-color="#004E94"/>
<stop offset="0.826" stop-color="#0066B1"/>
<stop offset="1" stop-color="#006FBC"/>
</linearGradient>
<linearGradient id="paint4_linear_1_189" x1="11.5689" y1="12.3241" x2="20.238" y2="12.3241" gradientUnits="userSpaceOnUse">
<stop stop-color="#6C2C2F"/>
<stop offset="0.173" stop-color="#882730"/>
<stop offset="0.573" stop-color="#BE1833"/>
<stop offset="0.859" stop-color="#DC0436"/>
<stop offset="1" stop-color="#E60039"/>
</linearGradient>
</defs>
</svg>
