<svg width="39" height="25" viewBox="0 0 39 25" fill="none" xmlns="http://www.w3.org/2000/svg">
<path fill-rule="evenodd" clip-rule="evenodd" d="M0 24.6756H39V0H0V24.6756Z" fill="#1B3771"/>
<path fill-rule="evenodd" clip-rule="evenodd" d="M19.5314 20.2212C21.4132 21.9364 23.9437 22.9815 26.6833 22.9815C32.5803 22.9815 37.348 18.2136 37.348 12.3164C37.348 6.44048 32.5806 1.65169 26.6833 1.65169C23.9437 1.65169 21.4135 2.69732 19.5314 4.41201C17.3774 6.37746 16.0182 9.17972 16.0182 12.3164C16.0182 15.4537 17.3774 18.2766 19.5314 20.2212Z" fill="#E9B040"/>
<path fill-rule="evenodd" clip-rule="evenodd" d="M35.9262 18.2558C35.9262 18.0676 36.0722 17.9212 36.2817 17.9212C36.4698 17.9212 36.6163 18.0676 36.6163 18.2558C36.6163 18.444 36.4698 18.6113 36.2817 18.6113C36.2349 18.6117 36.1885 18.6027 36.1452 18.585C36.1019 18.5673 36.0625 18.5411 36.0294 18.508C35.9963 18.4749 35.9702 18.4356 35.9524 18.3923C35.9347 18.349 35.9258 18.3026 35.9262 18.2558ZM36.2817 18.5274C36.4068 18.5274 36.5326 18.4023 36.5326 18.2556C36.5326 18.1089 36.407 18.0046 36.2817 18.0046C36.1352 18.0046 36.0098 18.1091 36.0098 18.2556C36.0098 18.402 36.1352 18.5274 36.2817 18.5274ZM36.2188 18.4231H36.1561V18.1093H36.2817C36.3025 18.1093 36.3445 18.1093 36.3653 18.1302C36.3862 18.1515 36.407 18.1721 36.407 18.193C36.407 18.2349 36.3862 18.2767 36.3447 18.2767L36.407 18.4231H36.3234L36.2817 18.2975H36.2188V18.4231ZM36.2188 18.2349H36.3025C36.3234 18.2349 36.3234 18.2136 36.3234 18.193C36.3234 18.193 36.3234 18.1721 36.3025 18.1721H36.2188V18.2349Z" fill="#E9B040"/>
<path fill-rule="evenodd" clip-rule="evenodd" d="M22.9817 11.1875C22.9394 10.8081 22.8766 10.4312 22.7936 10.0585H16.2692C16.3543 9.67687 16.459 9.29994 16.583 8.92917H22.48C22.3518 8.54591 22.2053 8.16904 22.0408 7.79987H17.0219C17.2149 7.41471 17.4242 7.03794 17.6493 6.67058H21.4133C21.1796 6.26815 20.9065 5.88993 20.598 5.54151H18.4648C18.7786 5.14407 19.1549 4.76771 19.5313 4.41244C17.6493 2.69753 15.1397 1.65212 12.3794 1.65212C6.48238 1.65212 1.71445 6.44091 1.71445 12.3168C1.71445 18.2138 6.48238 22.982 12.3794 22.982C15.1397 22.982 17.649 21.9366 19.5313 20.2217C19.9074 19.8662 20.2842 19.49 20.6186 19.0926H18.4646C18.1694 18.7336 17.8971 18.3565 17.649 17.9635H21.4133C21.647 17.6012 21.8566 17.2238 22.0408 16.834H17.0219C16.8505 16.4679 16.7038 16.0907 16.5828 15.7049H22.4798C22.6036 15.334 22.7083 14.957 22.7936 14.5754C22.8772 14.1993 22.9396 13.8225 22.9817 13.4463C23.0654 12.6957 23.0654 11.9381 22.9817 11.1875Z" fill="#CC2131"/>
<path fill-rule="evenodd" clip-rule="evenodd" d="M35.9262 14.7843C35.9262 14.5961 36.0722 14.4497 36.2817 14.4497C36.4698 14.4497 36.6163 14.5961 36.6163 14.7843C36.6163 14.9725 36.4698 15.1398 36.2817 15.1398C36.2349 15.1402 36.1884 15.1313 36.1451 15.1136C36.1018 15.0959 36.0624 15.0697 36.0294 15.0366C35.9963 15.0035 35.9701 14.9642 35.9524 14.9209C35.9347 14.8775 35.9257 14.8311 35.9262 14.7843ZM36.2817 15.0562C36.4068 15.0562 36.5326 14.9306 36.5326 14.7843C36.5326 14.6379 36.407 14.5333 36.2817 14.5333C36.1352 14.5333 36.0098 14.6379 36.0098 14.7843C36.0098 14.9303 36.1352 15.0562 36.2817 15.0562ZM36.2189 14.9516H36.1561V14.6379H36.2817C36.3025 14.6379 36.3445 14.6379 36.3653 14.6587C36.3862 14.68 36.407 14.7007 36.407 14.7215C36.407 14.7635 36.3862 14.8052 36.3447 14.8052L36.407 14.9516H36.3234L36.2817 14.826H36.2189V14.9516ZM36.2189 14.7637H36.3025C36.3234 14.7637 36.3234 14.7424 36.3234 14.7217C36.3234 14.7217 36.3234 14.7009 36.3025 14.7009H36.2189V14.7637Z" fill="white"/>
<path fill-rule="evenodd" clip-rule="evenodd" d="M15.9136 15.391C15.5581 15.4955 15.3071 15.5374 15.0353 15.5374C14.4916 15.5374 14.1569 15.2028 14.1569 14.5752C14.1569 14.4501 14.1778 14.3243 14.1987 14.1782L14.2612 13.7599L14.324 13.404L14.826 10.3929H15.9342L15.8088 11.062H16.499L16.3316 12.1704H15.6417L15.328 13.9688C15.328 14.0316 15.3071 14.0939 15.3071 14.1361C15.3071 14.3662 15.4325 14.4707 15.7045 14.4707C15.851 14.4707 15.9347 14.4499 16.06 14.4288L15.9136 15.391ZM19.4894 15.3488C19.1041 15.4726 18.702 15.5362 18.2973 15.5374C17.0635 15.5374 16.3316 14.8682 16.3316 13.5715C16.3316 12.0661 17.1891 10.9368 18.3601 10.9368C19.3012 10.9368 19.9075 11.5642 19.9075 12.547C19.9075 12.8608 19.8658 13.1745 19.7615 13.6343H17.4609V13.7599C17.4609 14.2825 17.7956 14.5335 18.4646 14.5335C18.8829 14.5335 19.2593 14.4499 19.6776 14.2617L19.4894 15.3488ZM18.7993 12.7349V12.5261C18.7993 12.1706 18.5902 11.9616 18.2556 11.9616C17.8792 11.9616 17.6283 12.2334 17.5237 12.7352L18.7993 12.7349ZM7.06785 15.4538H5.9177L6.58698 11.2923L5.10218 15.4538H4.30775L4.22409 11.3132L3.51287 15.4538H2.40466L3.30384 10.0374H4.95572L5.01875 13.3834L6.12696 10.0374H7.96725L7.06785 15.4538ZM9.84925 13.4879C9.72388 13.4879 9.70279 13.467 9.61913 13.467C8.97094 13.467 8.6363 13.718 8.6363 14.1363C8.6363 14.4288 8.8034 14.5965 9.05438 14.5965C9.61913 14.5965 9.82817 14.1361 9.84925 13.4879ZM10.7693 15.4538H9.76559L9.78645 14.9935C9.53547 15.349 9.20084 15.5374 8.5735 15.5374C8.00897 15.5374 7.54895 15.0355 7.54895 14.3243C7.54895 14.1154 7.59067 13.9273 7.63239 13.7599C7.82056 13.0696 8.5107 12.6513 9.55633 12.6304C9.68171 12.6304 9.89097 12.6304 10.0581 12.6513C10.0998 12.5053 10.0998 12.4425 10.0998 12.3588C10.0998 12.0661 9.86989 11.9825 9.32622 11.9825C8.99158 11.9825 8.6363 12.0453 8.36424 12.1078L8.218 12.1706H8.13434L8.30166 11.1878C8.84534 11.0205 9.2217 10.9577 9.63999 10.9577C10.6437 10.9577 11.1665 11.3968 11.1665 12.2543C11.1665 12.4631 11.1874 12.6304 11.1037 13.1115L10.8738 14.68L10.8321 14.9518L10.7904 15.1815V15.3279L10.7693 15.4538ZM25.052 11.1041C25.3653 11.1041 25.6582 11.1876 26.0765 11.3968L26.2647 10.2047C26.1602 10.163 26.1391 10.163 25.9929 10.1002L25.5118 9.9957C25.3653 9.95398 25.198 9.93312 24.9892 9.93312C24.4244 9.93312 24.0898 9.93312 23.7345 10.163C23.5463 10.2675 23.3162 10.4349 23.0446 10.7278L22.919 10.6858L21.7271 11.5224L21.7899 11.0624H20.5559L19.866 15.454H21.0164L21.4347 13.0911C21.4347 13.0911 21.602 12.7565 21.6856 12.6517C21.8945 12.3799 22.0826 12.3799 22.3128 12.3799H22.3964C22.3756 12.6309 22.3545 12.9238 22.3545 13.2165C22.3545 14.6593 23.1702 15.5587 24.4249 15.5587C24.7387 15.5587 25.0105 15.5168 25.4286 15.3914L25.6374 14.1574C25.2613 14.346 24.9475 14.4292 24.6548 14.4292C23.9855 14.4292 23.5881 13.9486 23.5881 13.112C23.5881 11.9405 24.1735 11.1041 25.052 11.1041ZM34.8173 10.0374L34.5663 11.585C34.2945 11.1667 33.9601 10.9785 33.5209 10.9785C32.9147 10.9785 32.3499 11.3132 31.9944 11.9614L31.2623 11.5222L31.3251 11.0622H30.0911L29.3803 15.4538H30.5513L30.9275 13.0909C30.9275 13.0909 31.2204 12.7562 31.304 12.6515C31.4714 12.4427 31.6595 12.3797 31.806 12.3797C31.6671 12.7979 31.5965 13.2358 31.5967 13.6765C31.5967 14.7847 32.1824 15.5163 33.0187 15.5163C33.437 15.5163 33.7717 15.3703 34.0854 15.0148L34.0226 15.454H35.1309L36.0094 10.0376L34.8173 10.0374ZM33.4166 14.4079C33.0192 14.4079 32.831 14.1361 32.831 13.5507C32.831 12.6934 33.1865 12.0661 33.7299 12.0661C34.1274 12.0661 34.3366 12.3797 34.3366 12.9444C34.3366 13.8017 33.9601 14.4079 33.4166 14.4079ZM28.0839 13.4879C27.9588 13.4879 27.9379 13.467 27.8543 13.467C27.2058 13.467 26.8712 13.718 26.8712 14.1363C26.8712 14.4288 27.0385 14.5965 27.2895 14.5965C27.854 14.5965 28.0631 14.1361 28.0839 13.4879ZM29.004 15.4538H28.0007L28.0216 14.9935C27.7706 15.349 27.436 15.5374 26.8084 15.5374C26.2441 15.5374 25.7421 15.0563 25.7421 14.3243C25.763 13.2788 26.5366 12.6304 27.7912 12.6304C27.9168 12.6304 28.1259 12.6304 28.2932 12.6513C28.3351 12.5053 28.3351 12.4425 28.3351 12.3588C28.3351 12.0661 28.105 11.9825 27.5611 11.9825C27.2265 11.9825 26.8503 12.0453 26.5994 12.1078L26.432 12.1706H26.3692L26.5366 11.1878C27.0805 11.0205 27.4566 10.9577 27.8749 10.9577C28.8786 10.9577 29.4014 11.3968 29.4014 12.2543C29.4014 12.4631 29.4223 12.6304 29.3386 13.1115L29.1089 14.68L29.067 14.9518L29.0253 15.1815L29.004 15.3279V15.4538ZM13.1741 12.0033C13.4042 12.0033 13.7178 12.0242 14.0524 12.0661L14.2197 11.0413C13.8851 10.9996 13.4462 10.9577 13.1743 10.9577C11.8986 10.9577 11.4596 11.6478 11.4596 12.4633C11.4596 12.9859 11.7104 13.3834 12.3169 13.6552C12.7978 13.8853 12.8814 13.9275 12.8814 14.1154C12.8814 14.3873 12.6304 14.5546 12.1704 14.5546C11.836 14.5546 11.5222 14.4918 11.1456 14.3873L11.0203 15.391H11.0413L11.2504 15.4329C11.313 15.4538 11.4177 15.4746 11.5431 15.4746C11.8358 15.5163 12.0657 15.5163 12.2121 15.5163C13.4879 15.5163 14.0316 15.0357 14.0316 14.0526C14.0316 13.4464 13.7389 13.0909 13.1533 12.8399C12.6724 12.6098 12.6096 12.5889 12.6096 12.3797C12.6096 12.1706 12.8186 12.0033 13.1741 12.0033Z" fill="#1B3771"/>
<path fill-rule="evenodd" clip-rule="evenodd" d="M26.5788 9.87027L26.3901 11.0413C25.9718 10.8322 25.6794 10.7486 25.3656 10.7486C24.4875 10.7486 23.8812 11.5852 23.8812 12.7771C23.8812 13.5928 24.2995 14.0943 24.9681 14.0943C25.2611 14.0943 25.5748 14.0111 25.9512 13.8225L25.7424 15.0565C25.3241 15.161 25.0525 15.203 24.7178 15.203C23.4838 15.203 22.7102 14.3244 22.7102 12.8816C22.7102 10.9368 23.7765 9.59866 25.303 9.59866C25.5123 9.59866 25.6796 9.61952 25.826 9.64038L26.3067 9.76575C26.4532 9.82833 26.474 9.82833 26.5788 9.87027ZM22.8775 10.6858C22.8356 10.6649 22.7939 10.6649 22.7519 10.6649C22.3758 10.6649 22.1663 10.8531 21.8111 11.3759L21.9156 10.7066H20.8493L20.1589 15.1191H21.3093C21.7276 12.4216 21.8319 11.9613 22.3967 11.9613H22.4803C22.5848 11.4385 22.7104 11.0413 22.9195 10.6856L22.8775 10.6858ZM16.2065 15.0563C15.8927 15.1608 15.642 15.2027 15.3699 15.2027C14.7843 15.2027 14.4499 14.8681 14.4499 14.2405C14.4499 14.1154 14.4708 13.9896 14.4916 13.8435L14.5542 13.4042L14.617 13.0695L15.119 10.0585H16.2691L16.1437 10.7066H16.7293L16.562 11.794H15.9766L15.6628 13.6134C15.6628 13.6971 15.642 13.7599 15.642 13.8016C15.642 14.0317 15.7674 14.1362 16.0394 14.1362C16.1859 14.1362 16.2695 14.1154 16.3532 14.0943L16.2065 15.0563ZM11.7524 12.1078C11.7524 12.6512 12.0242 13.0487 12.6307 13.3205C13.1116 13.5506 13.1744 13.6134 13.1744 13.8225C13.1744 14.0943 12.9653 14.2199 12.5051 14.2199C12.1705 14.2199 11.8569 14.1571 11.4803 14.0317L11.313 15.0563H11.3758L11.5851 15.0982C11.6799 15.127 11.7786 15.1411 11.8778 15.1399C12.1496 15.1608 12.3797 15.1817 12.5259 15.1817C13.7389 15.1817 14.3034 14.7219 14.3034 13.7179C14.3034 13.1117 14.0735 12.7562 13.4879 12.4839C13.0068 12.2751 12.9442 12.2123 12.9442 12.0241C12.9442 11.7731 13.1324 11.6478 13.5088 11.6478C13.7389 11.6478 14.0525 11.6895 14.3452 11.7314L14.5125 10.7066C14.2198 10.6649 13.7595 10.623 13.4879 10.623C12.1915 10.623 11.7524 11.2923 11.7524 12.1078ZM35.4245 15.1191H34.3163L34.3786 14.6799C34.0648 15.0146 33.7302 15.1606 33.3119 15.1606C32.4758 15.1606 31.9112 14.4498 31.9112 13.3416C31.9112 11.8777 32.7685 10.6438 33.793 10.6438C34.2532 10.6438 34.5879 10.832 34.9012 11.2503L35.1522 9.70273H36.3026L35.4245 15.1191ZM33.7093 14.0732C34.2532 14.0732 34.6294 13.467 34.6294 12.5889C34.6294 12.045 34.4206 11.7314 34.0231 11.7314C33.5005 11.7314 33.1237 12.3377 33.1237 13.216C33.1237 13.7807 33.3119 14.0732 33.7093 14.0732ZM19.7404 15.0146C19.3432 15.1397 18.9668 15.2027 18.5485 15.2027C17.2519 15.2027 16.5829 14.5124 16.5829 13.2368C16.5829 11.7106 17.4403 10.6021 18.6114 10.6021C19.5525 10.6021 20.1587 11.2295 20.1587 12.2123C20.1587 12.5261 20.117 12.8399 20.0336 13.2996H17.7333C17.7122 13.3624 17.7122 13.3833 17.7122 13.4252C17.7122 13.9272 18.0468 14.1988 18.7369 14.1988C19.1344 14.1988 19.5107 14.1152 19.929 13.927L19.7404 15.0146ZM19.0924 12.4003V12.1704C19.0924 11.8149 18.904 11.6058 18.5488 11.6058C18.1935 11.6058 17.9214 11.8985 17.8169 12.4003H19.0924ZM7.36102 15.1191H6.21087L6.87993 10.9576L5.39514 15.1191H4.6007L4.51704 10.9785L3.80605 15.1191H2.73956L3.63873 9.70273H5.29062L5.35342 13.0487L6.46185 9.70273H8.2602L7.36102 15.1191ZM10.2259 13.1532C10.1003 13.1323 10.0377 13.1323 9.95403 13.1323C9.30583 13.1323 8.97119 13.3624 8.97119 13.8016C8.97119 14.0734 9.13829 14.2618 9.38927 14.2618C9.87037 14.2618 10.205 13.8016 10.2259 13.1532ZM11.0622 15.1191H10.1003L10.1213 14.6588C9.82865 15.0148 9.45207 15.1814 8.90839 15.1814C8.28106 15.1814 7.86276 14.7008 7.86276 13.9896C7.86276 12.9233 8.59484 12.2957 9.89123 12.2957C10.0166 12.2957 10.1839 12.2957 10.3512 12.3166C10.393 12.1912 10.393 12.1286 10.393 12.045C10.393 11.7523 10.2048 11.6475 9.66111 11.6475C9.32647 11.6475 8.95011 11.6893 8.69913 11.7729L8.53181 11.8146L8.4273 11.8355L8.59461 10.8527C9.18001 10.6853 9.55637 10.6225 9.97466 10.6225C10.9784 10.6225 11.5012 11.0617 11.5012 11.8983C11.5012 12.1284 11.4801 12.2955 11.3964 12.7766L11.1665 14.3451L11.1248 14.6169L11.1037 14.8466L11.0829 14.993L11.0622 15.1191ZM28.4608 13.1532C28.3356 13.1323 28.2726 13.1323 28.1889 13.1323C27.5405 13.1323 27.2059 13.3624 27.2059 13.8016C27.2059 14.0734 27.3732 14.2618 27.6242 14.2618C28.0842 14.2618 28.4399 13.8016 28.4608 13.1532ZM29.2971 15.1191H28.3354L28.3562 14.6588C28.0633 15.0148 27.6663 15.1814 27.1431 15.1814C26.516 15.1814 26.0768 14.7008 26.0768 13.9896C26.0768 12.9233 26.8297 12.2957 28.1259 12.2957C28.2511 12.2957 28.4188 12.2957 28.5857 12.3166C28.6276 12.1912 28.6276 12.1286 28.6276 12.045C28.6276 11.7523 28.4395 11.6475 27.8956 11.6475C27.5609 11.6475 27.1848 11.6893 26.9338 11.7729L26.7665 11.8146L26.662 11.8355L26.8293 10.8527C27.4145 10.6853 27.791 10.6225 28.2093 10.6225C29.213 10.6225 29.7359 11.0617 29.7359 11.8983C29.7359 12.1284 29.715 12.2955 29.6313 12.7766L29.4012 14.3451L29.3595 14.6169L29.3176 14.8466L29.2967 14.993V15.1191H29.2971ZM32.3923 10.6858C32.371 10.6649 32.3295 10.6649 32.2874 10.6649C31.9112 10.6649 31.6811 10.8531 31.3256 11.3759L31.4301 10.7066H30.3847L29.6735 15.1191H30.8445C31.2419 12.4216 31.3675 11.9613 31.9112 11.9613H31.9949C32.0994 11.4385 32.2459 11.0413 32.434 10.6856L32.3923 10.6858Z" fill="white"/>
</svg>
