<svg width="32" height="21" viewBox="0 0 32 21" fill="none" xmlns="http://www.w3.org/2000/svg">
<path d="M30.4215 0.00618516L22.5413 0.0041275H22.5391C22.533 0.0041275 22.5271 0.00521048 22.5212 0.00521048C21.4386 0.0383496 20.0902 0.906682 19.8447 1.97732L16.118 18.4671C15.8724 19.5478 16.5404 20.4271 17.6152 20.4432H25.8938C26.952 20.3909 27.9806 19.5325 28.2219 18.474L31.9487 1.98414C32.1982 0.892604 31.5142 0.00618516 30.4215 0.00618516Z" fill="#01798A"/>
<path d="M16.118 18.467L19.8447 1.9772C20.0902 0.906568 21.4386 0.0382353 22.5211 0.00509609L19.3879 0.00314673L13.7428 0.00206375C12.6573 0.0242648 11.2914 0.898662 11.0459 1.97731L7.31818 18.467C7.07169 19.5477 7.74076 20.4269 8.81475 20.4431H17.6151C16.5404 20.4269 15.8724 19.5477 16.118 18.467Z" fill="#024381"/>
<path d="M7.31823 18.4669L11.046 1.97709C11.2915 0.898439 12.6573 0.0240421 13.7429 0.00184107L6.5113 0C5.41966 0 4.02002 0.884469 3.7705 1.97709L0.0427777 18.4669C0.0201434 18.5675 0.00747256 18.6661 0 18.7625V19.0683C0.0729928 19.8561 0.674588 20.4298 1.53935 20.4429H8.8148C7.74081 20.4268 7.07175 19.5476 7.31823 18.4669Z" fill="#DD0228"/>
<path d="M13.8954 12.0176H14.0323C14.1581 12.0176 14.2426 11.9752 14.2824 11.8917L14.638 11.3595H15.5903L15.3918 11.7096H16.5336L16.3887 12.246H15.03C14.8735 12.4814 14.6808 12.592 14.4493 12.5789H13.7416L13.8954 12.0176ZM13.7391 12.7861H16.2409L16.0813 13.3688H15.0751L14.9217 13.9311H15.9007L15.7413 14.5137H14.7623L14.5348 15.3447C14.4785 15.4836 14.5526 15.546 14.7558 15.5319H15.5536L15.4058 16.0734H13.8739C13.5835 16.0734 13.4839 15.9073 13.575 15.5743L13.8658 14.5138H13.24L13.399 13.9312H14.0249L14.1783 13.3689H13.5801L13.7391 12.7861ZM17.732 11.3554L17.6927 11.6966C17.6927 11.6966 18.1645 11.3423 18.5931 11.3423H20.1767L19.5711 13.5347C19.5209 13.7853 19.3055 13.91 18.9251 13.91H17.1301L16.7097 15.4494C16.6853 15.5319 16.7196 15.5742 16.8102 15.5742H17.1634L17.0336 16.0521H16.1357C15.7911 16.0521 15.6477 15.9484 15.7046 15.7402L16.8927 11.3554H17.732ZM19.0732 11.9752H17.6596L17.4904 12.5668C17.4904 12.5668 17.7258 12.3969 18.1193 12.3909C18.5116 12.3847 18.9595 12.3909 18.9595 12.3909L19.0732 11.9752ZM18.5609 13.3476C18.6654 13.3617 18.724 13.3205 18.7309 13.2228L18.8175 12.911H17.4018L17.2831 13.3476H18.5609ZM17.6062 14.0559H18.4222L18.4069 14.4091H18.6242C18.734 14.4091 18.7885 14.3739 18.7885 14.3045L18.8528 14.0761H19.5311L19.4405 14.4091C19.3638 14.6868 19.1608 14.8317 18.8307 14.8459H18.396L18.3939 15.4494C18.386 15.5461 18.4733 15.5954 18.6534 15.5954H19.0619L18.9301 16.0734H17.9501C17.6754 16.0864 17.5406 15.9556 17.5436 15.6779L17.6062 14.0559ZM7.7177 8.43463C7.60702 8.97698 7.35046 9.3935 6.95247 9.68926C6.55804 9.98004 6.04948 10.1259 5.42666 10.1259C4.84055 10.1259 4.41093 9.977 4.13672 9.67821C3.94655 9.46595 3.85201 9.19629 3.85201 8.87031C3.85201 8.73548 3.86814 8.59057 3.90031 8.43473L4.56385 5.23529H5.56593L4.91159 8.39835C4.89287 8.47779 4.88378 8.55921 4.88452 8.64082C4.88343 8.80284 4.92372 8.93561 5.00516 9.03925C5.12386 9.19325 5.31652 9.2696 5.58477 9.2696C5.8931 9.2696 6.14716 9.19423 6.34437 9.04218C6.54158 8.89121 6.67035 8.677 6.72818 8.39824L7.38468 5.23496H8.38178L7.7177 8.43463ZM11.9264 7.17588H12.7112L12.0964 10.0314H11.3131L11.9264 7.17588ZM12.1734 6.13557H12.9653L12.8173 6.82868H12.0256L12.1734 6.13557ZM13.4059 9.81402C13.2006 9.61778 13.097 9.35321 13.096 9.01716C13.096 8.95976 13.0995 8.89446 13.1071 8.82298C13.1147 8.75053 13.1243 8.68014 13.1378 8.61473C13.2308 8.15089 13.4291 7.78267 13.7344 7.51095C14.0393 7.23826 14.407 7.10148 14.8377 7.10148C15.1904 7.10148 15.4701 7.20014 15.6749 7.39724C15.8796 7.59553 15.9821 7.86303 15.9821 8.20319C15.9821 8.26146 15.9777 8.32893 15.9701 8.40138C15.9613 8.4728 15.9504 8.54395 15.9374 8.61473C15.8464 9.07153 15.6488 9.43573 15.3434 9.70236C15.038 9.97094 14.6712 10.1047 14.2436 10.1047C13.8895 10.1048 13.6107 10.0082 13.4059 9.81402ZM14.9016 9.24859C15.04 9.09871 15.139 8.87128 15.1995 8.56848C15.2086 8.52116 15.2166 8.47188 15.2216 8.4226C15.2265 8.3743 15.2286 8.32903 15.2286 8.28777C15.2286 8.11168 15.1838 7.9749 15.0938 7.8783C15.0043 7.78072 14.8771 7.73242 14.7126 7.73242C14.4952 7.73242 14.318 7.80877 14.1793 7.9618C14.0394 8.11482 13.9402 8.34615 13.8778 8.65404C13.8692 8.70136 13.8622 8.74869 13.8557 8.79493C13.8507 8.84226 13.8492 8.88644 13.8502 8.92673C13.8502 9.10185 13.895 9.23668 13.985 9.3322C14.0746 9.42783 14.2013 9.47504 14.3678 9.47504C14.5863 9.47494 14.7632 9.39945 14.9016 9.24859Z" fill="white"/>
<path d="M21.0742 12.0415L21.2634 11.3754H22.2203L22.1791 11.62C22.1791 11.62 22.6679 11.3754 23.0201 11.3754H24.2033L24.0153 12.0415H23.8291L22.9366 15.1828H23.1228L22.9457 15.8066H22.7595L22.6821 16.0772H21.7554L21.8327 15.8066H20.0047L20.1828 15.1828H20.3659L21.2593 12.0415H21.0742ZM22.1066 12.0415L21.8632 12.8916C21.8632 12.8916 22.2799 12.7317 22.639 12.6864C22.7183 12.3896 22.8219 12.0415 22.8219 12.0415H22.1066ZM21.7504 13.2901L21.506 14.1807C21.506 14.1807 21.9678 13.9533 22.2847 13.9342C22.3762 13.59 22.4678 13.2903 22.4678 13.2903L21.7504 13.2901ZM21.9294 15.1828L22.1125 14.5368H21.3983L21.2141 15.1828H21.9294ZM24.2436 11.3342H25.1432L25.1814 11.6661C25.1753 11.7506 25.2257 11.791 25.3324 11.791H25.4914L25.3305 12.3533H24.6694C24.417 12.3663 24.2872 12.2698 24.2751 12.0615L24.2436 11.3342ZM23.98 12.5406H26.8937L26.7227 13.1444H25.795L25.6359 13.7057H26.5629L26.3907 14.3084H25.3585L25.125 14.6616H25.6303L25.7469 15.3689C25.7608 15.4393 25.8232 15.4735 25.93 15.4735H26.0868L25.922 16.056H25.3665C25.0786 16.0702 24.9299 15.9736 24.9177 15.7653L24.7838 15.1193L24.3241 15.8066C24.2154 16.0007 24.0483 16.0913 23.823 16.0772H22.9748L23.1398 15.4945H23.4045C23.5132 15.4945 23.6036 15.4464 23.6851 15.3487L24.4047 14.3084H23.477L23.649 13.7057H24.6552L24.8151 13.1444H23.8081L23.98 12.5406ZM8.64074 7.17478H9.34858L9.26757 7.58728L9.36916 7.46956C9.59864 7.22405 9.87729 7.10233 10.2063 7.10233C10.5041 7.10233 10.7189 7.18886 10.8538 7.36289C10.9866 7.53693 11.0229 7.77746 10.9599 8.08632L10.57 10.0322H9.84253L10.1946 8.26848C10.2309 8.08632 10.2208 7.95052 10.1649 7.8629C10.1097 7.7754 10.004 7.73219 9.85151 7.73219C9.66438 7.73219 9.50691 7.79045 9.37858 7.90622C9.24981 8.02297 9.1648 8.18498 9.12299 8.39118L8.79853 10.0322H8.06958L8.64074 7.17478ZM16.7578 7.17478H17.4663L17.3858 7.58728L17.4862 7.46956C17.7159 7.22405 17.9955 7.10233 18.3236 7.10233C18.6214 7.10233 18.8365 7.18886 18.9704 7.36289C19.1024 7.53693 19.1404 7.77746 19.0761 8.08632L18.6877 10.0322H17.9592L18.3115 8.26848C18.3477 8.08632 18.3375 7.95052 18.2822 7.8629C18.2248 7.7754 18.1211 7.73219 17.9693 7.73219C17.7821 7.73219 17.6252 7.79045 17.4954 7.90622C17.3666 8.02297 17.2811 8.18498 17.2409 8.39118L16.9148 10.0322H16.1868L16.7578 7.17478ZM20.2594 5.40389H22.316C22.7112 5.40389 23.0172 5.49345 23.2274 5.66944C23.4366 5.84769 23.5413 6.10317 23.5413 6.43619V6.44626C23.5413 6.50961 23.5372 6.58109 23.5312 6.65852C23.5207 6.73715 23.5073 6.81536 23.491 6.89299C23.4003 7.33365 23.1901 7.68789 22.8652 7.95647C22.539 8.22408 22.1529 8.35891 21.7082 8.35891H20.6053L20.2643 10.0321H19.3094L20.2594 5.40389ZM20.7734 7.55415H21.6879C21.9263 7.55415 22.1155 7.4987 22.2536 7.3891C22.3905 7.27842 22.481 7.10937 22.531 6.87999C22.539 6.83765 22.5441 6.79942 22.5502 6.76422C22.5532 6.73108 22.5572 6.69773 22.5572 6.66567C22.5572 6.5016 22.499 6.3829 22.3821 6.30839C22.2655 6.2328 22.0824 6.19674 21.8288 6.19674H21.0521L20.7734 7.55415ZM27.8154 10.5846C27.5135 11.2265 27.2259 11.6007 27.0569 11.7747C26.8878 11.9469 26.5527 12.3473 25.7458 12.3171L25.8154 11.8273C26.4944 11.6179 26.8615 10.6751 27.071 10.2576L26.8214 7.18279L27.3466 7.17575H27.7873L27.8347 9.10454L28.6606 7.17575H29.4969L27.8154 10.5846ZM25.4773 7.40816L25.1451 7.63656C24.798 7.36495 24.4812 7.19687 23.8695 7.48061C23.0364 7.86691 22.3401 10.8302 24.6342 9.85418L24.7649 10.0092L25.6675 10.0323L26.2602 7.33982L25.4773 7.40816ZM24.9639 8.88014C24.819 9.30781 24.4952 9.59047 24.2416 9.51001C23.9881 9.43149 23.8974 9.01898 24.0445 8.59034C24.1894 8.1617 24.5154 7.88001 24.7668 7.96048C25.0204 8.039 25.1119 8.4515 24.9639 8.88014Z" fill="white"/>
</svg>
