<svg width="39" height="25" viewBox="0 0 39 25" fill="none" xmlns="http://www.w3.org/2000/svg">
<path fill-rule="evenodd" clip-rule="evenodd" d="M39 2.80251C39 0.929305 38.0265 0 36.1381 0H2.86171C1.91781 0 1.22448 0.250774 0.767126 0.766917C0.250983 1.28327 0 1.947 0 2.80251V21.801C0 22.6565 0.250983 23.3054 0.767126 23.8363C1.29828 24.3527 1.97681 24.6035 2.86171 24.6035H36.1381C38.0265 24.6035 39 23.6598 39 21.8012V2.80251Z" fill="white"/>
<path fill-rule="evenodd" clip-rule="evenodd" d="M39 2.80251C39 0.929305 38.0265 0 36.1381 0H2.86171C1.91781 0 1.22448 0.250774 0.767126 0.766917C0.250983 1.28327 0 1.947 0 2.80251V21.801C0 22.6565 0.250983 23.3054 0.767126 23.8363C1.29828 24.3527 1.97681 24.6035 2.86171 24.6035H36.1381C38.0265 24.6035 39 23.6598 39 21.8012V2.80251ZM36.1381 0.442556C37.7015 0.442556 38.4982 1.23907 38.4982 2.80251V21.801C38.4982 23.379 37.7015 24.1607 36.1381 24.1607H2.86171C2.10939 24.1607 1.53425 23.9395 1.1065 23.497C0.663939 23.069 0.442765 22.4791 0.442765 21.8007V2.80251C0.442765 1.23907 1.22448 0.442556 2.86171 0.442556H36.1381Z" fill="#315881"/>
<path fill-rule="evenodd" clip-rule="evenodd" d="M3.1271 1.53418C2.49297 1.53418 2.0946 1.63737 1.87343 1.85875C1.68165 2.10952 1.59326 2.52248 1.59326 3.12722V7.24239H37.4068V3.12722C37.4068 2.05053 36.8754 1.53418 35.8135 1.53418H3.1271Z" fill="#315881"/>
<path fill-rule="evenodd" clip-rule="evenodd" d="M1.59326 21.4171C1.59326 22.5082 2.1094 23.069 3.1271 23.069H35.8135C36.8754 23.069 37.4068 22.5084 37.4068 21.4171V17.3018H1.59326V21.4171Z" fill="#DFA43B"/>
<path fill-rule="evenodd" clip-rule="evenodd" d="M13.4525 8.99767C13.4525 9.18945 13.4229 9.33683 13.3493 9.44022L10.7679 13.9392L10.6056 8.45192H6.47559L7.86204 9.11565C8.2602 9.36643 8.46678 9.69079 8.46678 10.104L8.85013 15.9306H10.8709L15.7092 8.45192H13.2313C13.3787 8.58471 13.4525 8.79108 13.4525 8.99767ZM30.15 8.6731L30.3119 8.45171H27.7896C27.878 8.5401 27.9076 8.5845 27.9076 8.61389C27.8778 8.73167 27.8188 8.80568 27.7896 8.89406L24.1168 15.5906C24.0284 15.7086 23.9396 15.8119 23.8366 15.9301H25.9164L25.813 15.7088C25.813 15.517 25.9164 15.1632 26.1376 14.6617L26.5801 13.8356H28.7189C28.8077 14.5289 28.8667 15.1042 28.8961 15.5322L28.7189 15.9304H31.3002L30.9167 15.3698L30.15 8.6731ZM28.6157 12.7885H27.0817L28.3943 10.2661L28.6157 12.7885ZM22.2436 8.06836C21.4473 8.06836 20.7685 8.28974 20.1638 8.73209C19.4998 9.11565 19.1755 9.6024 19.1755 10.2073C19.1755 10.9007 19.4114 11.5054 19.8834 11.9626L21.3145 12.9507C21.8308 13.3196 22.0816 13.644 22.0816 13.9392C22.0816 14.2193 21.9484 14.4701 21.698 14.6619C21.4473 14.8537 21.1667 14.9421 20.8129 14.9421C20.2966 14.9421 19.4117 14.5735 18.1874 13.895V15.2666C19.1461 15.842 20.0756 16.1371 20.9751 16.1371C21.8308 16.1371 22.5535 15.901 23.1733 15.37C23.837 14.8831 24.1614 14.3081 24.1614 13.6738C24.1614 13.1424 23.9252 12.6559 23.3942 12.1395L22.0222 11.1512C21.5654 10.7825 21.3145 10.4579 21.3145 10.2073C21.3145 9.63221 21.6536 9.33703 22.347 9.33703C22.8189 9.33703 23.5122 9.60261 24.4413 10.1632L24.7219 8.7323C23.9398 8.28953 23.1287 8.06836 22.2436 8.06836ZM16.7565 15.9304C16.7269 15.6206 16.6679 15.3404 16.6383 15.0452L18.5117 8.99767L18.9543 8.45192H16.255C16.2846 8.58471 16.314 8.76169 16.3436 8.89448C16.3436 9.02727 16.3436 9.18965 16.314 9.33703L14.4408 15.3256L14.0572 15.9306L16.7565 15.9304Z" fill="#315881"/>
</svg>
